<?xml version="1.0" standalone="no"?><!DOCTYPE svg PUBLIC "-//W3C//DTD SVG 1.1//EN" "http://www.w3.org/Graphics/SVG/1.1/DTD/svg11.dtd"><svg t="1563179754975" class="icon" viewBox="0 0 1024 1024" version="1.1" xmlns="http://www.w3.org/2000/svg" p-id="12525" xmlns:xlink="http://www.w3.org/1999/xlink" width="200" height="200"><defs><style type="text/css"></style></defs><path d="M512 0.031C229.25 0.031 0 229.281 0 512c0 282.75 229.25 512 512 512s512-229.25 512-512C1024 229.281 794.75 0.031 512 0.031zM728.875 894.5l-3-0.438-1.875-0.5L722.313 893l-1.688-0.688-1.875-1.063-1.25-0.813-195.5-107c-4.594-2.563-8.125-6.625-10-11.375-1.969 4.75-5.438 8.813-10.094 11.375L302.125 893l-2.594 0.688-3.469 0.688-2.094 0.125-2-0.125-3.469-0.563-2.188-0.5-3.063-1.375-197.875-108.5c-5-2.75-8.656-7.188-10.469-12.438L74 771l-0.313-4.375-0.063-2.938L73.624 500.594c0-9.281 5.75-17.75 14.344-21.125l208.563-99.188L296.531 123.5c0-9.313 5.75-17.813 14.344-21.188L523.969 1.031l0 2.938c3.156 0.125 6.156 0.906 9.063 2.344l189.906 96.313c8.125 3.188 13.75 11.438 13.75 20.875l0 255.156 0.313 2.375c3.375 0.063 6.688 0.844 9.75 2.406l189.938 96.375c8.125 3.125 13.688 11.375 13.688 20.781L950.377 771l-1.313 0c-1.813 5.25-5.5 9.688-10.438 12.438L738.813 893l-2.75 0.688-3.563 0.688-1.625 0.125L728.875 894.501 728.875 894.5zM749.688 842.313l152.438-83.5L902.126 547.438l-152.438 83.5L749.688 842.313zM313.25 842.313l152.406-83.5L465.656 547.438l-152.406 83.5L313.25 842.313zM702.875 840.375 702.875 628.938l-63.563-34.813 0 46.813-52.688-24.75 0-50.875L550.5 545.438l0 211.438L702.875 840.375 702.875 840.375zM266.25 840.375 266.25 628.938l-63.594-34.813 0 46.813L150 616.188l0-50.875-36.188-19.875 0 211.438L266.25 840.375 266.25 840.375zM725.375 589.813 874.5 508.156l-58.375-29.625-150.563 78.406L725.375 589.813 725.375 589.813zM288.75 589.813l149.094-81.656-58.406-29.625-150.563 78.406L288.75 589.813 288.75 589.813zM173.188 526.5l148.281-77.375-26.594-13.5-153.938 73.094L173.188 526.5zM609.813 526.5l148.313-77.375-26.563-13.5-153.938 73.094L609.813 526.5zM489.375 468.5 489.375 257.156l-63.594-34.875 0 46.813-52.656-24.813 0-50.875-36.156-19.781L336.969 385 489.375 468.5 489.375 468.5zM537 464.563 689.375 381 689.375 169.625 537 253.188 537 464.563zM511.656 212.688l149.281-83.656-58.563-29.656-150.719 80.438L511.656 212.688zM406.75 154.594l148.5-79.25-36.156-17.938-154.031 75L406.75 154.594z" p-id="12526"></path></svg>