<?xml version="1.0" standalone="no"?><!DOCTYPE svg PUBLIC "-//W3C//DTD SVG 1.1//EN" "http://www.w3.org/Graphics/SVG/1.1/DTD/svg11.dtd"><svg t="1563260819424" class="icon" viewBox="0 0 1024 1024" version="1.1" xmlns="http://www.w3.org/2000/svg" p-id="4825" xmlns:xlink="http://www.w3.org/1999/xlink" width="200" height="200"><defs><style type="text/css"></style></defs><path d="M1012 934.5 805.6 728.2c53.9-73.7 85.7-164.5 85.7-262.7 0-246.2-199.5-445.7-445.7-445.7C199.5 19.7 0 219.3 0 465.4S199.5 911 445.7 911c62.5 0 122-12.9 176-36.1 0.3-0.1 0.4-0.8 0.6-1.5 1-0.4 2.1-0.5 3-1 12.9-6.9 21.6-20.5 21.6-36.1 0-22.5-18.3-40.8-40.8-40.8-1.4 0-2.7 0.4-4.1 0.6-1.2-0.3-2.8-0.2-5 0.5-0.2 0.1-0.3 0.1-0.5 0.2-3.4 0.8-6.7 2.1-9.7 3.8-21.6 9-44 16.4-67.5 21.1-23.1 4.6-47 7.1-71.4 7.1-201.4 0-364.6-163.2-364.6-364.6 0-100.5 40.7-191.5 106.5-257.5 66-66.1 157.2-107 258.1-107 201.3 0 364.6 163.2 364.6 364.6C812.5 542 788 614 746.6 673c-6.7 9.6-13.9 18.8-21.5 27.6-0.2 0.3-0.1 0.5-0.2 0.8-8.2 7.5-13.4 18.1-13.4 30 0 10.6 4.1 20.1 10.7 27.4l-0.1 0 0.7 0.7c0.4 0.4 0.7 0.7 1.1 1.1l27.6 28.9 202.7 202.7c16 16 41.9 16 57.8 0C1028 976.4 1028 950.5 1012 934.5z" p-id="4826"></path></svg>