<?xml version="1.0" standalone="no"?><!DOCTYPE svg PUBLIC "-//W3C//DTD SVG 1.1//EN" "http://www.w3.org/Graphics/SVG/1.1/DTD/svg11.dtd"><svg t="1558059679281" class="icon" style="" viewBox="0 0 1024 1024" version="1.1" xmlns="http://www.w3.org/2000/svg" p-id="5259" xmlns:xlink="http://www.w3.org/1999/xlink" width="200" height="200"><defs><style type="text/css"></style></defs><path d="M96.171851 516.649903c0-31.91078 0.046049-63.822584 0.055259-95.732341 0.00921-31.91078-0.01842-63.821561-0.166799-95.731318-0.045025-9.680477 0.938372-19.151176 2.622734-28.482705 1.684362-9.330506 4.068665-18.521842 6.823406-27.644617 4.709255-15.592117 10.825556-30.485315 18.311041-44.660152 7.485485-14.173814 16.341177-27.628244 26.52819-40.340777 10.241248-12.779048 21.512966-24.367991 33.80799-34.753525 12.294001-10.386558 25.611308-19.571754 39.941688-27.544333 13.356193-7.430226 27.157523-13.549597 41.402969-18.327414 14.244422-4.777817 28.933983-8.213056 44.066635-10.278087 4.414543-0.602727 8.865925-1.080611 13.325493-1.408069s8.930393-0.50756 13.383822-0.511653c59.239196-0.062422 118.477368-0.118704 177.716564-0.12996 59.239196-0.011256 118.477368 0.024559 177.716564 0.148379 15.103999 0.031722 29.897937 1.827625 44.38693 5.083785 14.488992 3.25616 28.67304 7.972579 42.555212 13.843286 11.237949 4.752234 22.022573 10.279111 32.341592 16.576537s20.171412 13.367449 29.541827 21.203928c12.767791 10.6782 24.294312 22.357194 34.574447 35.049261 10.279111 12.69309 19.310811 26.400277 27.084868 41.134863 6.602372 12.511965 12.238742 25.349341 16.717753 38.564317 4.480035 13.214976 7.80271 26.805506 9.778714 40.823777 0.852414 6.04774 1.598404 12.139481 2.13257 18.244526 0.535189 6.104021 0.860601 12.221346 0.870834 18.319228 0.109494 59.821457 0.191358 119.643937 0.203638 179.466418 0.014326 59.821457-0.041956 119.643937-0.204661 179.465394-0.040932 15.233959-1.827625 30.182416-5.053086 44.845371s-7.888667 29.039383-13.684674 43.126216c-4.641717 11.278881-10.001795 22.1423-16.109909 32.56979-6.108115 10.426467-12.963243 20.417005-20.594037 29.953196-10.3006 12.869099-21.615297 24.536836-33.955346 34.991955-12.339026 10.457166-25.701358 19.702738-40.098253 27.729551-12.301164 6.858198-24.990161 12.644995-38.08541 17.249873s-26.595728 8.026814-40.520879 10.155291c-5.624091 0.860601-11.298324 1.610684-16.986883 2.149966s-11.389398 0.864694-17.068747 0.873903c-59.57177 0.107447-119.144564 0.199545-178.716334 0.214894s-119.145587-0.048095-178.716334-0.252757c-14.737656-0.051165-29.187763-1.920746-43.341111-5.227048-14.153348-3.306302-28.009937-8.049327-41.560558-13.847379-11.066033-4.734838-21.684882-10.213619-31.857569-16.434298-10.171664-6.219655-19.897166-13.180184-29.176506-20.877493-12.821003-10.636245-24.349571-22.312168-34.640961-34.991955-10.290367-12.679787-19.343557-26.363438-27.214828-41.016159-6.817266-12.691043-12.402471-25.798573-16.875343-39.276539-4.471848-13.478989-7.830339-27.329439-10.194176-41.508369-0.352017-2.111081-0.607844-4.250814-0.776689-6.399757-0.167822-2.14792-0.248663-4.303003-0.25071-6.444782-0.030699-33.326013-0.041956-66.654073-0.045025-99.981109C96.167758 583.303976 96.171851 549.975916 96.171851 516.649903zM244.973876 765.893524c15.090697 0 30.03506 0 44.997843 0 14.962783 0 29.943986 0 45.107337 0 0-42.659589 0-85.244476 0-127.789455 0-42.543955 0-85.049025 0-127.548978 21.819958 0 43.455721 0 65.058738 0 21.60404 0 43.174312 0 64.863287 0 0 54.29765 0 108.507296 0 162.692383s0 108.34459 0 162.544003c15.935947 0 31.754215 0 47.594995 0 15.839757 0 31.704073 0 47.733141 0 0-54.327326 0-108.578927 0-162.770154 0-54.18918 0-108.316961 0-162.393577 24.445762 0 48.726771 0 72.942289 0s48.366567 0 72.552409 0c0 22.37152 0.160659 44.641733 0.207731 66.856687 0.047072 22.213931-0.020466 44.373627-0.477884 66.526159-0.231267 11.168364-3.792373 20.117177-10.051937 26.399253-6.258541 6.284123-15.216563 9.900487-26.237571 10.406001-9.797134 0.448208-19.61678 0.429789-29.441543 0.252757-9.825786-0.176009-19.656689-0.509606-29.477358-0.687662-4.042059-0.073678-8.080026-0.281409-12.190647-0.532119-4.110621-0.248663-8.29185-0.539282-12.617365-0.775666 0.275269 1.041726 0.50142 1.916653 0.707105 2.706645s0.39295 1.49505 0.587378 2.196015c3.65525 13.129019 7.337105 26.251897 10.990309 39.380916 3.653203 13.130042 7.278777 26.267247 10.821463 39.426965 0.472767 1.75804 1.038656 2.87242 1.911536 3.535523 0.873903 0.663102 2.057869 0.876973 3.768837 0.832971 10.827603-0.276293 21.660322-0.414439 32.489972-0.597611 10.830673-0.183172 21.658276-0.409322 32.476669-0.861624 7.30743-0.305969 14.644535-0.657986 21.951965-1.24127 7.30743-0.584308 14.585183-1.402953 21.772886-2.641153 13.108552-2.258437 24.909319-6.668886 35.07075-13.504572s18.686594-16.096607 25.240871-28.057009c4.459568-8.137331 7.616468-16.638959 9.664104-25.39846s2.984984-17.779945 3.006474-26.956955c0.094144-39.747259 0.118704-79.495542 0.119727-119.242801 0.001023-39.748283-0.021489-79.496565-0.022513-119.244848 0-0.715291-0.049119-1.429559-0.115634-2.192945-0.065492-0.763386-0.149403-1.574868-0.216941-2.482541-39.33282 0-78.562287 0-117.760031 0s-78.361719 0-117.562533 0c0-12.988826 0-25.872251 0-38.784328s0-25.853831 0-38.957267c44.841278 0 89.602737 0 134.304845 0 44.702108 0 89.345887 0 133.950781 0 0-14.528901 0-28.893051 0-43.209104s0-28.582989 0-42.917462c-1.27504 0-2.450818 0-3.576455 0s-2.201132 0-3.27765 0c-41.331337 0-82.662675-0.008186-123.994012 0s-82.662675 0.032746-123.992989 0.101307c-2.111081 0.00307-3.563152-0.318248-4.659113-1.139963-1.094938-0.820692-1.832741-2.14178-2.51324-4.13518-4.351098-12.746302-8.816806-25.452695-13.291724-38.154995-4.476965-12.703323-8.963139-25.402553-13.356193-38.133505-0.75213-2.179642-1.52575-3.64604-2.735297-4.408403-1.208525-0.762363-2.849908-0.819668-5.337565-0.180102-8.852622 2.27481-17.743106 4.402263-26.644847 6.483668-8.901741 2.082428-17.814738 4.117784-26.714432 6.208399-7.592932 1.784646-15.186887 3.567245-22.850427 5.366218-7.66354 1.798972-15.397688 3.614317-23.271006 5.462408 4.129041 10.467399 8.214079 20.824281 12.317537 31.227212s8.225335 20.85191 12.428054 31.506575c-43.24799 0-86.292342 0-129.2272 0s-85.760223 0-128.569214 0c0 14.512529 0 28.866445 0 43.210128 0 14.34266 0 28.674063 0 43.138496 44.327578 0 88.552825 0 132.713604 0 44.160779 0 88.259136 0 132.333958 0 0 13.050224 0 25.966395 0 38.860053s0 25.767873 0 38.733163c-36.668131 0-73.237001 0-109.792569 0-36.556591 0-73.099878 0-109.714797 0 0 56.883545 0 113.673969 0 170.459277S244.973876 709.031469 244.973876 765.893524z" p-id="5260"></path></svg>