<?xml version="1.0" standalone="no"?><!DOCTYPE svg PUBLIC "-//W3C//DTD SVG 1.1//EN" "http://www.w3.org/Graphics/SVG/1.1/DTD/svg11.dtd"><svg t="1557803487127" class="icon" style="" viewBox="0 0 1024 1024" version="1.1" xmlns="http://www.w3.org/2000/svg" p-id="3675" xmlns:xlink="http://www.w3.org/1999/xlink" width="200" height="200"><defs><style type="text/css"></style></defs><path d="M289.250372 960.351378 143.691381 960.351378c-8.636035 0-16.016422-7.380084-16.016422-16.010649L127.674959 79.659271c0-8.630564 7.259632-16.020882 16.016422-16.020882l736.614169 0c8.635011 0 16.015398 7.260357 16.015398 16.020882l0 466.23877 64.050336 27.629267L960.371283 79.659271c0.001023-44.039006-36.026971-80.0645-80.065734-80.0645L143.691381-0.405229c-44.04081 0-80.062664 35.966143-80.062664 80.0645l0 864.682481c0 43.969421 36.022877 80.062454 80.062664 80.062454l145.558991 0L289.250372 960.351378z" p-id="3676"></path><path d="M809.175691 460.130655c0-83.58365-67.773276-151.300938-151.307137-151.300938-83.587075 0-151.308161 67.718311-151.308161 151.300938 0 83.584674 67.722109 151.301961 151.308161 151.301961C741.403438 611.432617 809.175691 543.714306 809.175691 460.130655z" p-id="3677"></path><path d="M859.612427 661.865239l-0.098241 0-27.784925 0L674.809059 980.372364l58.712552-293.288766-75.653057-75.650981-75.65408 75.650981 58.609194 293.288766L483.901419 661.865239l-27.777762 0-0.097218 0c-100.79672 0-100.79672 67.771523-100.79672 151.302985L355.229719 1024.404206l605.25311 0L960.482828 813.169247C960.483852 729.636762 960.483852 661.865239 859.612427 661.865239z" p-id="3678"></path><path d="M228.872832 166.974919l562.84147 0 0 59.35176-562.84147 0 0-59.35176Z" p-id="3679"></path><path d="M228.872832 318.424236l194.436144 0 0 63.444984-194.436144 0 0-63.444984Z" p-id="3680"></path><path d="M228.872832 481.129922l216.949803 0 0 59.35176-216.949803 0 0-59.35176Z" p-id="3681"></path></svg>