<?xml version="1.0" standalone="no"?><!DOCTYPE svg PUBLIC "-//W3C//DTD SVG 1.1//EN" "http://www.w3.org/Graphics/SVG/1.1/DTD/svg11.dtd"><svg t="1563179897078" class="icon" viewBox="0 0 1024 1024" version="1.1" xmlns="http://www.w3.org/2000/svg" p-id="14329" xmlns:xlink="http://www.w3.org/1999/xlink" width="200" height="200"><defs><style type="text/css"></style></defs><path d="M891.278222 138.24a5.347556 5.347556 0 0 0-5.518222-5.518222h-254.464A5.347556 5.347556 0 0 0 625.777778 138.24v254.464c0 3.185778 2.332444 5.518222 5.518222 5.518222h254.464a5.347556 5.347556 0 0 0 5.518222-5.518222V138.24z m75.832889 0v254.464c0 45.056-36.295111 81.351111-81.351111 81.351111h-254.464c-45.056 0-81.351111-36.295111-81.351111-81.351111V138.24c0-45.056 36.295111-81.351111 81.351111-81.351111h254.464c45.056 0 81.351111 36.295111 81.351111 81.351111z m-493.056 0v254.464c0 45.056-36.295111 81.351111-81.351111 81.351111H138.24c-45.056 0-81.351111-36.295111-81.351111-81.351111V138.24C56.888889 93.184 93.184 56.888889 138.24 56.888889h254.464c45.056 0 81.351111 36.295111 81.351111 81.351111z m0 493.056v254.464c0 45.056-36.295111 81.351111-81.351111 81.351111H138.24C93.184 967.111111 56.888889 930.816 56.888889 885.76v-254.464c0-45.056 36.295111-81.351111 81.351111-81.351111h254.464c45.056 0 81.351111 36.295111 81.351111 81.351111z m493.056 0v254.464c0 45.056-36.295111 81.351111-81.351111 81.351111h-254.464c-45.056 0-81.351111-36.295111-81.351111-81.351111v-254.464c0-45.056 36.295111-81.351111 81.351111-81.351111h254.464c45.056 0 81.351111 36.295111 81.351111 81.351111z" p-id="14330"></path></svg>