<?xml version="1.0" standalone="no"?><!DOCTYPE svg PUBLIC "-//W3C//DTD SVG 1.1//EN" "http://www.w3.org/Graphics/SVG/1.1/DTD/svg11.dtd"><svg t="1563179856095" class="icon" viewBox="0 0 1024 1024" version="1.1" xmlns="http://www.w3.org/2000/svg" p-id="13796" xmlns:xlink="http://www.w3.org/1999/xlink" width="200" height="200"><defs><style type="text/css"></style></defs><path d="M879.889067 146.978133h-106.018134a21.162667 21.162667 0 0 0-20.855466 21.504c0 11.8784 9.3184 21.504 20.821333 21.504h106.052267V912.725333H144.110933V189.986133h107.7248a21.162667 21.162667 0 0 0 20.855467-21.504 21.162667 21.162667 0 0 0-20.821333-21.504H144.0768C121.105067 146.978133 102.4 166.263467 102.4 189.986133V912.725333C102.4 936.448 121.105067 955.733333 144.110933 955.733333h735.778134c23.005867 0 41.710933-19.285333 41.710933-43.008V190.020267c0-23.722667-18.705067-43.008-41.710933-43.008zM346.453333 191.317333h331.093334a21.162667 21.162667 0 0 0 20.821333-21.504 21.162667 21.162667 0 0 0-20.821333-21.504h-63.965867c0.341333-2.8672 0.750933-5.7344 0.750933-8.704C614.331733 81.442133 568.4224 34.133333 512 34.133333c-56.4224 0-102.331733 47.3088-102.331733 105.472 0 2.9696 0.443733 5.802667 0.750933 8.704H346.453333a21.162667 21.162667 0 0 0-20.821333 21.504c0 11.8784 9.3184 21.504 20.821333 21.504z m104.925867-51.712c0-34.474667 27.204267-62.464 60.6208-62.464 33.450667 0 60.6208 27.989333 60.6208 62.464 0 3.003733-0.682667 5.802667-1.1264 8.704h-118.9888c-0.443733-2.8672-1.1264-5.700267-1.1264-8.704z m-149.026133 261.973334h419.293866a21.162667 21.162667 0 0 0 20.855467-21.504 21.162667 21.162667 0 0 0-20.855467-21.504H302.353067a21.162667 21.162667 0 0 0-20.855467 21.504c0 11.8784 9.3184 21.504 20.855467 21.504z m0 184.695466h419.293866a21.162667 21.162667 0 0 0 20.855467-21.504 21.162667 21.162667 0 0 0-20.855467-21.504H302.353067a21.162667 21.162667 0 0 0-20.855467 21.504c0 11.912533 9.3184 21.504 20.855467 21.504z m0 184.7296h419.293866a21.162667 21.162667 0 0 0 20.855467-21.504 21.162667 21.162667 0 0 0-20.855467-21.504H302.353067a21.162667 21.162667 0 0 0-20.855467 21.504c0 11.912533 9.3184 21.504 20.855467 21.504z" fill="#000000" p-id="13797"></path></svg>