<?xml version="1.0" standalone="no"?><!DOCTYPE svg PUBLIC "-//W3C//DTD SVG 1.1//EN" "http://www.w3.org/Graphics/SVG/1.1/DTD/svg11.dtd"><svg t="1563854211574" class="icon" viewBox="0 0 1024 1024" version="1.1" xmlns="http://www.w3.org/2000/svg" p-id="14299" xmlns:xlink="http://www.w3.org/1999/xlink" width="200" height="200"><defs><style type="text/css"></style></defs><path d="M512 25.6C243.2 25.6 25.6 243.2 25.6 512s217.6 486.4 486.4 486.4c76.8 0 147.2-19.2 211.2-51.2 12.8-6.4 19.2-19.2 12.8-32-6.4-12.8-19.2-19.2-32-12.8-57.6 32-121.6 44.8-192 44.8-243.2 0-441.6-198.4-441.6-441.6C70.4 262.4 268.8 64 512 64c243.2 0 441.6 198.4 441.6 441.6 0 102.4-38.4 204.8-102.4 288-6.4 12.8-6.4 25.6 0 32 12.8 6.4 25.6 6.4 32 0 76.8-89.6 115.2-198.4 115.2-313.6C998.4 243.2 780.8 25.6 512 25.6z" p-id="14300"></path><path d="M704 512v-38.4H595.2l102.4-192c6.4-12.8 0-32-19.2-32H595.2c-6.4 0-12.8 6.4-19.2 12.8L518.4 384l-57.6-121.6c-6.4-6.4-12.8-12.8-19.2-12.8H364.8c-19.2 0-25.6 19.2-19.2 32l102.4 192H326.4V512H448v102.4H339.2v44.8H448v102.4c0 12.8 12.8 19.2 19.2 19.2h89.6c12.8 0 19.2-12.8 19.2-19.2v-102.4h108.8v-44.8H582.4V512H704z" p-id="14301"></path></svg>