<?xml version="1.0" standalone="no"?><!DOCTYPE svg PUBLIC "-//W3C//DTD SVG 1.1//EN" "http://www.w3.org/Graphics/SVG/1.1/DTD/svg11.dtd"><svg t="1563852230266" class="icon" viewBox="0 0 1024 1024" version="1.1" xmlns="http://www.w3.org/2000/svg" p-id="3490" xmlns:xlink="http://www.w3.org/1999/xlink" width="200" height="200"><defs><style type="text/css"></style></defs><path d="M515.650388 186.491129a325.518248 325.518248 0 1 0 325.518249 325.518249 325.518248 325.518248 0 0 0-325.518249-325.518249z m152.465418 569.387466H362.214883c-21.12635 0-38.210669-14.605206-38.264563-32.33625s17.246-32.605719 38.264563-32.605718h305.793136c21.018562 0 38.264562 14.6591 38.264562 32.605718s-17.084319 32.33625-38.156775 32.33625z m74.319481-107.302456c0 6.089994-6.790612 11.2099-15.036356 11.2099H303.955739c-8.407425 0-15.09025-5.012119-15.09025-11.2099v-33.036868c0-18.377769 19.940687-33.306337 44.462344-33.306338 60.684362 0 123.255006-37.348369 123.255006-77.068062 0 0 3.988137-35.623769-20.048475-62.624537-1.7246-1.562919-3.4492-3.341412-5.389375-5.389375a9.377512 9.377512 0 0 0-0.754513-0.646725 110.158824 110.158824 0 0 1 8.515213-156.884705 115.386518 115.386518 0 0 1 160.010543 6.8984 109.997143 109.997143 0 0 1-5.389375 156.938599 77.17585 77.17585 0 0 0-18.916707 61.600556c0 39.719694 62.678431 76.960275 123.201112 76.960274 24.521656 0 44.516237 14.928569 44.354556 33.252444z" p-id="3491"></path><path d="M512.147294 1024A512.583454 512.583454 0 0 1 0.156672 498.751515C7.378434 220.605873 238.42094-2.35257 516.674369 0.018755a508.541423 508.541423 0 0 1 277.175555 84.397612 16.545381 16.545381 0 0 1 4.3115 23.335994 16.491487 16.491487 0 0 1-22.581481 4.203712 477.983666 477.983666 0 1 0 170.681506 197.358912 16.437594 16.437594 0 0 1 7.383443-21.5575 16.168125 16.168125 0 0 1 22.4198 7.652912A506.06231 506.06231 0 0 1 1024.137917 512.009378a512.583454 512.583454 0 0 1-511.990623 511.990622z" p-id="3492"></path><path d="M927.183061 223.354454m-18.862812 0a18.862812 18.862812 0 1 0 37.725625 0 18.862812 18.862812 0 1 0-37.725625 0Z" p-id="3493"></path></svg>