<?xml version="1.0" standalone="no"?><!DOCTYPE svg PUBLIC "-//W3C//DTD SVG 1.1//EN" "http://www.w3.org/Graphics/SVG/1.1/DTD/svg11.dtd"><svg t="1563179118343" class="icon" viewBox="0 0 1024 1024" version="1.1" xmlns="http://www.w3.org/2000/svg" p-id="12303" xmlns:xlink="http://www.w3.org/1999/xlink" width="200" height="200"><defs><style type="text/css"></style></defs><path d="M896 0A128 128 0 0 1 1024 128v768a128 128 0 0 1-128 128h-768A128 128 0 0 1 0 896v-768A128 128 0 0 1 128 0h768zM359.7824 517.4784c15.0016 24.576 32.0512 55.296 52.5312 91.4432l40.2944-61.44A1665.4336 1665.4336 0 0 0 359.7824 436.224v-34.816h73.0112V333.824H359.7824V208.2304H290.816V333.824H204.1344v67.584h83.968a637.7984 637.7984 0 0 1-96.256 211.6096l30.0032 73.728c27.3408-46.3872 49.8688-96.256 68.9664-150.1696v302.4384h68.9664v-321.536z m83.968-242.3808V339.968h115.3536c-36.864 62.8224-67.584 102.4-91.4944 117.4016a46.08 46.08 0 0 1-12.9536 6.144l14.336 57.344 132.4544-6.144a475.392 475.392 0 0 1-186.368 115.4048l38.912 58.6752c131.7376-49.152 231.424-141.312 299.6736-277.1456l-57.344-30.72c-13.6704 25.9584-28.0064 50.5344-44.3904 73.728a4941.312 4941.312 0 0 1-103.7312 7.5264c24.576-27.3408 52.5312-67.584 83.968-122.2144H819.2V275.0976h-147.456a785.5616 785.5616 0 0 0-25.2416-68.9152l-73.0624 12.288c10.24 17.0496 19.8144 36.1472 28.672 56.6272H443.7504zM665.6 710.656c46.4384 45.056 82.5856 87.3984 109.9264 128.3584l51.8656-51.9168a1067.3664 1067.3664 0 0 0-117.4016-119.4496 745.8304 745.8304 0 0 0 108.544-154.9824l-59.392-30.72C681.3184 628.0704 563.2 727.04 405.504 778.24l39.5776 60.7744c81.1008-28.16 156.0064-71.7312 220.5184-128.3584z" p-id="12304"></path></svg>