<?xml version="1.0" standalone="no"?><!DOCTYPE svg PUBLIC "-//W3C//DTD SVG 1.1//EN" "http://www.w3.org/Graphics/SVG/1.1/DTD/svg11.dtd"><svg t="1563180797390" class="icon" viewBox="0 0 1049 1024" version="1.1" xmlns="http://www.w3.org/2000/svg" p-id="15084" xmlns:xlink="http://www.w3.org/1999/xlink" width="204.8828125" height="200"><defs><style type="text/css"></style></defs><path d="M514.556132 1.511811C232.855345 1.511811 4.445896 229.795276 4.445896 511.496063c0 281.574803 228.283465 509.984252 509.984252 509.984252 281.700787 0 509.984252-228.283465 509.984252-509.984252 0-281.700787-228.283465-509.984252-509.858268-509.984252z m0 996.661417c-268.850394 0-486.677165-217.952756-486.677165-486.677165C27.878967 242.645669 245.705739 24.818898 514.556132 24.818898 783.53251 24.818898 1001.233298 242.771654 1001.233298 511.496063c0 268.850394-217.952756 486.677165-486.677166 486.677165z m0 0" p-id="15085"></path><path d="M514.556132 1022.740157c-281.952756 0-511.244094-229.291339-511.244094-511.244094C3.186053 229.543307 232.729361 0.125984 514.556132 0.125984s511.244094 229.291339 511.244095 511.244095c0 282.07874-229.417323 511.370079-511.244095 511.370078z m0-1020.094488C233.989203 2.645669 5.705739 230.929134 5.705739 511.496063c0 280.440945 228.15748 508.724409 508.724409 508.724409 280.566929 0 508.724409-228.15748 508.724409-508.724409 0-280.440945-228.15748-508.850394-508.598425-508.850394z m0 996.661418C245.579754 999.307087 26.619124 780.472441 26.619124 511.496063 26.619124 242.393701 245.45377 23.559055 514.556132 23.559055 783.658494 23.559055 1002.49314 242.393701 1002.49314 511.496063c0 268.976378-218.96063 487.811024-487.937008 487.811024z m0-973.228347C246.965581 26.07874 29.138809 243.905512 29.138809 511.496063S246.965581 996.913386 514.556132 996.913386C782.146683 996.787402 999.973455 779.086614 999.973455 511.496063S782.146683 26.07874 514.556132 26.07874z m0 0" p-id="15086"></path><path d="M280.855345 563.149606c0-14.866142-0.755906-36.535433-2.771654-52.15748 50.015748 1.385827 111.11811 2.141732 237.102362 2.141732s187.212598-0.755906 237.858268-2.141732c-2.141732 14.866142-2.771654 37.291339-2.771653 52.15748v132.283465c28.094488 0 47.11811-1.385827 71.055118-5.669291v64c-46.488189-4.283465-99.149606-7.055118-305.385827-7.055119-206.866142 0-261.03937 2.771654-307.527559 7.055119v-64c24.566929 4.283465 43.590551 5.669291 72.440945 5.669291V563.149606z m47.874016-350.362204v159.748031c0 27.464567 0 55.559055 2.771653 87.937008h-64c3.527559-33.76378 4.913386-60.472441 4.913386-87.937008v-115.401575c0-34.519685-1.385827-60.472441-4.913386-79.496063 22.425197 3.527559 40.818898 4.283465 63.244095 2.771654 11.968504-0.755906 14.866142 7.055118 3.527559 13.354331-4.15748 2.771654-5.543307 8.440945-5.543307 19.023622z m2.141732 346.07874v137.19685h88.692913V558.866142h-88.692913z m131.527559-380.472441v215.307086c0 26.708661 1.385827 54.173228 4.283464 87.307087h-64.755905c2.771654-33.76378 4.283465-60.472441 4.283465-87.307087V222.740157c0-34.519685-1.385827-61.228346-4.283465-78.866141 24.566929 2.771654 39.433071 3.527559 62.614173 2.141732 11.968504-0.755906 14.110236 7.055118 3.527559 13.354331-4.283465 2.771654-5.669291 8.440945-5.669291 19.023622z m7.055118 380.472441v137.19685h85.165354V558.866142h-85.165354z m65.385827-114.519685c-18.393701-11.338583-33.007874-17.637795-56.944882-21.03937 65.385827-80.377953 101.291339-211.149606 109.732283-282.96063 18.393701 7.055118 45.732283 12.724409 69.669292 15.496063 10.582677 1.385827 14.110236 4.913386 4.283464 12.724409-4.283465 2.771654-11.968504 17.637795-40.062992 86.551181h60.472441c77.354331 0 119.685039-2.771654 132.283465-7.055118v62.488189c-16.251969-3.527559-54.80315-7.055118-132.283465-7.055118h-81.637795c-26.07874 59.84252-45.732283 102.173228-65.511811 140.850394z m162.519685 114.519685h-92.094488v137.19685h92.094488V558.866142z m13.480315-89.196851c-29.480315-40.062992-59.716535-73.19685-95.622047-102.677165l47.874015-31.622047c32.377953 31.622047 62.614173 62.614173 95.622048 98.519685l-47.874016 35.779527z m0 0" p-id="15087"></path></svg>