<?xml version="1.0" standalone="no"?><!DOCTYPE svg PUBLIC "-//W3C//DTD SVG 1.1//EN" "http://www.w3.org/Graphics/SVG/1.1/DTD/svg11.dtd"><svg t="1563177674128" class="icon" viewBox="0 0 1024 1024" version="1.1" xmlns="http://www.w3.org/2000/svg" p-id="4267" xmlns:xlink="http://www.w3.org/1999/xlink" width="200" height="200"><defs><style type="text/css"></style></defs><path d="M512.768 604.224s-416.032 277.12-220.736 314.912l-162.56-9.312s-78.112-134.208 34.016-194.528l228.96-125.824 120.32 14.752z" fill="#B2E2D7" p-id="4268"></path><path d="M607.232 465.536m-123.776 0a123.776 123.776 0 1 0 247.552 0 123.776 123.776 0 1 0-247.552 0Z" fill="#09B196" p-id="4269"></path><path d="M608.288 958.304H223.008a27.264 27.264 0 0 1-7.232-1.12c-68.128-4.48-124.224-60.384-129.472-130.816a24.896 24.896 0 0 1-0.736-8.48 28.256 28.256 0 0 1-0.096-2.112c0-4.192 0.48-8.224 1.024-12.256l0.416-3.328c4.48-36.064 20.736-67.296 46.016-90.048a130.944 130.944 0 0 1 37.888-25.6l168.416-90.72a25.344 25.344 0 0 1 3.008-1.344c20.672-7.712 43.456-20.064 47.808-25.984a24 24 0 0 1 38.624 28.512c-15.04 20.352-54.08 36.544-68.128 41.856L191.776 727.68c-10.112 4.48-18.304 10.112-26.176 17.664a94.4 94.4 0 0 0-30.816 58.688l-0.704 5.952c-0.256 1.92-0.608 3.808-0.608 5.792v0.832a28.8 28.8 0 0 1 0.416 2.176c2.624 49.728 40.608 88 88.544 90.848 1.312 0.064 2.72 0.32 4.16 0.672h381.696a24 24 0 0 1 0 48z" fill="" p-id="4270"></path><path d="M907.072 839.328H554.944a24 24 0 0 1 0-48h299.488l-84.672-97.472a24 24 0 0 1 36.256-31.456l119.168 137.216a24.032 24.032 0 0 1-18.112 39.712zM536.768 630.112c-160.96 0-291.904-130.944-291.904-291.904s130.944-291.904 291.904-291.904 291.904 130.944 291.904 291.904-130.944 291.904-291.904 291.904z m0-535.808c-134.496 0-243.904 109.408-243.904 243.904s109.408 243.904 243.904 243.904 243.904-109.408 243.904-243.904-109.408-243.904-243.904-243.904z" fill="" p-id="4271"></path></svg>