<?xml version="1.0" standalone="no"?><!DOCTYPE svg PUBLIC "-//W3C//DTD SVG 1.1//EN" "http://www.w3.org/Graphics/SVG/1.1/DTD/svg11.dtd"><svg t="1563181098439" class="icon" viewBox="0 0 1024 1024" version="1.1" xmlns="http://www.w3.org/2000/svg" p-id="16390" xmlns:xlink="http://www.w3.org/1999/xlink" width="200" height="200"><defs><style type="text/css"></style></defs><path d="M978.538264 964.366491c9.283623 11.350943 14.442264 20.634566 15.475925 28.884528 1.03366 8.259623-2.067321 15.485585-9.283623 22.701887-4.124981 5.158642-9.283623 7.225962-15.475924 7.225962-6.182642 0-13.408604-1.03366-19.600906-3.091321-7.216302-3.091321-13.408604-6.192302-19.591245-10.326943-6.182642-4.124981-11.350943-8.249962-16.509585-12.374944l-70.13434-62.937358a209.726792 209.726792 0 0 1-58.793057 24.759547c-20.634566 5.158642-42.293132 7.225962-62.918037 5.158642a160.768 160.768 0 0 1-60.860378-15.475925c-19.600906-9.283623-38.158491-21.668226-53.634415-38.177811-18.567245-18.567245-33.009509-39.201811-42.293132-62.937359-9.283623-23.735547-14.442264-47.461434-14.442264-72.220981 0-24.769208 5.158642-48.495094 14.442264-72.230641 9.273962-23.725887 23.725887-44.360453 42.293132-62.937359 17.533585-18.567245 38.158491-33.01917 61.884378-42.302792 23.725887-9.283623 46.418113-14.442264 71.168-14.442265 23.725887 0 47.451774 5.158642 71.17766 14.442265 23.725887 9.283623 44.350792 23.735547 62.918038 42.312452 15.475925 16.499925 28.884528 35.06717 37.13449 55.711397 9.273962 20.634566 14.442264 41.269132 15.466264 62.937358 2.067321 21.668226 0 42.302792-5.148981 63.971019-5.158642 21.668226-13.408604 41.269132-24.759547 58.812377l38.158491 38.168151c10.317283 10.317283 19.610566 19.610566 27.860528 28.884529 7.216302 6.201962 13.408604 12.394264 15.466264 15.485585z m-237.239547-61.903699c17.533585 0 33.009509-3.091321 48.485434-10.317283a108.688906 108.688906 0 0 0 40.225811-27.860528c11.341283-11.350943 20.624906-24.759547 26.817208-41.269132 6.182642-15.475925 10.317283-31.985509 10.317283-50.562415 0-17.533585-3.091321-34.04317-10.317283-49.519094-6.182642-15.485585-15.475925-28.894189-26.817208-40.245132-11.350943-11.350943-24.759547-20.634566-40.225811-27.860529-15.475925-6.182642-31.975849-10.317283-48.485434-10.317283-17.533585 0-33.009509 3.091321-48.475774 10.317283a108.688906 108.688906 0 0 0-40.225811 27.860529c-11.350943 11.350943-20.634566 24.759547-26.817207 40.245132-6.192302 15.475925-10.317283 31.975849-10.317283 49.519094 0 17.543245 3.091321 35.086491 10.317283 50.562415 6.182642 15.475925 15.466264 28.884528 26.817207 41.269132 11.341283 11.350943 24.749887 20.634566 40.225811 27.860528 14.442264 7.216302 30.942189 10.317283 48.475774 10.317283z" p-id="16391"></path><path d="M549.916981 906.471849H100.777057V741.202113c0-127.207849 103.037585-230.274415 230.206792-230.274415h23.213887l101.182792 321.26551L556.55366 510.937358h23.213887c44.563321 0 86.093283 12.558491 120.928604 34.265359-15.582189 2.985057-30.932528 7.660679-46.640302 13.81434-28.913509 11.341283-54.040151 28.981132-75.408906 51.654037-22.624604 22.672906-40.216151 47.857509-51.528452 76.828981-11.312302 28.981132-17.591547 57.942943-17.591548 88.170265 0 30.236981 6.279245 59.198792 17.581887 88.170264a206.751396 206.751396 0 0 0 22.798491 42.640905zM253.005283 288.091774c0-109.229887 90.604679-197.767245 202.365585-197.767246s202.355925 88.537358 202.355924 197.767246c0 70.656-38.564226 135.950491-101.182792 171.27849a206.442264 206.442264 0 0 1-202.355925 0c-62.608906-35.328-101.182792-100.622491-101.182792-171.27849z" p-id="16392"></path><path d="M411.918491 754.330566c6.569057 3.06234 12.828981 6.105358 18.760452 9.119396l-7.94083 25.213585-10.819622-34.332981z m-343.774189 61.826415H28.981132V650.645736c0-127.391396 103.037585-230.593208 230.206793-230.593208h23.204226l14.896302 47.35517c-126.676528 0.579623-229.144151 103.41434-229.144151 230.264755v118.484528z m489.790792-718.751396c-35.84-31.463849-83.224151-50.620377-135.196981-50.620377-111.760906 0-202.355925 88.556679-202.355924 197.776905a194.270189 194.270189 0 0 0 28.556075 101.298717c-42.563623-37.153811-67.651623-90.730264-67.651622-147.803773C181.286642 88.672604 271.88166 0 383.632906 0c74.211019 0 139.090113 39.105208 174.302188 97.405585z" p-id="16393"></path></svg>