<?xml version="1.0" standalone="no"?><!DOCTYPE svg PUBLIC "-//W3C//DTD SVG 1.1//EN" "http://www.w3.org/Graphics/SVG/1.1/DTD/svg11.dtd"><svg t="1567043149531" class="icon" viewBox="0 0 1024 1024" version="1.1" xmlns="http://www.w3.org/2000/svg" p-id="7380" xmlns:xlink="http://www.w3.org/1999/xlink" width="200" height="200"><defs><style type="text/css"></style></defs><path d="M390.8 346.1c0 15.1 12.3 27.4 27.4 27.4h18.5v118.7c0 15.1 12.3 27.4 27.5 27.4h109.6v381.3H216.2V426.8c0-14.8-11.8-27-26.6-27.4-15.5-0.5-28.3 11.9-28.3 27.4v479.7c0 27.2 22.1 49.3 49.3 49.3h368.8c27.2 0 49.3-22.1 49.3-49.3V480.8L476.2 318.6h-58c-15.2 0-27.5 12.3-27.4 27.5z m100.8 69.5l46.9 49.2h-46.9v-49.2z" p-id="7381"></path><path d="M710.1 68.2H444.6c-27.2 0-49.3 22.1-49.3 49.3v116c0 15.2 12.3 27.4 27.4 27.4 15.2 0 27.4-12.3 27.4-27.4v-110.4h220.5V241.8c0 15.1 12.3 27.4 27.5 27.4h109.7l1.6 371.9c0.1 14.6 11.9 26.5 26.5 26.5 14.8 0.1 26.8-11.9 26.8-26.7V230.4L710.1 68.2z m15.5 146.2v-49.1l46.9 49.1h-46.9zM265.3 413c4.5 4.4 10.4 6.9 16.7 6.9 6.3 0 12.2-2.4 16.6-6.9l75.4-75.4c4.5-4.4 6.9-10.4 6.9-16.7 0-6.3-2.5-12.2-6.9-16.6-4.4-4.5-10.4-6.9-16.7-6.9-6.3 0-12.2 2.5-16.6 6.9l-35.2 35.2v-46-9.4c0-48.3 15.4-66.3 26.3-73 6.5-4 10.5-11 10.5-18.7 0-17.6-19.8-28-34.2-17.9-14.4 10.1-29.4 23.1-36.3 37-11.1 22-13.4 48.7-13.4 81.9v46l-35.2-35.2c-4.4-4.4-10.4-6.9-16.7-6.9s-12.2 2.4-16.7 6.9c-4.5 4.4-6.9 10.4-6.9 16.7s2.5 12.2 6.9 16.6l75.5 75.5zM766.3 657.1c-4.5-4.4-10.4-6.9-16.7-6.9s-12.2 2.4-16.7 6.9l-75.4 75.4c-4.4 4.4-6.9 10.4-6.9 16.7s2.4 12.2 6.9 16.7c4.4 4.4 10.4 6.9 16.7 6.9s12.2-2.4 16.7-6.9l35.2-35.2v55.4c0 45.5-16.9 64.7-27.8 72.3-5.7 4-8.9 10.5-8.9 17.4 0 17.5 19.8 27.6 33.9 17.3 15.5-11.3 31.5-24.7 36.5-34.5 11.1-22 13.4-48.7 13.4-81.9v-46l35.2 35.2c4.4 4.5 10.4 6.9 16.7 6.9 5.9 0 11.4-2.2 15.8-6 4-3.6 6.6-8.4 7.5-13.7 1.2-7.7-1.3-15.2-6.6-20.6l-75.5-75.4z" p-id="7382"></path></svg>