<?xml version="1.0" standalone="no"?><!DOCTYPE svg PUBLIC "-//W3C//DTD SVG 1.1//EN" "http://www.w3.org/Graphics/SVG/1.1/DTD/svg11.dtd"><svg class="icon" width="200px" height="200.00px" viewBox="0 0 1024 1024" version="1.1" xmlns="http://www.w3.org/2000/svg"><path fill="#333333" d="M374.535 201.31l137.454-20.395 137.454 20.395c19.488 2.892 37.63-10.562 40.522-30.051 0.257-1.733 0.386-3.483 0.386-5.236v-37.88c0-19.701-15.971-35.672-35.672-35.672-3.436 0-6.854 0.496-10.148 1.474L511.99 133.277 379.448 93.946a35.655 35.655 0 0 0-10.149-1.474c-19.701 0-35.672 15.971-35.672 35.672v37.88c0 1.752 0.129 3.502 0.386 5.236 2.892 19.488 21.034 32.942 40.522 30.05zM797.367 114.642h-48.121l-2.294 12.236c-35.297 188.248-73.966 331.178-114.935 424.82-20.024 45.772-40.837 80.349-61.856 102.771-19.242 20.524-38.813 30.931-58.172 30.931s-38.931-10.407-58.173-30.932c-21.02-22.421-41.831-56.998-61.856-102.77-40.969-93.642-79.638-236.572-114.935-424.82l-2.294-12.236H226.61c-86.95 0-157.689 70.739-157.689 157.689v499.413c0 86.95 70.739 157.689 157.689 157.689h570.757c86.95 0 157.689-70.739 157.689-157.689V272.332c0.001-86.951-70.738-157.69-157.689-157.69z m127.69 657.102c0 70.408-57.281 127.689-127.689 127.689H226.61c-70.408 0-127.689-57.281-127.689-127.689V272.332c0-70.408 57.281-127.689 127.689-127.689h23.24c35.098 184.46 73.648 325.421 114.625 419.08 21.397 48.91 44.093 86.344 67.455 111.264 25.141 26.816 52.076 40.413 80.059 40.413s54.918-13.597 80.058-40.413c23.362-24.92 46.058-62.354 67.456-111.264 40.976-93.659 79.526-234.62 114.624-419.08h23.24c70.408 0 127.689 57.281 127.689 127.689v499.412zM511.989 308.004m-35.672 0a35.672 35.672 0 1 0 71.344 0 35.672 35.672 0 1 0-71.344 0ZM511.989 415.021m-35.672 0a35.672 35.672 0 1 0 71.344 0 35.672 35.672 0 1 0-71.344 0ZM511.989 522.038m-35.672 0a35.672 35.672 0 1 0 71.344 0 35.672 35.672 0 1 0-71.344 0Z" /></svg>