<?xml version="1.0" standalone="no"?><!DOCTYPE svg PUBLIC "-//W3C//DTD SVG 1.1//EN" "http://www.w3.org/Graphics/SVG/1.1/DTD/svg11.dtd"><svg t="1559297231694" class="icon" style="" viewBox="0 0 1511 1024" version="1.1" xmlns="http://www.w3.org/2000/svg" p-id="1285" xmlns:xlink="http://www.w3.org/1999/xlink" width="295.1171875" height="200"><defs><style type="text/css"></style></defs><path d="M572.46525 314.660571l-65.828572 98.596572-65.828571-98.596572H311.10144l129.706667 197.290667-129.706667 197.388191h129.706667l65.828571-98.791619 65.828572 98.694095h129.219047l-24.868571-37.985524-51.687619-75.971048c0.487619-0.585143-52.662857-83.334095-52.662857-83.334095l129.219047-197.38819h-129.219047z m366.201904 360.350477v166.326857a108.251429 108.251429 0 0 1-107.763809 107.666285H182.370011a107.812571 107.812571 0 0 1-76.55619-32.085333 109.372952 109.372952 0 0 1-31.695238-77.433905V184.417524a109.031619 109.031619 0 0 1 108.251428-109.372953h648.533334c59.001905 0 106.788571-0.682667 107.763809 58.904381v47.981715c9.264762-4.047238 18.529524-7.801905 31.207619-12.434286 14.140952-5.461333 28.769524-9.99619 42.910477-14.628571v-28.672A126.780952 126.780952 0 0 0 886.491916 0H126.78144A127.609905 127.609905 0 0 0 0.000488 127.951238v768.097524A127.609905 127.609905 0 0 0 126.78144 1024h759.710476a127.024762 127.024762 0 0 0 126.293334-126.098286v-244.199619a458.020571 458.020571 0 0 0-57.539048 14.628572c-5.36381 1.852952-10.727619 4.632381-16.579048 6.777904z m-190.171428-116.297143c18.041905-62.366476 36.571429-124.342857 55.100952-186.465524 17.554286-59.001905 35.59619-117.662476 53.150476-177.39581l59.977143 79.238096a33.353143 33.353143 0 0 0 45.348572 6.534095c9.264762-5.217524 18.529524-10.727619 27.306666-16.62781 4.388571-3.120762 9.264762-6.290286 14.140953-9.362285l5.851428-3.169524 1.462857-0.828953a432.37181 432.37181 0 0 1 79.969524-30.866285 344.259048 344.259048 0 0 1 39.009524-9.752381 339.090286 339.090286 0 0 1 37.546667-4.876191c7.314286-0.341333 14.628571-0.78019 21.455238-0.78019a15.993905 15.993905 0 0 1 2.925714 0h1.462857c2.925714 0 6.339048 0 9.264762 0.243809 12.678095 0.633905 24.868571 1.852952 37.546667 3.657143a340.260571 340.260571 0 0 1 71.192381 17.456762 472.990476 472.990476 0 0 1 71.192381 32.085333l1.950476 1.26781c1.462857 0.828952 2.925714 1.560381 4.388571 2.535619 2.925714 1.560381 5.36381 3.218286 8.289524 4.876191q24.868571 15.60381 48.274286 33.353142a571.343238 571.343238 0 0 1 61.927619 54.125715l4.388571 4.87619a160.426667 160.426667 0 0 0-7.801905-2.486857 665.84381 665.84381 0 0 0-151.649523-31.256381 407.356952 407.356952 0 0 0-156.525715 16.481524 289.353143 289.353143 0 0 0-73.630476 36.717714 348.257524 348.257524 0 0 0-58.026666 51.687619 31.256381 31.256381 0 0 0-0.48762 39.009524l68.754286 86.113524z m0 0" p-id="1286"></path></svg>