<?xml version="1.0" standalone="no"?><!DOCTYPE svg PUBLIC "-//W3C//DTD SVG 1.1//EN" "http://www.w3.org/Graphics/SVG/1.1/DTD/svg11.dtd"><svg t="1559297108682" class="icon" style="" viewBox="0 0 1024 1024" version="1.1" xmlns="http://www.w3.org/2000/svg" p-id="10873" xmlns:xlink="http://www.w3.org/1999/xlink" width="200" height="200"><defs><style type="text/css"></style></defs><path d="M512 0.725333A509.781333 509.781333 0 0 0 0.725333 512 509.781333 509.781333 0 0 0 512 1023.274667 509.781333 509.781333 0 0 0 1023.274667 512 509.781333 509.781333 0 0 0 512 0.725333z m0 976.085334C256.384 976.810667 47.189333 767.573333 47.189333 512 47.189333 256.384 256.426667 47.189333 512 47.189333c255.616 0 464.810667 209.194667 464.810667 464.810667 0 255.616-209.194667 464.810667-464.810667 464.810667z" p-id="10874"></path><path d="M735.104 258.688l-309.077333 155.733333c-4.693333 2.304-9.301333 6.954667-9.301334 9.258667l-155.733333 309.077333c-4.608 9.301333-2.304 18.602667 4.693333 27.904a21.077333 21.077333 0 0 0 16.213334 6.954667c4.693333 0 6.997333 0 9.344-2.304l309.077333-155.733333c4.650667-2.304 9.301333-6.954667 9.301333-9.258667l155.690667-309.077333c4.650667-9.301333 2.304-18.602667-4.650667-27.904-6.954667-6.954667-18.602667-9.301333-25.6-4.650667z m-295.168 213.802667l109.226667 109.226666-218.453334 109.226667 109.226667-218.453333z m144.128 79.018666l-109.226667-109.226666 218.453334-109.226667-109.226667 218.453333z" p-id="10875"></path></svg>