<?xml version="1.0" standalone="no"?><!DOCTYPE svg PUBLIC "-//W3C//DTD SVG 1.1//EN" "http://www.w3.org/Graphics/SVG/1.1/DTD/svg11.dtd"><svg t="1559351005322" class="icon" style="" viewBox="0 0 1024 1024" version="1.1" xmlns="http://www.w3.org/2000/svg" p-id="7815" xmlns:xlink="http://www.w3.org/1999/xlink" width="200" height="200"><defs><style type="text/css"></style></defs><path d="M890.828978 32.92283 133.205814 32.92283c-55.287187 0-100.261495 44.975331-100.261495 100.262518l0 757.638513c0 55.270814 44.974307 100.247168 100.261495 100.254332l757.623163 0c55.277978 0 100.255355-44.975331 100.255355-100.254332L991.084333 133.185348C991.08331 77.897138 946.106955 32.92283 890.828978 32.92283zM928.355663 890.822838c0 20.686135-16.833387 37.512359-37.526685 37.512359L133.205814 928.335197c-20.693298 0-37.528732-16.827247-37.528732-37.512359L95.677083 133.185348c0-20.686135 16.835434-37.512359 37.528732-37.512359l757.623163 0c20.693298 0 37.526685 16.827247 37.526685 37.512359L928.355663 890.822838zM821.982984 742.901881 202.082508 742.901881c-17.301038 0-31.378661 14.093996-31.378661 31.42471 0 17.292851 14.077623 31.356149 31.378661 31.356149l619.899452 0c17.292851 0 31.356149-14.062274 31.356149-31.356149C853.338109 756.995877 839.275835 742.901881 821.982984 742.901881zM852.019067 241.814418c-0.170892-0.916882-0.537236-2.803859-1.421372-4.77577-0.907673-2.096754-2.042519-3.587712-2.849908-4.674463-1.980097-3.12927-2.928702-4.293793-3.230578-4.309142l-1.375324-1.475608c-1.552356-1.444908-2.990101-2.267647-4.300956-2.966565-1.226944-0.830925-3.090385-2.088568-5.705955-3.121084-2.245134-0.861624-4.25593-1.164522-5.841032-1.382487-0.853437-0.233314-2.841721-0.783853-5.340635-0.783853L635.924427 218.325447c-17.292851 0-31.356149 14.077623-31.356149 31.386848 0 17.308201 14.062274 31.386848 31.356149 31.386848l115.597785 0L540.964682 515.051499 355.022783 342.821903 178.732707 538.680663c-5.591345 6.227842-8.425903 14.264888-7.982812 22.635533 0.434905 8.370645 4.098341 16.050558 10.295484 21.61018 5.78475 5.241374 13.255908 8.123005 21.044292 8.123005 8.891508 0 17.385972-3.797489 23.294542-10.413164l133.661186-148.529825L545.019021 604.326778l245.554602-272.856411 0 124.861776c0 17.316387 14.084787 31.395034 31.408337 31.395034 17.292851 0 31.356149-14.078647 31.356149-31.395034l-0.102331-207.381188C853.190753 246.25659 852.608491 244.089228 852.019067 241.814418z" p-id="7816"></path></svg>