<?xml version="1.0" standalone="no"?><!DOCTYPE svg PUBLIC "-//W3C//DTD SVG 1.1//EN" "http://www.w3.org/Graphics/SVG/1.1/DTD/svg11.dtd"><svg t="1559350696809" class="icon" style="" viewBox="0 0 1024 1024" version="1.1" xmlns="http://www.w3.org/2000/svg" p-id="3510" xmlns:xlink="http://www.w3.org/1999/xlink" width="200" height="200"><defs><style type="text/css"></style></defs><path d="M1023.168 753.344l-32-39.68L880.128 576h0.384V139.52c0-76.608-60.608-139.264-135.808-139.264H0.832v860.096c0 76.608 60.544 139.136 135.68 139.136h518.016v24.32h219.968v-270.464h148.672zM136.512 950.656c-47.744 0-86.72-40.256-86.72-90.304V48.832h694.912c47.744 0 86.848 40.512 86.848 90.624v376.32l-35.2-43.648-18.176-22.592-19.136 21.76-214.592 242.816a24.32 24.32 0 0 0 2.176 34.368c10.112 8.832 25.6 7.872 34.432-2.24l195.392-221.184 144.576 179.328h-95.616v270.464h-122.176v-146.112a24.448 24.448 0 0 0-48.96 0v121.92h-517.76z" p-id="3511"></path><path d="M756.032 365.696a24.32 24.32 0 0 0-24.448-24.32H172.8a24.448 24.448 0 0 0-24.448 24.32c0 13.44 10.88 24.32 24.448 24.32h558.72a24.448 24.448 0 0 0 24.448-24.32zM175.616 243.84h558.72a24.448 24.448 0 0 0 24.448-24.32 24.448 24.448 0 0 0-24.512-24.384H175.616a24.448 24.448 0 0 0-24.448 24.32c0 13.44 10.88 24.32 24.448 24.32z" p-id="3512"></path></svg>