<?xml version="1.0" standalone="no"?><!DOCTYPE svg PUBLIC "-//W3C//DTD SVG 1.1//EN" "http://www.w3.org/Graphics/SVG/1.1/DTD/svg11.dtd"><svg t="1559296740844" class="icon" style="" viewBox="0 0 1024 1024" version="1.1" xmlns="http://www.w3.org/2000/svg" p-id="6204" xmlns:xlink="http://www.w3.org/1999/xlink" width="200" height="200"><defs><style type="text/css"></style></defs><path d="M803.985845 421.647059a97.28 97.28 0 0 0-31.924706 5.421176 17.618824 17.618824 0 0 0-3.312941-1.355294 103.604706 103.604706 0 0 0-88.696471-49.995294 109.176471 109.176471 0 0 0-36.141176 6.174118 103.905882 103.905882 0 0 0-90.352942-52.10353A109.327059 109.327059 0 0 0 534.583492 331.294118v-58.729412a105.411765 105.411765 0 0 0-105.411765-108.724706 108.724706 108.724706 0 0 0-108.574118 108.724706v287.021176L303.129374 542.117647a105.411765 105.411765 0 0 0-75.294118-30.117647 110.531765 110.531765 0 0 0-77.402352 30.117647C109.021139 583.830588 95.468198 655.058824 143.05408 703.096471l243.802353 243.802353a109.778824 109.778824 0 0 0 18.974118 15.058823c45.176471 37.345882 100.141176 62.042353 215.190588 62.042353C888.616433 1024 911.05408 866.032941 911.05408 704.150588V529.618824A105.411765 105.411765 0 0 0 803.985845 421.647059z m66.56 296.658823c0 157.665882-18.371765 278.287059-248.771765 278.287059-104.357647 0-150.588235-20.48-190.494118-53.458823l-2.108235-1.656471a65.807059 65.807059 0 0 1-12.498823-9.637647L171.364668 686.832941c-32.075294-32.225882-15.058824-78.004706 6.475294-99.990588a68.969412 68.969412 0 0 1 47.736471-17.618824 64.451765 64.451765 0 0 1 46.230588 18.070589l90.352941 90.352941V286.117647a66.258824 66.258824 0 0 1 66.409412-66.108235A64.150588 64.150588 0 0 1 491.967021 286.117647v253.138824a21.383529 21.383529 0 1 0 42.767059 0V387.915294a65.204706 65.204706 0 0 1 19.425882-3.312941 62.795294 62.795294 0 0 1 60.235294 45.176471l2.710589 7.981176v140.498824a21.383529 21.383529 0 1 0 42.767059 0v-143.661177a67.764706 67.764706 0 0 1 21.383529-3.915294 62.795294 62.795294 0 0 1 60.235294 45.176471l1.505882 4.21647v140.8a21.383529 21.383529 0 1 0 42.767059 0v-139.89647a62.795294 62.795294 0 0 1 85.232941 62.042352V718.305882zM243.647021 473.750588a20.028235 20.028235 0 0 0 12.348235 4.216471 20.48 20.48 0 0 0 16.564706-8.58353 21.383529 21.383529 0 0 0-4.21647-30.117647 220.461176 220.461176 0 0 1-87.04-176.489411A218.352941 218.352941 0 0 1 396.945845 42.164706a218.352941 218.352941 0 0 1 215.792941 220.611765 227.538824 227.538824 0 0 1-4.216471 43.971764A21.082353 21.082353 0 0 0 624.936433 331.294118a20.781176 20.781176 0 0 0 24.395294-16.564706 269.703529 269.703529 0 0 0 5.12-52.254118A260.216471 260.216471 0 0 0 396.945845 0 260.216471 260.216471 0 0 0 140.042315 262.776471a266.24 266.24 0 0 0 103.755294 210.823529z" p-id="6205"></path></svg>