<?xml version="1.0" standalone="no"?><!DOCTYPE svg PUBLIC "-//W3C//DTD SVG 1.1//EN" "http://www.w3.org/Graphics/SVG/1.1/DTD/svg11.dtd"><svg t="1559297217348" class="icon" style="" viewBox="0 0 1024 1024" version="1.1" xmlns="http://www.w3.org/2000/svg" p-id="1060" xmlns:xlink="http://www.w3.org/1999/xlink" width="200" height="200"><defs><style type="text/css"></style></defs><path d="M 838.087 654.905 c -9.10222 0 -17.9769 -4.32355 -23.4382 -12.5155 c -8.76089 -12.9707 -5.34755 -30.4925 7.62311 -39.2533 c 68.3805 -46.1938 142.109 -150.414 142.109 -238.023 c 0 -140.402 -114.233 -254.635 -254.521 -254.635 c -67.0151 0 -130.275 26.0551 -178.403 73.1591 c -11.0365 10.8089 -28.672 10.8089 -39.7085 0 c -48.0142 -47.2178 -111.275 -73.1591 -178.29 -73.1591 c -140.402 0 -254.635 114.233 -254.635 254.635 c 0 97.0525 53.9307 184.32 140.743 227.783 c 13.9947 6.94045 19.5698 24.0071 12.6293 38.0018 c -7.05422 13.9947 -24.0071 19.5698 -38.0018 12.6293 C 68.153 590.393 2.275 483.784 2.275 365.113 c 0 -171.577 139.605 -311.182 311.182 -311.182 c 73.0453 0 142.45 25.2587 198.087 71.4525 c 55.7511 -46.3075 125.155 -71.4525 198.201 -71.4525 c 171.577 0 311.182 139.605 311.182 311.182 c 0 107.634 -84.992 229.49 -167.026 284.899 c -4.66489 3.18578 -10.1262 4.89245 -15.8151 4.89245 Z" p-id="1061"></path><path d="M 792.69 751.389 c -23.3245 0 -45.1698 -9.10222 -61.6675 -25.6 l -107.975 -107.861 c -11.0365 -11.0365 -11.0365 -29.0133 0 -40.0498 c 11.0365 -11.0365 29.0133 -11.0365 40.0498 0 l 107.975 107.861 c 11.6053 11.6053 31.744 11.6053 43.3493 0 c 11.9467 -11.9467 11.9467 -31.4027 0 -43.3493 L 504.491 341.333 c -11.264 -10.9227 -11.4915 -28.7858 -0.568889 -40.0498 c 10.9227 -11.1502 28.8995 -11.4915 40.0498 -0.568889 l 310.158 301.397 c 34.2471 34.2471 34.2471 89.6569 0.227555 123.677 c -16.4978 16.6115 -38.3431 25.6 -61.6675 25.6 Z" p-id="1062"></path><path d="M 719.758 846.051 c -22.3005 0 -44.6009 -8.53333 -61.6675 -25.4862 L 603.022 765.269 c -11.0365 -11.0365 -11.0365 -29.0133 0 -40.0498 c 11.0365 -11.0365 29.0133 -11.0365 40.0498 0 l 55.1822 55.1822 c 11.9467 11.9467 31.4027 11.9467 43.3493 0 c 5.80267 -5.80267 8.98845 -13.5395 8.98845 -21.6178 c 0 -8.192 -3.18578 -15.9289 -8.98845 -21.6178 L 595.171 590.734 c -11.0365 -11.0365 -11.0365 -29.0133 0 -40.0498 c 11.0365 -11.0365 29.0133 -11.0365 40.0498 0 l 146.318 146.432 c 16.4978 16.4978 25.6 38.3431 25.6 61.6675 s -9.10222 45.1698 -25.6 61.6675 c -17.0667 17.0667 -39.3671 25.6 -61.7813 25.6 Z M 235.975 719.417 c -23.2107 0 -45.1698 -9.10222 -61.6675 -25.4862 c -34.0195 -34.0195 -34.0195 -89.3155 0 -123.335 l 92.9565 -92.9565 c 33.1093 -32.9955 90.4533 -32.8818 123.335 0 c 16.4978 16.4978 25.6 38.3431 25.6 61.6675 s -9.10222 45.1698 -25.6 61.6675 l -92.9565 92.9565 c -16.4978 16.4978 -38.3431 25.4862 -61.6675 25.4862 Z M 328.931 508.587 c -8.192 0 -15.8151 3.18578 -21.6178 8.98845 l -92.9565 92.9565 c -11.9467 11.9467 -11.9467 31.4027 0 43.3493 c 11.6053 11.6053 31.744 11.6053 43.3493 0 l 92.9565 -92.9565 c 5.80267 -5.80267 8.98845 -13.5395 8.98845 -21.6178 s -3.18578 -15.8151 -8.98845 -21.6178 c -5.91645 -5.91645 -13.5395 -9.10222 -21.7315 -9.10222 Z" p-id="1063"></path><path d="M 319.261 802.816 c -23.3245 0 -45.1698 -9.10222 -61.6675 -25.4862 c -34.0195 -34.0195 -34.0195 -89.3155 0 -123.335 l 92.9565 -92.9565 c 33.1093 -32.9955 90.4533 -32.8818 123.449 0 c 34.0195 34.0195 34.0195 89.3155 0 123.335 l -93.0702 92.9565 c -16.384 16.384 -38.3431 25.4862 -61.6675 25.4862 Z m 92.9565 -210.83 c -8.192 0 -15.8151 3.18578 -21.6178 8.98845 l -92.9565 92.9565 c -11.9467 11.9467 -11.9467 31.4027 0 43.3493 c 11.6053 11.6053 31.744 11.6053 43.3493 0 l 93.0702 -92.9565 c 11.9467 -11.9467 11.9467 -31.4027 0 -43.3493 c -5.91645 -5.80267 -13.5395 -8.98845 -21.8453 -8.98845 Z" p-id="1064"></path><path d="M 402.659 886.215 c -23.2107 0 -45.1698 -9.10222 -61.6675 -25.4862 c -34.0195 -34.0195 -34.0195 -89.4293 0 -123.449 l 93.0702 -92.9565 c 32.8818 -32.8818 90.2258 -32.9955 123.335 0 c 34.0195 34.0195 34.0195 89.3155 0 123.335 l -93.0702 92.9565 c -16.4978 16.4978 -38.3431 25.6 -61.6675 25.6 Z m 92.9565 -210.944 c -8.192 0 -15.8151 3.18578 -21.6178 8.98845 l -93.0702 92.9565 c -11.9467 11.9467 -11.9467 31.4027 0 43.3493 c 11.6053 11.6053 31.744 11.6053 43.3493 0 l 93.0702 -92.9565 c 11.9467 -11.9467 11.9467 -31.4027 0 -43.3493 c -5.80267 -5.68889 -13.5395 -8.98845 -21.7315 -8.98845 Z" p-id="1065"></path><path d="M 485.944 969.501 c -23.3245 0 -45.1698 -9.10222 -61.6675 -25.4862 c -34.0195 -34.0195 -34.0195 -89.3155 0 -123.335 l 93.0702 -92.9565 c 32.8818 -32.8818 90.3395 -32.9955 123.335 0 c 34.0195 34.0195 34.0195 89.4293 0 123.335 l -92.9565 92.9565 c -16.4978 16.4978 -38.4569 25.4862 -61.7813 25.4862 Z m 93.0702 -210.83 c -8.192 0 -15.8151 3.18578 -21.6178 8.98845 l -93.0702 92.9565 c -11.9467 11.9467 -11.9467 31.4027 0 43.3493 c 11.6053 11.6053 31.744 11.4915 43.3493 0 l 92.9565 -92.9565 c 11.9467 -11.9467 11.9467 -31.4027 0 -43.3493 c -5.80267 -5.80267 -13.4258 -8.98845 -21.6178 -8.98845 Z M 379.677 455.339 c -23.3245 0 -45.1698 -9.10222 -61.6675 -25.4862 c -34.0195 -34.0195 -34.0195 -89.3155 0 -123.335 l 174.307 -163.499 c 11.3778 -10.6951 29.2409 -10.1262 39.936 1.25155 c 10.6951 11.3778 10.1262 29.3547 -1.25155 40.0498 L 357.262 347.022 c -11.264 11.264 -11.264 30.72 0.682667 42.6667 c 11.6053 11.6053 31.744 11.6053 43.3493 0 l 104.562 -90.112 c 11.8329 -10.1262 29.696 -8.87467 39.936 2.95822 c 10.1262 11.8329 8.87467 29.696 -2.95822 39.936 l -103.083 88.7467 c -14.9049 15.0187 -36.7502 24.1209 -60.0747 24.1209 Z" p-id="1066"></path></svg>