<?xml version="1.0" standalone="no"?><!DOCTYPE svg PUBLIC "-//W3C//DTD SVG 1.1//EN" "http://www.w3.org/Graphics/SVG/1.1/DTD/svg11.dtd"><svg t="1559296618247" class="icon" style="" viewBox="0 0 1024 1024" version="1.1" xmlns="http://www.w3.org/2000/svg" p-id="5384" xmlns:xlink="http://www.w3.org/1999/xlink" width="200" height="200"><defs><style type="text/css"></style></defs><path d="M160.236448 994.829634l-136.152936-0.00307c-4.101411-0.001023-7.340175-0.001023-11.281951-2.730181-3.654226-2.529613-6.03239-6.51846-6.519484-10.936073-7.797593-70.607104 24.854061-132.414799 94.423533-178.743964 68.308759-45.488007 148.044778-61.20599 170.855296-64.937988 48.250934-7.898901 67.651796-52.354392 73.753771-71.101361 9.728572-29.889751 6.490831-55.145971 0.534166-61.176314-46.667879-47.248094-57.045227-91.338265-62.032822-112.525819-0.532119-2.25946-1.14201-4.853541-1.675152-6.836709-34.299177-15.246239-51.771107-55.056943-51.319829-88.104617 0.325411-23.845081 9.599635-42.945091 25.427112-53.570079-16.781198-71.956845-20.282952-133.948735-10.395768-184.40387 9.348925-47.706535 30.509874-85.361133 62.897515-111.915929C350.449627 13.654998 401.26292 5.759167 436.546517 5.15644c40.072671-0.694825 82.780355 7.800663 114.258277 22.696931 19.276019 9.122775 32.16763 19.586081 38.127366 30.801517 39.095413 3.789303 69.02712 19.329231 89.074711 46.283116 22.757307 30.594809 32.081673 75.650981 27.715225 133.917012-3.142573 41.937135-12.674671 82.44778-19.182898 108.173698 14.775518 14.588253 22.059412 34.30327 20.667715 56.540737-2.083451 33.293267-24.224728 70.448492-52.473095 89.190345C636.347053 552.022529 614.506629 579.048045 597.379553 596.012416c-6.02011 5.963829-15.739473 5.92085-21.707394-0.104377-5.965875-6.022157-5.918803-15.741519 0.104377-21.707394 15.057951-14.915711 34.490535-39.287795 51.238988-95.825462 1.1328-3.826142 3.711532-7.060813 7.188726-9.017374 21.790282-12.261255 40.793078-42.635029 42.361807-67.707055 0.980327-15.682167-4.53427-28.087709-16.393365-36.871769-5.018294-3.717671-7.283894-10.105149-5.730515-16.153912 11.695367-45.520753 42.761919-166.438707-1.070378-225.366817-16.297175-21.912056-41.355897-33.253358-76.605725-34.673707-8.133238-0.327458-14.57802-6.942109-14.729469-15.046694-1.590218-5.302773-19.840884-19.549242-55.704696-29.186739-39.098483-10.507308-82.064041-11.334139-117.878734-2.266623-46.738487 11.83249-80.071663 39.014572-99.07446 80.792071-24.355711 53.54552-24.50716 129.532145-0.448208 225.848795 1.954515 7.824199-2.478448 15.82543-10.147104 18.317181-15.268752 4.963035-17.161868 23.409153-17.267269 31.109532-0.320295 23.479761 13.07683 52.646034 36.050054 60.814064 10.752902 3.825119 13.244652 14.413268 16.130376 26.673499 4.678556 19.877723 13.387915 56.878428 53.991682 97.986685 19.141966 19.380396 17.216103 60.298318 6.816243 92.251054-7.254218 22.286586-18.904559 42.218544-33.692357 57.638745-17.913998 18.680455-39.545668 30.205952-64.294328 34.257222-43.846624 7.176446-108.588137 26.75741-158.798702 60.193941-55.565527 37.002752-83.043345 82.752726-81.84096 136.160099 113.527636 0.00307 865.10306-0.002047 873.28951-0.002047 8.477069 0 15.349593 6.872524 15.349593 15.349593s-6.872524 15.349593-15.349593 15.349593L160.236448 994.829634z" p-id="5385"></path><path d="M895.516744 884.795565c-1.74576 0-3.508917-0.298805-5.214768-0.915859-6.080485-2.197038-10.131755-7.969509-10.131755-14.434757l0-71.614038L655.718239 797.830911c-8.477069 0-15.349593-6.872524-15.349593-15.349593l0-86.963631c0-8.477069 6.872524-15.349593 15.349593-15.349593l224.451982 0 0-71.611991c0-6.451946 4.033873-12.215206 10.096962-14.423501 6.062066-2.203178 12.858866-0.388856 17.007349 4.551666l108.998483 129.802298c4.774747 5.687536 4.795213 13.975293 0.048095 19.684318L907.322627 879.258455C904.348899 882.83491 899.991662 884.795565 895.516744 884.795565zM671.067832 767.130701l224.451982 0c8.477069 0 15.349593 6.872524 15.349593 15.349593l0 44.4954 73.646324-88.571245L910.869407 650.703015l0 44.813648c0 8.477069-6.872524 15.349593-15.349593 15.349593L671.067832 710.866257 671.067832 767.130701z" p-id="5386"></path></svg>