<?xml version="1.0" standalone="no"?><!DOCTYPE svg PUBLIC "-//W3C//DTD SVG 1.1//EN" "http://www.w3.org/Graphics/SVG/1.1/DTD/svg11.dtd"><svg t="1559297223742" class="icon" style="" viewBox="0 0 1024 1024" version="1.1" xmlns="http://www.w3.org/2000/svg" p-id="1175" xmlns:xlink="http://www.w3.org/1999/xlink" width="200" height="200"><defs><style type="text/css"></style></defs><path d="M967.111111 56.888889H56.888889a73.500444 73.500444 0 0 0-56.888889 56.888889v625.777778c0 22.755556 34.133333 0 56.888889 0h910.222222c22.755556 0 56.888889 22.755556 56.888889 0V113.777778a73.500444 73.500444 0 0 0-56.888889-56.888889z m0 625.777778H56.888889V113.777778h910.222222v568.888889z m-170.666667 227.555555h-227.555555v-113.777778H455.111111v113.777778H227.555556a53.589333 53.589333 0 0 0-43.690667 51.2L170.666667 967.111111h682.666666l-13.198222-5.688889A53.589333 53.589333 0 0 0 796.444444 910.222222zM259.185778 545.336889a62.577778 62.577778 0 0 0 29.809778-73.500445l65.706666-51.996444a43.463111 43.463111 0 0 0 26.851556 6.144 59.050667 59.050667 0 0 0 32.824889-9.159111l44.771555 45.852444a58.709333 58.709333 0 0 0 26.851556 67.356445 54.101333 54.101333 0 0 0 71.509333-9.159111 66.389333 66.389333 0 0 0 11.946667-73.500445l110.421333-82.659555a57.628444 57.628444 0 0 0 74.638222-9.159111 61.667556 61.667556 0 0 0 3.015111-79.644445 59.107556 59.107556 0 0 0-74.638222-18.375111 62.577778 62.577778 0 0 0-29.866666 73.500444L536.746667 422.855111a49.607111 49.607111 0 0 0-20.935111-3.015111 59.050667 59.050667 0 0 0-32.824889 9.159111l-44.942223-45.909333a65.308444 65.308444 0 0 0-23.893333-67.356445 61.724444 61.724444 0 0 0-71.395555 2.844445 63.544889 63.544889 0 0 0-17.92 70.599111l-62.577778 48.981333a57.628444 57.628444 0 0 0-74.524445 9.216 61.667556 61.667556 0 0 0-2.958222 79.644445 59.107556 59.107556 0 0 0 74.410667 18.318222z" p-id="1176"></path></svg>