<?xml version="1.0" standalone="no"?><!DOCTYPE svg PUBLIC "-//W3C//DTD SVG 1.1//EN" "http://www.w3.org/Graphics/SVG/1.1/DTD/svg11.dtd"><svg t="1559297156183" class="icon" style="" viewBox="0 0 1260 1024" version="1.1" xmlns="http://www.w3.org/2000/svg" p-id="10996" xmlns:xlink="http://www.w3.org/1999/xlink" width="246.09375" height="200"><defs><style type="text/css"></style></defs><path d="M813.804308 531.692308a33.870769 33.870769 0 0 1 34.894769-34.264616c116.263385 0 209.211077-95.310769 209.211077-214.488615S964.962462 68.450462 848.699077 68.450462c-23.236923 0-46.473846 2.993231-69.789539 11.894153a34.264615 34.264615 0 0 1-43.559384-20.795077c-5.828923-17.880615 2.914462-38.754462 20.322461-44.662153 29.144615-11.972923 61.046154-14.887385 92.947693-14.887385 154.151385 0 279.079385 128.078769 279.079384 285.932308a284.278154 284.278154 0 0 1-171.401846 260.962461c175.340308 51.436308 304.049231 218.427077 304.049231 415.744 0 14.651077-17.329231 32.295385-34.500923 32.295385a32.925538 32.925538 0 0 1-24.891077-9.924923 34.264615 34.264615 0 0 1-9.688615-25.284923c0-199.837538-155.648-361.550769-348.711385-361.55077-23.079385 0-48.994462 2.993231-72.073846 8.822154-20.243692 2.993231-37.415385-8.743385-40.329846-26.387692-2.914462-17.644308 8.664615-38.203077 25.915077-41.196308 19.062154-3.938462 38.360615-6.459077 57.737846-7.798154z m-466.944 53.090461C188.534154 628.578462 69.828923 779.185231 69.828923 959.172923c0 20.873846-14.493538 35.761231-34.894769 35.761231a33.083077 33.083077 0 0 1-25.048616-10.003692 34.894769 34.894769 0 0 1-9.846153-25.757539c0-185.344 105.944615-345.245538 258.520615-417.555692a298.692923 298.692923 0 0 1-125.873231-243.160616A299.323077 299.323077 0 0 1 431.222154 0a299.323077 299.323077 0 0 1 298.535384 298.535385 298.062769 298.062769 0 0 1-116.972307 237.48923c159.113846 69.395692 270.808615 232.841846 270.808615 423.148308a34.816 34.816 0 0 1-9.846154 25.757539 33.083077 33.083077 0 0 1-25.048615 10.003692 33.161846 33.161846 0 0 1-25.048615-10.082462 34.894769 34.894769 0 0 1-9.846154-25.678769c0-184.32-122.328615-337.841231-287.665231-377.304615a301.213538 301.213538 0 0 1-179.278769 2.914461z m172.662154-77.272615a226.697846 226.697846 0 0 0 72.073846-369.427692 226.855385 226.855385 0 1 0-241.664 372.263384 427.716923 427.716923 0 0 1 169.590154-2.835692z" p-id="10997"></path></svg>