<?xml version="1.0" standalone="no"?><!DOCTYPE svg PUBLIC "-//W3C//DTD SVG 1.1//EN" "http://www.w3.org/Graphics/SVG/1.1/DTD/svg11.dtd"><svg t="1567043122829" class="icon" viewBox="0 0 1024 1024" version="1.1" xmlns="http://www.w3.org/2000/svg" p-id="6572" xmlns:xlink="http://www.w3.org/1999/xlink" width="200" height="200"><defs><style type="text/css"></style></defs><path d="M434 135c-93.3 0-169 75.7-169 169 0 85.3 63.2 155.6 145.3 167.2 7.9-0.5 39.4-0.5 47.3 0C539.8 459.6 603 389.3 603 304 603 210.7 527.3 135 434 135zM535 485.8c23.9 7.6 46.4 17.8 67.3 30.4L575.2 550c-41.7-24.1-90.1-38-141.2-38-146.5 0-277.1 112.6-273 260 2.9 105.6 126.5 117 273 117 79.6 0 153.1-2.7 203.8-22.5l55.9 22.4c-3.3 2.6-6.4 5.1-10.1 7.7-43.2 30-124.8 31.4-124.8 31.4L293.6 928c0 0-70.1-3.4-125.1-47.4C138.1 856.4 122 822 122 771c0-137.8 88.3-246.4 211-285.3C269.2 450.2 226 382.2 226 304c0-114.9 93.1-208 208-208 114.9 0 208 93.1 208 208C642 382.2 598.8 450.2 535 485.8zM720 590l0 52.2 104-0.2 0 26L642 668 720 590zM746 720 642 720l0-26 182 0-78 78L746 720zM733 551c-71.8 0-130 58.2-130 130 0 71.8 58.2 130 130 130 71.8 0 130-58.2 130-130C863 609.2 804.8 551 733 551zM733 850c-93.4 0-169-75.7-169-169 0-93.4 75.6-169 169-169 93.3 0 169 75.6 169 169C902 774.3 826.3 850 733 850z" p-id="6573"></path></svg>