<?xml version="1.0" standalone="no"?><!DOCTYPE svg PUBLIC "-//W3C//DTD SVG 1.1//EN" "http://www.w3.org/Graphics/SVG/1.1/DTD/svg11.dtd"><svg t="1567042931150" class="icon" viewBox="0 0 1024 1024" version="1.1" xmlns="http://www.w3.org/2000/svg" p-id="2259" xmlns:xlink="http://www.w3.org/1999/xlink" width="200" height="200"><defs><style type="text/css"></style></defs><path d="M583 98v343h343c0-189.4-153.6-343-343-343z" p-id="2260"></path><path d="M632.8 847.1c-42.4 18.6-89.2 28.9-138.3 28.9C303.4 876 148 720.6 148 529.5c0-182.2 141.7-332.2 320.6-345.5v371.4H840c-0.4 5.8-1 11.5-1.7 17.2 16.9 6 32.7 14.5 46.9 25 3.8-22 5.8-44.5 5.8-67.2l0.1-25.1H518.6V132.9l-25.1 0.1c-53.4 0.1-105.2 10.7-154 31.4-47.1 20-89.4 48.6-125.7 85s-64.8 78.8-84.7 125.9C108.5 424.2 98 476.1 98 529.5c0 53.5 10.5 105.4 31.2 154.3 20 47.2 48.6 89.6 85 126 36.4 36.4 78.8 65 126 85C389.1 915.5 441 926 494.5 926c53.4 0 105.3-10.5 154.1-31.1 7.3-3.1 14.4-6.4 21.4-9.8-14.1-10.8-26.7-23.6-37.2-38z" p-id="2261"></path><path d="M664.3 738.2c0-33.8 7.5-61.1 22.4-81.7 11.7-16.3 27.6-28 47.9-35.3 13.9-5.1 28.4-7.6 43.6-7.6 15 0 29.4 2.5 43.2 7.6 20.2 7.2 36.2 19 47.9 35.3 15.2 20.9 22.8 48.1 22.8 81.7 0 33.8-7.5 61.1-22.4 81.7-11.7 16.3-27.6 28-47.9 35.3-13.9 5.1-28.4 7.6-43.6 7.6-15 0-29.4-2.5-43.2-7.6-20.2-7.3-36.2-19-47.9-35.3-15.2-20.8-22.8-48-22.8-81.7z m49.5 0c0 29.9 7.4 51.9 22.1 66.2 11.2 11 25.3 16.5 42.2 16.5 16.7 0 30.8-5.5 42.2-16.5 14.7-14.3 22.1-36.3 22.1-66.2 0-29.9-7.4-51.9-22.1-66.2-11.2-11-25.3-16.5-42.2-16.5-16.7 0-30.8 5.5-42.2 16.5-14.7 14.3-22.1 36.4-22.1 66.2z" p-id="2262"></path></svg>