<?xml version="1.0" standalone="no"?><!DOCTYPE svg PUBLIC "-//W3C//DTD SVG 1.1//EN" "http://www.w3.org/Graphics/SVG/1.1/DTD/svg11.dtd"><svg t="1557802741957" class="icon" style="" viewBox="0 0 1024 1024" version="1.1" xmlns="http://www.w3.org/2000/svg" p-id="6927" xmlns:xlink="http://www.w3.org/1999/xlink" width="200" height="200"><defs><style type="text/css"></style></defs><path d="M871.3 146.9H158.1c-19.7 0-35.9-16.2-35.9-35.9s16.2-35.9 35.9-35.9h713.2c19.7 0 35.9 16.2 35.9 35.9 0 19.8-16.2 35.9-35.9 35.9zM1005.7 441.3L914.9 212H103.8L12.5 440.5h0.7c-1.1 5.3 0.3 10.8 0.3 16.3 0 53.9 54.3 97.5 121.2 97.5S256 510.7 256 456.9c0-5.6 1.5-11.4 1.3-16.3h4.4c0.2 5.5 0.9 6.5 0.9 10.3 0 56.7 55.7 103.6 122.7 103.6s121.2-46 121.2-102.7c0-3.8 2-7.7 2.3-11.2h2.3c1.2 3.5 2.3 7.4 2.3 11.2 0 56.7 54.3 102.7 121.2 102.7s121.2-46 121.2-102.7c0-2.4 0.7-5.5 1.1-11.2h2.5c0 5.8 1.8 10.8 1.8 16.3 0 53.9 54.3 97.5 121.2 97.5s121.2-43.7 121.2-97.5c0-5.6 3.2-10.2 2.1-15.6zM845.7 631.2v254.9H170.4V631.2H98.8c-0.3 2.1-0.5 4.2-0.5 6.4v275.2c0 24.2 19.8 44 44 44h728.5c24.2 0 44-19.8 44-44V637.6c0-2.2-0.2-4.3-0.5-6.4h-68.6z" fill="#686868" p-id="6928"></path><path d="M440.6 909.1V780.7c0-38.5 31.3-69.7 69.7-69.7s69.7 31.3 69.7 69.7v128.4h71.3V780.7c0-77.7-63.2-141-141-141-77.7 0-141 63.2-141 141v128.4h71.3z" fill="#686868" p-id="6929"></path></svg>