<?xml version="1.0" standalone="no"?><!DOCTYPE svg PUBLIC "-//W3C//DTD SVG 1.1//EN" "http://www.w3.org/Graphics/SVG/1.1/DTD/svg11.dtd"><svg t="1563176660219" class="icon" viewBox="0 0 1705 1024" version="1.1" xmlns="http://www.w3.org/2000/svg" p-id="2555" xmlns:xlink="http://www.w3.org/1999/xlink" width="333.0078125" height="200"><defs><style type="text/css"></style></defs><path d="M1399.051672 771.890578c-42.018237-24.899696-76.255319-46.68693-76.255319-90.261399V384.389058c0-42.018237 34.237082-68.474164 76.255319-93.37386l230.322188-132.279636c42.018237-24.899696 76.255319-7.781155 76.255319 38.905775v669.179332c0 42.018237-34.237082 63.805471-76.255319 38.905775l-230.322188-133.835866M1031.781155 1024c90.261398 0 161.848024-73.142857 161.848024-161.848024v-700.303952C1193.629179 73.142857 1122.042553 0 1031.781155 0H161.848024C73.142857 0 0 73.142857 0 161.848024v698.747721c0 90.261398 73.142857 161.848024 161.848024 161.848024h869.933131zM507.331307 631.829787c21.787234 107.379939-68.474164 196.085106-174.297872 171.185411-56.024316-9.337386-102.711246-56.024316-115.161095-116.717326-21.787234-102.711246 68.474164-196.085106 174.297873-174.297872 56.024316 12.449848 102.711246 59.136778 115.161094 119.829787z m0 0" p-id="2556"></path></svg>