<?xml version="1.0" standalone="no"?><!DOCTYPE svg PUBLIC "-//W3C//DTD SVG 1.1//EN" "http://www.w3.org/Graphics/SVG/1.1/DTD/svg11.dtd"><svg t="1560567136365" class="icon" style="" viewBox="0 0 1024 1024" version="1.1" xmlns="http://www.w3.org/2000/svg" p-id="2663" xmlns:xlink="http://www.w3.org/1999/xlink" width="200" height="200"><defs><style type="text/css"></style></defs><path d="M511.891 65.263c-246.961 0-446.628 200.212-446.628 446.628 0 246.961 200.212 446.628 446.628 446.628 246.415 0 446.628-200.212 446.628-446.628-0.109-246.415-199.776-446.628-446.628-446.628z m208.295 484.42H551.54v169.956c0 16.165-22.938 29.164-38.448 29.164s-38.448-12.998-38.448-29.164V549.683H304.142c-16.165 0-29.164-22.938-29.164-38.448s12.998-38.448 29.164-38.448h169.956V304.141c0-16.165 22.938-29.164 38.448-29.164s38.448 12.998 38.448 29.164v168.1H719.64c16.165 0 29.164 22.938 29.164 38.448 0 15.401-13.107 38.994-28.618 38.994z" p-id="2664"></path></svg>