<?xml version="1.0" standalone="no"?><!DOCTYPE svg PUBLIC "-//W3C//DTD SVG 1.1//EN" "http://www.w3.org/Graphics/SVG/1.1/DTD/svg11.dtd"><svg t="1557803199822" class="icon" style="" viewBox="0 0 1024 1024" version="1.1" xmlns="http://www.w3.org/2000/svg" p-id="3562" xmlns:xlink="http://www.w3.org/1999/xlink" width="200" height="200"><defs><style type="text/css"></style></defs><path d="M409.777 402.142c2.329-1.397 4.423-3.143 6.519-4.773v-0.234c-0.699 0.582-3.26 2.445-6.519 5.006z" fill="" p-id="3563"></path><path d="M441.562 513.912h-7.335v204.329h49.831c-17.115-43.543-30.62-93.142-37.839-149.026-2.212-17.813-3.842-36.209-4.657-55.302zM494.653 365.701c3.143-1.98 6.054-4.307 8.964-6.637v-0.234c-0.815 0.699-4.423 3.377-8.964 6.868z" fill="" p-id="3564"></path><path d="M484.058 718.242h-49.831v-204.329h7.335c-1.98-43.311 0-89.998 7.102-139.946l0.234-2.096h54.72v-12.806c-2.911 2.329-5.821 4.541-8.964 6.637 4.541-3.493 8.15-6.171 8.964-6.868v0.234c25.264-19.909 41.914-50.297 41.914-84.875v-10.711c2.911-0.349 29.34-6.054 22.703-116.194 0 0-11.643-48.899-79.17-58.213h-104.785s-27.942-2.329-39.585 27.942c0 0-74.513 18.396-30.271 146.581l0.582-5.821v16.533c0 34.462 16.65 64.966 41.914 84.875v18.629c0 9.78 2.561 18.745 6.287 27.129h-78.705c-30.737 0-55.886 25.149-55.886 55.886v53.091h41.215l-74.513 72.301c-5.472-1.746-10.944-3.493-16.998-3.493h-110.023c-30.737 0-55.886 25.149-55.886 55.886v2.678c0 30.737 25.149 55.886 55.886 55.886h110.023c30.737 0 55.886-25.149 55.886-55.886v-2.678c0-14.32-5.821-27.011-14.67-36.908l90.464-87.787h96.286v204.329h-80.335c-30.737 0-55.886 25.149-55.886 55.886v12.224c0 30.737 25.149 55.886 55.886 55.886h188.611c10.944 0 21.19-3.143 29.805-8.615-16.183-24.1-32.017-51.577-46.338-82.663-4.891-10.479-9.547-21.422-13.971-32.716z" fill="" p-id="3565"></path><path d="M1010.773 408.197l-0.349-1.631h-499.472l-0.234 1.862c-6.287 44.592-8.034 86.156-6.287 124.81 0.815 16.998 2.212 33.414 4.192 49.364 6.287 49.714 18.512 93.956 33.648 132.844 3.958 10.013 8.034 19.793 12.341 29.106 12.806 27.71 26.895 52.275 41.332 73.698 5.938 8.848 11.875 17.232 17.813 25.033 68.575 90.464 145.184 132.261 145.883 132.61l1.047 0.582 1.047-0.582c172.778-92.21 231.223-241.702 249.969-350.794 20.142-118.173-0.699-215.856-0.932-216.903zM994.939 627.894c-17.581 102.455-72.417 242.634-234.134 329.372-8.615-4.891-75.794-44.475-136.336-124.345-5.705-7.567-11.526-15.717-17.347-24.334-17.463-26.196-34.579-57.166-48.899-93.142-1.281-3.143-2.445-6.171-3.609-9.314-13.621-36.324-24.334-77.424-29.805-123.529-1.862-15.835-3.143-32.251-3.609-49.364-1.047-33.763 0.699-69.74 6.054-108.045h467.221c2.445 12.574 18.162 99.312 0.465 202.7z" fill="" p-id="3566"></path><path d="M947.203 478.984h-372.333l-0.234 1.862c-2.561 18.162-4.075 35.51-4.773 52.393-3.377 83.246 14.902 150.541 39.585 202.35 3.377 4.541 6.054 9.78 7.684 15.367 10.944 20.607 22.703 38.42 34.23 53.673 50.995 67.411 108.161 98.497 108.743 98.73l0.932 0.582 0.932-0.582c128.652-68.692 172.311-179.997 186.166-261.262 15.019-88.018-0.465-160.669-0.699-161.484l-0.234-1.631zM760.921 692.628h-146.93c-14.786-43.893-22.937-98.148-18.279-159.505 0.234-3.143 0.465-6.403 0.815-9.547 0.582-6.519 1.397-13.040 2.329-19.676h162.066v188.727zM810.752 837.579c-27.129 21.772-50.18 31.785-49.714 31.552v-175.34l143.322 0.116c-3.027 56.117-53.207 111.071-93.607 143.67zM568.117 758.176c-1.862-6.287-4.891-12.108-8.615-17.232 2.678 5.938 5.588 11.643 8.615 17.232z" fill="" p-id="3567"></path></svg>