<?xml version="1.0" standalone="no"?><!DOCTYPE svg PUBLIC "-//W3C//DTD SVG 1.1//EN" "http://www.w3.org/Graphics/SVG/1.1/DTD/svg11.dtd"><svg t="1563238716568" class="icon" viewBox="0 0 1024 1024" version="1.1" xmlns="http://www.w3.org/2000/svg" p-id="1875" xmlns:xlink="http://www.w3.org/1999/xlink" width="200" height="200"><defs><style type="text/css"></style></defs><path d="M427.2 444.8H24c-12.8 0-24-11.2-24-24V24C0 11.2 9.6 0 24 0h403.2c12.8 0 24 11.2 24 24v396.8c-1.6 12.8-11.2 24-24 24zM46.4 398.4h356.8V48H46.4v350.4zM427.2 985.6H24C9.6 985.6 0 976 0 963.2V566.4c0-12.8 9.6-24 24-24h403.2c12.8 0 24 11.2 24 24v396.8c-1.6 12.8-11.2 22.4-24 22.4zM46.4 939.2h356.8V590.4H46.4v348.8zM961.6 444.8H558.4c-12.8 0-24-11.2-24-24V24c0-12.8 11.2-24 24-24h403.2c12.8 0 24 11.2 24 24v396.8c-1.6 12.8-11.2 24-24 24z m-380.8-46.4h356.8V48H580.8v350.4zM745.6 988.8c-128 0-233.6-104-233.6-233.6 0-128 104-233.6 233.6-233.6 128 0 233.6 104 233.6 233.6s-104 233.6-233.6 233.6z m0-419.2c-102.4 0-185.6 83.2-185.6 187.2 0 102.4 83.2 185.6 185.6 185.6 102.4 0 185.6-83.2 185.6-185.6 1.6-104-83.2-187.2-185.6-187.2z" fill="#989CA4" p-id="1876"></path><path d="M1000 1024c-4.8 0-11.2-1.6-16-6.4L880 918.4c-9.6-8-9.6-24-1.6-33.6 9.6-9.6 24-9.6 33.6-1.6l104 97.6c9.6 9.6 9.6 24 1.6 33.6-4.8 6.4-11.2 9.6-17.6 9.6z" fill="#989CA4" p-id="1877"></path></svg>