<?xml version="1.0" standalone="no"?><!DOCTYPE svg PUBLIC "-//W3C//DTD SVG 1.1//EN" "http://www.w3.org/Graphics/SVG/1.1/DTD/svg11.dtd"><svg t="1556593831977" class="icon" style="" viewBox="0 0 1024 1024" version="1.1" xmlns="http://www.w3.org/2000/svg" p-id="1114" xmlns:xlink="http://www.w3.org/1999/xlink" width="200" height="200"><defs><style type="text/css"></style></defs><path d="M256.024998 639.937506l261.474465 0c0 0 0 0 0 0 13.298701 37.296358 48.895225 63.993751 90.591153 63.993751l319.668782 0c52.994825 0 96.090616-43.095791 96.090616-96.090616l0-63.69378c0-52.994825-43.095791-96.090616-96.090616-96.090616l-319.668782 0c-52.994825 0-96.090616 43.095791-96.090616 96.090616l0 31.896885L256.024998 576.043746l0-63.993751 125.987697 0c71.692999 0 129.987306-58.294307 129.987306-129.987306l0-251.975393c0-71.692999-58.294307-129.987306-129.987306-129.987306L130.037301 0.09999c-71.692999 0-129.987306 58.294307-129.987306 129.987306l0 251.975393c0 71.692999 58.294307 129.987306 129.987306 129.987306l61.993946 0 0 416.759301c0 17.698272 14.298604 31.996875 31.996875 31.996875 2.399766 0 4.699541-0.299971 6.899326-0.799922l286.572014 0c0 0 0 0 0 0 13.298701 37.296358 48.895225 63.993751 90.591153 63.993751l319.668782 0c52.994825 0 96.090616-43.095791 96.090616-96.090616l0-63.69378c0-52.994825-43.095791-96.090616-96.090616-96.090616l-319.668782 0c-52.994825 0-96.090616 43.095791-96.090616 96.090616l0 31.896885L256.024998 896.112489 256.024998 639.937506zM575.993751 544.04687c0-17.698272 14.398594-32.096866 32.096866-32.096866l319.668782 0c17.698272 0 32.096866 14.398594 32.096866 32.096866l0 63.69378c0 17.698272-14.398594 32.096866-32.096866 32.096866l-319.668782 0c-17.698272 0-32.096866-14.398594-32.096866-32.096866L575.993751 544.04687zM64.043746 381.962699l0-251.975393c0-36.396446 29.59711-65.993555 65.993555-65.993555l251.975393 0c36.396446 0 65.993555 29.59711 65.993555 65.993555l0 251.975393c0 36.396446-29.59711 65.993555-65.993555 65.993555L130.037301 447.956254C93.640855 447.956254 64.043746 418.359145 64.043746 381.962699zM575.993751 864.015623c0-17.698272 14.398594-32.096866 32.096866-32.096866l319.668782 0c17.698272 0 32.096866 14.398594 32.096866 32.096866l0 63.69378c0 17.698272-14.398594 32.096866-32.096866 32.096866l-319.668782 0c-17.698272 0-32.096866-14.398594-32.096866-32.096866L575.993751 864.015623z" p-id="1115"></path><path d="M639.987501 255.975002l111.989064 0 0 111.989064c0 17.698272 14.298604 31.996875 31.996875 31.996875s31.996875-14.298604 31.996875-31.996875l0-111.989064 111.989064 0c17.698272 0 31.996875-14.298604 31.996875-31.996875s-14.298604-31.996875-31.996875-31.996875l-111.989064 0 0-111.989064c0-17.698272-14.298604-31.996875-31.996875-31.996875s-31.996875 14.298604-31.996875 31.996875l0 111.989064-111.989064 0c-17.698272 0-31.996875 14.298604-31.996875 31.996875S622.28923 255.975002 639.987501 255.975002z" p-id="1116"></path></svg>