<?xml version="1.0" standalone="no"?><!DOCTYPE svg PUBLIC "-//W3C//DTD SVG 1.1//EN" "http://www.w3.org/Graphics/SVG/1.1/DTD/svg11.dtd"><svg t="1561787247023" class="icon" viewBox="0 0 1024 1024" version="1.1" xmlns="http://www.w3.org/2000/svg" p-id="22629" xmlns:xlink="http://www.w3.org/1999/xlink" width="200" height="200"><defs><style type="text/css"></style></defs><path d="M124 128.9c-14.3 0-25.9 11.6-25.9 25.9v526.6l277.5 277.3H902c14.3 0 25.9-11.6 25.9-25.9v-778c0-14.3-11.6-25.9-25.9-25.9H124z m283.2 767.6L160.3 649.7v-0.1h247.8v246.9h-0.9z m456.5-2H470.3V613.3c0-14.3-11.6-25.9-25.9-25.9H162.3V193.1h701.4v701.4z" p-id="22630"></path><path d="M711 347.3H255c-14.9 0-27-12.2-27-27v-2c0-14.9 12.2-27 27-27h456c14.9 0 27 12.2 27 27v2c0 14.9-12.1 27-27 27zM454 475.2H255.4c-15.2 0-27.7-12.5-27.7-27.7v-0.6c0-15.2 12.5-27.7 27.7-27.7H454c15.2 0 27.7 12.5 27.7 27.7v0.6c0 15.3-12.5 27.7-27.7 27.7z" p-id="22631"></path></svg>