<?xml version="1.0" standalone="no"?><!DOCTYPE svg PUBLIC "-//W3C//DTD SVG 1.1//EN" "http://www.w3.org/Graphics/SVG/1.1/DTD/svg11.dtd"><svg t="1561780301942" class="icon" viewBox="0 0 1024 1024" version="1.1" xmlns="http://www.w3.org/2000/svg" p-id="12005" xmlns:xlink="http://www.w3.org/1999/xlink" width="200" height="200"><defs><style type="text/css"></style></defs><path d="M792.622972 96.265394H222.489835C158.626055 96.265394 106.862385 148.029064 106.862385 211.892844v604.920954c0 63.854385 51.76367 115.62745 115.62745 115.62745h570.133137c63.854385 0 115.618055-51.773064 115.618056-115.62745V211.892844c0-63.86378-51.76367-115.62745-115.618056-115.62745z m57.804331 720.53901a57.813725 57.813725 0 0 1-57.804331 57.813724H222.489835a57.823119 57.823119 0 0 1-57.813725-57.813724V327.520294H850.436697v489.28411z m0-547.10723H164.67611v-57.813724a57.813725 57.813725 0 0 1 57.813725-57.813725h570.133137a57.80433 57.80433 0 0 1 57.804331 57.813725v57.813724z" p-id="12006"></path><path d="M391.928954 663.570789a28.906862 28.906862 0 1 0 0 57.813725h86.720587v57.80433a28.897468 28.897468 0 1 0 57.794936 0v-57.80433h86.711193a28.916257 28.916257 0 0 0 0-57.813725h-86.711193V605.757064h86.711193a28.916257 28.916257 0 0 0 0-57.813725h-71.914863l-0.986422-0.977027 92.516991-92.498202a30.250275 30.250275 0 0 0-42.71677-42.726165l-92.498202 92.498202-92.488808-92.498202a30.250275 30.250275 0 0 0-42.726165 42.716771l92.507597 92.498201-0.995817 0.986422h-71.914862a28.906862 28.906862 0 1 0 0 57.813725h86.720587v57.80433h-86.729982z" p-id="12007"></path></svg>