<?xml version="1.0" standalone="no"?><!DOCTYPE svg PUBLIC "-//W3C//DTD SVG 1.1//EN" "http://www.w3.org/Graphics/SVG/1.1/DTD/svg11.dtd"><svg t="1561787638430" class="icon" viewBox="0 0 1024 1024" version="1.1" xmlns="http://www.w3.org/2000/svg" p-id="24011" xmlns:xlink="http://www.w3.org/1999/xlink" width="200" height="200"><defs><style type="text/css"></style></defs><path d="M223.3 528.2c7.4-24.1 63.2-33.7 63.2-33.7-48.3-33.9-92.8-77.3-133.7-125.6 0 38.6 0 77.3 0.1 115.8-29.7 5-59.4 9.9-89.1 14.7 44.5 48.3 107.7 106.1 159.6 144.8-0.1-29.1-0.1-96.6-0.1-116zM871.1 489V373.2c-40.9 48.3-85.4 91.7-133.7 125.6h3.6s55.7 9.6 63.2 33.7v115.9c52-38.6 111.5-96.5 156-144.8-29.7-4.8-59.5-9.7-89.1-14.6z" p-id="24012"></path><path d="M302.9 506.5c-33.5 2.1-60.7 7.9-60.7 17.5 0 9.7 10.2 14.2 36.8 19.4l23.9-36.9zM727.2 507.4l22.8 39c30.5-3 39-9.6 37.1-19-2.2-9.9-23.4-14.9-59.9-20zM545.8 710.9l-38.4 97.2-34.4-97.9h0.6c-50-1.9-96.6-6.7-136-13.7-44.4-7.8-79.8-18.5-100.9-30.9l-44.6 68.8 226.2-23.2 87.1 247.9L601.7 716l225.2 34.8-44.2-74.7c-50.2 20-136.1 32.9-236.9 34.8z" p-id="24013"></path><path d="M348 682.9c-1.7-0.3-3.4-0.5-5-0.8 1.6 0.3 3.3 0.6 5 0.8zM294.2 547.6c9.8 2.4 20.4 4.6 31.7 6.7 0.2 0 0.4 0.1 0.5 0.1 0.9 0.2 1.9 0.3 2.8 0.5 7.4 1.3 15.2 2.6 23.1 3.7l41.5-64L309.4 352l146 22.6 62.3-157.7 56.5 160.7 146.7-15.1-89.5 138.2 35.9 60.7c21.6-2.7 41.5-5.9 59.5-9.5l-30-50.7 138.1-213.1-226.2 23.2-87.2-247.8-96.1 243.2-225.2-34.8 130.1 220-36.1 55.7z" p-id="24014"></path><path d="M791.2 547.7c-28.5 11.5-71.5 21.3-124.1 27.7-43.4 5.3-93.3 8.4-147 8.4-61.3 0-119.2-4.2-167.5-11.4-51.2-7.5-91.8-18.3-114.7-30.8l-1.3 107.6c44.6 27.1 157.3 46 283.5 46 107.5 0 200.7-12.4 256-32.5-55.2 20.4-148.8 32.9-257 32.9-62.6 0-121.9-4.6-171.2-12.6 37.1 6.1 80 10.2 125.7 11.9l10.5 0.3h1.1c3.6 0.1 7.2 0.2 10.7 0.3h1c3.6 0.1 7.3 0.1 11 0.2h0.7c3.8 0 7.6 0.1 11.4 0.1 4.2 0 8.4 0 12.6-0.1h0.5c4.2 0 8.3-0.1 12.5-0.2 100.8-1.9 186.7-14.8 236.8-34.8l-0.3-0.4c3.5-1.4 6.8-2.8 9.9-4.2l-0.8-108.4z m-14.3 114.7c0.2-0.1 0.3-0.1 0.5-0.2-0.2 0.1-0.4 0.1-0.5 0.2z" p-id="24015"></path></svg>