<?xml version="1.0" standalone="no"?><!DOCTYPE svg PUBLIC "-//W3C//DTD SVG 1.1//EN" "http://www.w3.org/Graphics/SVG/1.1/DTD/svg11.dtd"><svg t="1561786819216" class="icon" viewBox="0 0 1024 1024" version="1.1" xmlns="http://www.w3.org/2000/svg" p-id="17131" xmlns:xlink="http://www.w3.org/1999/xlink" width="200" height="200"><defs><style type="text/css"></style></defs><path d="M394.422857 1005.714286c-219.428571 0-384-86.857143-384-202.057143 0-84.662857 89.417143-155.977143 234.24-186.88a265.691429 265.691429 0 0 1-101.851428-210.285714v-106.24A240.64 240.64 0 0 1 378.148571 54.857143h32.365715a240.64 240.64 0 0 1 235.337143 245.028571v106.605715a265.691429 265.691429 0 0 1-101.851429 210.285714c144.822857 31.268571 234.422857 102.582857 234.422857 187.794286 0 114.651429-165.12 201.142857-384 201.142857z m-16.274286-877.714286a167.497143 167.497143 0 0 0-162.194285 171.885714v106.605715A192.731429 192.731429 0 0 0 292.571429 561.554286a71.131429 71.131429 0 0 1-27.245715 126.171428C157.988571 709.485714 83.565714 757.394286 83.565714 804.571429c0 60.891429 132.937143 128.914286 310.857143 128.914285s310.857143-68.022857 310.857143-128.914285c0-46.628571-74.605714-94.537143-181.577143-116.297143a71.131429 71.131429 0 0 1-27.245714-126.171429 192.731429 192.731429 0 0 0 76.251428-154.697143v-107.154285A167.497143 167.497143 0 0 0 410.514286 128z" p-id="17132"></path><path d="M845.714286 766.902857a36.571429 36.571429 0 0 1-10.24-72.045714c61.805714-18.285714 104.96-49.554286 104.96-76.8s-47.908571-66.377143-136.96-84.662857A64 64 0 0 1 778.788571 420.571429a144.64 144.64 0 0 0 57.234286-116.297143V219.428571a124.891429 124.891429 0 0 0-120.502857-128H713.142857a105.691429 105.691429 0 0 0-56.868571 12.982858 36.571429 36.571429 0 1 1-39.497143-61.44A177.737143 177.737143 0 0 1 716.982857 18.285714a198.034286 198.034286 0 0 1 192.182857 201.142857v84.297143a219.428571 219.428571 0 0 1-71.497143 162.56c109.714286 26.88 175.908571 84.114286 175.908572 151.771429 0 63.268571-58.88 118.125714-157.44 146.285714a34.194286 34.194286 0 0 1-10.422857 2.56z" p-id="17133"></path></svg>