<?xml version="1.0" standalone="no"?><!DOCTYPE svg PUBLIC "-//W3C//DTD SVG 1.1//EN" "http://www.w3.org/Graphics/SVG/1.1/DTD/svg11.dtd"><svg t="1563853341268" class="icon" viewBox="0 0 1024 1024" version="1.1" xmlns="http://www.w3.org/2000/svg" p-id="7762" xmlns:xlink="http://www.w3.org/1999/xlink" width="200" height="200"><defs><style type="text/css"></style></defs><path d="M988.208762 934.765714l-34.474667 34.474667-68.949333-68.949333-68.973714 68.949333-34.474667-34.474667 68.949333-68.949333-68.949333-68.949333 34.474667-34.474667 68.973714 68.949333 68.949333-68.949333 34.474667 34.474667-68.949333 68.949333L988.208762 934.765714zM620.568381 828.952381 230.473143 828.952381l0-48.761905 390.095238 0L620.568381 828.952381zM230.473143 292.571429l243.809524 0 0 48.761905L230.473143 341.333333 230.473143 292.571429zM620.568381 585.142857 230.473143 585.142857l0-48.761905 390.095238 0L620.568381 585.142857zM864.377905 341.333333 571.806476 341.333333l0-48.761905L571.806476 48.761905 132.949333 48.761905C106.008381 48.761905 84.187429 70.582857 84.187429 97.52381l0 828.952381c0 26.940952 21.820952 48.761905 48.761905 48.761905l536.380952 0 0 48.761905L132.949333 1024c-53.857524 0-97.52381-43.666286-97.52381-97.52381L35.425524 97.52381c0-53.857524 43.666286-97.52381 97.52381-97.52381l438.857143 0 48.761905 0 0 16.725333 10.093714-10.093714 275.846095 275.846095L896.414476 292.571429 913.13981 292.571429l0 341.333333-48.761905 0L864.377905 341.333333zM620.568381 65.487238 620.568381 292.571429l227.08419 0L620.568381 65.487238z" p-id="7763"></path></svg>