<?xml version="1.0" standalone="no"?><!DOCTYPE svg PUBLIC "-//W3C//DTD SVG 1.1//EN" "http://www.w3.org/Graphics/SVG/1.1/DTD/svg11.dtd"><svg t="1561787412227" class="icon" viewBox="0 0 1024 1024" version="1.1" xmlns="http://www.w3.org/2000/svg" p-id="23072" xmlns:xlink="http://www.w3.org/1999/xlink" width="200" height="200"><defs><style type="text/css"></style></defs><path d="M703.015963 63.97915 639.570979 63.97915 639.570979 190.861956 703.015963 191.535291Z" p-id="23073"></path><path d="M831.959707 383.925043 959.515848 383.925043 959.515848 320.480059 832.634066 320.480059Z" p-id="23074"></path><path d="M958.764742 108.910479 913.902998 64.048735 775.473205 202.476481 819.859112 247.816109Z" p-id="23075"></path><path d="M410.195871 478.602356 523.659039 181.239807 842.584696 497.7873 545.210891 611.990319 473.113853 684.087357 513.355369 724.32785 568.470641 669.675112 959.525058 523.517311 499.595994 66.691935 350.900394 454.230272 230.564701 574.563918 585.400219 929.403528 630.262986 884.539738 316.742433 572.053748Z" p-id="23076"></path><path d="M64.847425 741.766011 281.344225 958.263833 355.023294 884.585787 311.215556 840.783165 283.669176 867.464851 155.644361 739.442082 203.567837 693.781136 513.245875 1003.048829 558.108642 958.186062 203.279265 603.332125Z" p-id="23077"></path></svg>