<?xml version="1.0" standalone="no"?><!DOCTYPE svg PUBLIC "-//W3C//DTD SVG 1.1//EN" "http://www.w3.org/Graphics/SVG/1.1/DTD/svg11.dtd"><svg t="1561779850943" class="icon" viewBox="0 0 1027 1024" version="1.1" xmlns="http://www.w3.org/2000/svg" p-id="8379" xmlns:xlink="http://www.w3.org/1999/xlink" width="200.5859375" height="200"><defs><style type="text/css"></style></defs><path d="M5.625 898.548c5.742 18.44 104.507 48.91 238.944 50.46 96.335 1.15 208.817-14.525 241.107-47.83 0 0 3.715-12.09-16.145-22.225-29.185-12.225-98.025-36.07-140.587-48.705-3.715-1.155-4.188-1.42-4.188-16.415 0-12.5 5.068-25.135 10.067-35.745 5.47-11.545 11.89-31.005 14.187-48.43 6.552-7.5 15.335-22.365 21.007-50.535 4.932-24.79 2.638-33.91-0.675-42.425-0.402-0.945-0.675-1.76-0.945-2.635-1.35-5.88 0.405-36.14 4.595-59.655 3.04-16.075-0.675-50.395-22.902-78.767-13.985-17.902-40.802-39.925-89.85-43.032l-26.82 0.067c-48.167 3.04-74.987 25.062-89.04 42.965-22.157 28.372-25.872 62.692-22.9 78.767 4.257 23.515 5.945 53.775 4.66 59.45-0.202 1.08-0.54 1.895-0.945 2.84-3.242 8.515-5.537 17.635-0.675 42.425 5.675 28.17 14.457 43.035 21.007 50.535 2.3 17.425 8.782 36.885 14.187 48.43 3.987 8.445 5.812 20 5.812 36.28 0 15.2-0.607 15.34-3.985 16.355-43.98 13.035-114.24 38.37-140.317 49.85C21.227 880.573 1.775 885.913 5.625 898.548zM546.069 898.548c5.745 18.44 104.51 48.91 238.949 50.46 96.335 1.15 208.814-14.525 241.104-47.83 0 0 3.715-12.09-16.145-22.225-29.185-12.225-98.025-36.07-140.585-48.705-3.715-1.155-4.185-1.42-4.185-16.415 0-12.5 5.065-25.135 10.065-35.745 5.475-11.545 11.89-31.005 14.185-48.43 6.55-7.5 15.335-22.365 21.01-50.535 4.93-24.79 2.635-33.91-0.675-42.425-0.405-0.945-0.675-1.76-0.95-2.635-1.35-5.88 0.41-36.14 4.6-59.655 3.04-16.075-0.675-50.395-22.9-78.767-13.99-17.902-40.81-39.925-89.85-43.032l-26.825 0.067c-48.165 3.04-74.985 25.062-89.035 42.965-22.16 28.372-25.875 62.692-22.905 78.767 4.26 23.515 5.945 53.775 4.665 59.45-0.275 1.08-0.61 1.895-1.015 2.84-3.245 8.515-5.54 17.635-0.675 42.425 5.675 28.17 14.455 43.035 21.005 50.535 2.305 17.425 8.785 36.885 14.19 48.43 3.99 8.445 5.81 20 5.81 36.28 0 15.2-0.61 15.34-3.985 16.355-43.98 13.035-114.24 38.37-140.315 49.85C561.674 880.573 542.224 885.913 546.069 898.548zM775.558 281.692c1.96 6.01 1.55 12.7-1.42 18.577-2.835 5.607-7.835 10.065-14.05 12.227l-185.78 61.88c-12.16 4.055-26.55-2.97-30.605-15.332-4.185-12.567 2.64-26.417 15.34-30.67l130.38-43.507-29.52-14.727c-207.194-122.075-376.559-63.975-443.841 15.942 7.43-13.847 19.317-27.36 44.79-52.962 41.68-41.885 185.912-131.535 420.396-6.417l29.39 14.387-43.03-129.842c-4.26-12.767 2.565-26.482 15.2-30.737 12.29-4.12 26.615 2.972 30.67 15.335L775.558 281.692z" p-id="8380"></path></svg>