<?xml version="1.0" standalone="no"?><!DOCTYPE svg PUBLIC "-//W3C//DTD SVG 1.1//EN" "http://www.w3.org/Graphics/SVG/1.1/DTD/svg11.dtd"><svg t="1563179782640" class="icon" viewBox="0 0 1024 1024" version="1.1" xmlns="http://www.w3.org/2000/svg" p-id="12750" xmlns:xlink="http://www.w3.org/1999/xlink" width="200" height="200"><defs><style type="text/css"></style></defs><path d="M511.37576 41.83904213333335C250.24287466666664 41.83904213333335 38.54829333333333 253.53362453333335 38.54829333333333 514.6665088000001c0 261.1405909333333 211.69458133333333 472.84288000000004 472.83517333333333 472.84288000000004s472.83517333333333-211.70228799999998 472.8351722666667-472.84288000000004c0-261.1328842666667-211.70228799999998-472.8274666666667-472.8428789333333-472.8274666666667z m-39.458163199999994 672.3377994666666c-2.2965888000000003 5.325310933333333-5.7260576 10.473367466666668-10.3038208 15.428757333333332a53.71550613333332 53.71550613333332 0 0 1-15.706197333333332 10.0032608 47.61952853333333 47.61952853333333 0 0 1-18.588493866666667 3.7146165333333334c-6.8666453333333335 0-13.1552896-1.1482944000000002-18.865933866666666-3.4371765333333335a61.09079146666666 61.09079146666666 0 0 1-15.436465066666665-10.296114133333333c-4.570056533333333-4.955389866666667-7.999525333333333-10.103447466666665-10.296114133333333-15.444170666666666a47.997155199999995 47.997155199999995 0 0 1-3.4371754666666665-17.995080533333333c0-6.2809376 1.1482944000000002-12.469396266666667 3.4371754666666665-18.580786133333334 1.1482944000000002-2.681922133333333 2.5663221333333333-5.248244266666666 4.2772032-7.7220864 1.7185877333333333-2.4738421333333336 3.7069098666666664-4.862909866666667 6.011204266666666-7.151792a27.358686933333335 27.358686933333335 0 0 1 5.1326442666666665-4.015175466666666l4.5777632-3.4294698666666665c1.9035477333333333-1.1405877333333334 3.8148032-2.0962144 5.7260576-2.8591754666666667 1.5259210666666665-0.37762666666666667 3.051842133333333-0.8477344 4.5777632-1.4257344 1.5259210666666665-0.5702933333333333 3.051842133333333-0.9556277333333333 4.570056533333333-1.156 1.5259210666666665-0.17725333333333332 3.1520287999999996-0.37762666666666667 4.862910933333334-0.5548810666666667 1.7185877333333333-0.17725333333333332 3.3446954666666664-0.28514666666666666 4.862909866666667-0.29285333333333335l0.023119999999999998 0.015413333333333331c6.473604266666666 0 12.754542933333333 1.1482944000000002 18.858227199999998 3.4371754666666665 5.710644266666667 2.2888821333333333 10.866407466666667 5.7260576 15.428757333333332 10.296114133333333 2.2888821333333333 2.2888821333333333 4.292616533333333 4.677949866666666 6.003498666666667 7.151792 1.7031744 2.4815488 3.1289087999999996 5.055576533333333 4.277202133333333 7.7220864 2.674215466666667 6.095977599999999 4.007469866666666 12.292141866666666 4.007469866666666 18.588492799999997s-1.3255477333333334 12.299848533333332-3.9997632 18.0027872z m218.66912106666666-7.706672c-0.578 3.236802133333333-1.4411477333333333 6.196164266666667-2.5817354666666663 8.847259733333335a67.0634624 67.0634624 0 0 1-10.866408533333333 15.436464c-4.192429866666667 4.2078432-9.3404864 7.429232-15.436464 9.718114133333334-5.710644266666667 2.674215466666667-12.0069952 3.9997632-18.858227199999998 3.9997632s-13.132169599999997-1.3255477333333334-18.858227199999998-3.9997632c-6.088270933333334-2.674215466666667-11.051368533333335-5.911017599999999-14.866170666666667-9.718114133333334-4.5777632-4.9476832-8.007232-10.0957408-10.311527466666666-15.436464a42.741204266666664 42.741204266666664 0 0 1-3.9997632-18.287933866666666c0-3.051842133333333 0.27744-6.103684266666666 0.8631466666666667-9.1555264a34.98829226666666 34.98829226666666 0 0 1 3.1289098666666666-9.1478208 47.78136853333333 47.78136853333333 0 0 1 10.311527466666666-14.866170666666667c1.9035477333333333-2.2888821333333333 4.1847232-4.308029866666667 6.8666442666666665-5.995790933333334a55.41868053333334 55.41868053333334 0 0 1 7.9995264-4.284909866666666c1.9035477333333333-0.7706677333333333 3.9072832-1.4411477333333333 6.0034976-2.0037344 2.088507733333333-0.55488 4.192429866666667-0.9325077333333333 6.288644266666666-1.1405877333333334 2.088507733333333-0.20808 4.284909866666666-0.31597333333333333 6.573792-0.30056l-0.015413333333333331-0.015413333333333331a54.6171872 54.6171872 0 0 1 18.865933866666666 3.4371754666666665c6.1113909333333325 2.2888821333333333 11.251741866666666 5.7260576 15.444170666666666 10.3038208a57.05249493333333 57.05249493333333 0 0 1 10.866408533333333 14.866170666666667c2.2888821333333333 5.7260576 3.444882133333333 11.822035199999998 3.444882133333333 18.295640533333334a56.1585216 56.1585216 0 0 1-0.8631466666666667 9.448380799999999z m76.27293546666667-321.5531957333333c0 1.5336277333333332-0.10018666666666666 2.951655466666667-0.29285333333333335 4.2772032s-0.39304 2.5663221333333333-0.5625877333333332 3.7146154666666664a21.57868266666667 21.57868266666667 0 0 1-0.8631466666666667 3.4371765333333335l-6.8666453333333335 18.858227199999998-10.866407466666667 31.443222399999996-11.999289599999997 33.7166912c-4.939976533333334 14.488543999999997-7.991818666666667 23.44369706666667-9.140113066666666 26.873166933333334-2.2888821333333333 6.473604266666666-4.870616533333333 12.0994752-7.722085333333333 16.8621984-2.8437621333333336 4.7704298666666665-5.995790933333334 8.4850464-9.440674133333331 11.143848533333333-6.8666453333333335 5.333017600000001-15.251504 8.007232-25.15457813333333 8.007232H411.8826197333333l8.014939733333332 45.72368746666667h260.6550709333333c16.754306133333333 0 25.146871466666667 7.043898666666665 25.146871466666667 21.147108266666663 0 6.8666453333333335-1.7185877333333333 12.769956266666666-5.1326442666666665 17.717640533333334-3.051842133333333 4.955389866666667-9.540860799999999 7.436938666666666-19.443933866666665 7.436938666666666H409.59373866666664a40.074696533333324 40.074696533333324 0 0 1-12.292142933333334-2.0037354666666665 16.592465066666666 16.592465066666666 0 0 1-4.8552032-2.5817354666666663 38.248214399999995 38.248214399999995 0 0 1-11.436701866666667-11.999288533333333 69.74538453333332 69.74538453333332 0 0 1-4.284909866666666-7.429232 91.1853472 91.1853472 0 0 1-3.7069088-8.569819733333333 332.74328319999995 332.74328319999995 0 0 1-4.007469866666666-16.569345066666667l-2.8514688-14.866170666666667-5.7260576-29.15434133333333-7.429232-39.4427488-8.5775264-44.00509973333333-22.303109333333335-114.88336426666666h-38.8647488c-5.333017600000001 0-9.533154133333333-1.1482944000000002-12.5772896-3.4371754666666665a52.42849173333333 52.42849173333333 0 0 1-9.147819733333334-9.147819733333334 48.027981866666664 48.027981866666664 0 0 0-2.5740288000000002-6.296350933333333c-0.9479210666666666-1.8958410666666665-1.6184010666666666-3.807096533333333-1.9960277333333332-5.7260576s-0.6550666666666667-3.8148032-0.8554410666666665-5.7260576a54.00835946666667 54.00835946666667 0 0 1-0.29285333333333335-5.140350933333334c0-6.8666453333333335 2.281175466666667-12.584996266666668 6.858938666666666-17.1550528a37.45442773333333 37.45442773333333 0 0 1 8.5775264-4.570056533333333 29.054154666666665 29.054154666666665 0 0 1 10.296114133333333-1.7262943999999998h52.582625066666665c6.8666453333333335 0 12.384622933333333 0.9402143999999999 16.569345066666667 2.8514688 1.9035477333333333 1.1482944000000002 3.7146165333333334 2.2888821333333333 5.4332042666666664 3.4371754666666665 1.7108810666666665 1.1560010666666665 3.3369888 2.4815488 4.862909866666667 4.015176533333333 2.2888821333333333 3.421762133333333 3.8148032 6.658565333333333 4.570056533333333 9.710407466666666l2.8591754666666667 9.147819733333334c0.37762666666666667 1.5182144000000002 0.9633344 4.377389866666666 1.7262954666666666 8.585233066666666v2.8437621333333336l2.2811744 14.873877333333333 2.8591754666666667 19.443933866666665h354.42985919999995c9.9107808 0 17.532679466666664 1.3332544000000002 22.865697066666666 4.007469866666666 2.674215466666667 1.1405877333333334 4.955389866666667 2.4815488 6.8666453333333335 4.007469866666666a19.6828416 19.6828416 0 0 1 7.4061119999999985 17.147346133333333z m0 0" fill="" p-id="12751"></path><path d="M594.8390208 481.8514976a64.45090026666665 64.45090026666665 0 0 0 10.7431008-35.64335893333333c0-35.75125333333334-29.08498133333333-64.84394133333333-64.8362336-64.84394133333333-35.74354666666667 0-64.82852799999999 29.08498133333333-64.82852799999999 64.84394133333333 0 35.74354666666667 29.077274666666664 64.82852799999999 64.82852799999999 64.82852693333334a64.47402026666667 64.47402026666667 0 0 0 37.98618773333333-12.4000352l20.299374933333336 20.299374933333336a11.513768533333332 11.513768533333332 0 0 0 16.276491733333334 0l0.16183999999999998-0.16183999999999998a11.506061866666666 11.506061866666666 0 0 0 0-16.284199466666667l-20.6307616-20.638468266666667z m-54.0931328 5.918724266666667a41.60832426666666 41.60832426666666 0 0 1-41.56208426666667-41.5620832c0-22.9273504 18.642440533333335-41.5774976 41.56208426666667-41.5774976s41.585204266666665 18.6501472 41.5852032 41.5774976a41.63915093333333 41.63915093333333 0 0 1-41.5852032 41.5620832z m0 0" fill="" p-id="12752"></path></svg>