<?xml version="1.0" standalone="no"?><!DOCTYPE svg PUBLIC "-//W3C//DTD SVG 1.1//EN" "http://www.w3.org/Graphics/SVG/1.1/DTD/svg11.dtd"><svg t="1563178885718" class="icon" viewBox="0 0 1024 1024" version="1.1" xmlns="http://www.w3.org/2000/svg" p-id="10192" xmlns:xlink="http://www.w3.org/1999/xlink" width="200" height="200"><defs><style type="text/css"></style></defs><path d="M824.5377858370368 534.5417949234568H199.71982727901246c-8.471458449382714 0-15.344162133333333-6.872703683950617-15.344162133333333-15.357107516049382s6.872703683950617-15.357107516049382 15.344162133333333-15.357107516049382h624.8179585580245c8.471458449382714 0 15.344162133333333 6.872703683950617 15.344162133333333 15.357107516049382s-6.872703683950617 15.357107516049382-15.344162133333333 15.357107516049382zM422.2367162469136 699.9177645827161c-1.3243126518518518 0-2.6745160691358025-0.17476266666666668-4.023424948148147-0.5372333827160494l-222.51688896790125-60.31512715061728c-8.172420108641976-2.2240167506172837-13.020465935802468-10.646282745679011-10.796449185185185-18.83035369876543 2.19942052345679-8.197016335802468 10.571199525925925-13.032116780246914 18.84329908148148-10.808100029629628l222.51688896790125 60.31512715061728c8.172420108641976 2.2240167506172837 13.020465935802468 10.646282745679011 10.796449185185185 18.83035369876543-1.8498951901234566 6.846812918518517-8.046849896296294 11.345333412345676-14.819874133333334 11.345333412345676zM602.0454930962964 699.9177645827161c-6.7730242370370375 0-12.969978943209876-4.49852049382716-14.819874133333334-11.333682567901235-2.2240167506172837-8.184070953086419 2.6240290765432097-16.619282330864195 10.796449185185185-18.84329908148148l222.49229274074074-60.31512715061728c8.247503328395062-2.2486129777777775 16.619282330864195 2.6110836938271604 18.84329908148148 10.796449185185185 2.2240167506172837 8.197016335802468-2.6240290765432097 16.619282330864195-10.796449185185185 18.84329908148148l-222.49229274074074 60.31512715061728c-1.3502034172839505 0.3624707160493827-2.6991122962962963 0.5372333827160494-4.023424948148147 0.5372333827160494z" fill="#F5BC21" p-id="10193"></path><path d="M422.2367162469136 699.9177645827161a15.38558735802469 15.38558735802469 0 0 1-11.970595397530865-5.723153698765432c-5.298545145679012-6.609912414814815-4.2732708345679-16.268462459259258 2.3495869629629627-21.591603832098762l89.8914430419753-72.38540199506173c6.547774577777777-5.298545145679012 16.21927000493827-4.310812444444444 21.591603832098762 2.3236961975308636 5.298545145679012 6.609912414814815 4.2732708345679 16.268462459259258-2.3495869629629627 21.591603832098762l-89.8914430419753 72.38540199506173a15.213413767901237 15.213413767901237 0 0 1-9.6210084345679 3.399457501234567z" fill="#F5BC21" p-id="10194"></path><path d="M602.0454930962964 699.9177645827161c-3.398162962962963 0-6.797620464197532-1.1120083753086418-9.6210084345679-3.398162962962963l-89.9160392691358-72.38540199506173c-6.6228577975308625-5.310195990123457-7.64683757037037-14.981691417283951-2.3495869629629627-21.591603832098762 5.3477376-6.634508641975309 15.043829254320988-7.622241343209877 21.591603832098762-2.3236961975308636l89.9160392691358 72.38540199506173c6.6228577975308625 5.310195990123457 7.64683757037037 14.981691417283951 2.3495869629629627 21.591603832098762a15.394649125925925 15.394649125925925 0 0 1-11.970595397530865 5.7218591604938265z" fill="#F5BC21" p-id="10195"></path><path d="M980.0791482469137 534.0045615407408c-14.144125155555557 0-25.590432553086423-11.45795824197531-25.590432553086423-25.590432553086423 0-243.90913390617283-198.4514224987654-442.3476110222221-442.3605564049383-442.3476110222221S69.76760288395059 264.5037005432099 69.76760288395059 508.41412898765435c0 14.13247431111111-11.446307397530864 25.590432553086423-25.590432553086423 25.590432553086423s-25.590432553086423-11.45795824197531-25.590432553086423-25.590432553086423c0-272.1365409185185 221.39322974814812-493.52847612839497 493.54142151111114-493.52847612839497s493.5427160493827 221.39193520987655 493.5427160493827 493.52847612839497c0 14.131179772839504-11.446307397530864 25.590432553086423-25.59172709135802 25.590432553086423z" fill="#9295A8" p-id="10196"></path><path d="M44.177170330864215 786.0977664000001c-14.144125155555557 0-25.590432553086423-11.45795824197531-25.590432553086423-25.590432553086423V508.41412898765435c0-14.13247431111111 11.446307397530864-25.590432553086423 25.590432553086423-25.590432553086423s25.590432553086423 11.45795824197531 25.590432553086423 25.590432553086423v252.0932048592592c0 14.13247431111111-11.445012859259258 25.590432553086423-25.590432553086423 25.590432553086423zM980.0791482469137 786.0977664000001c-14.144125155555557 0-25.590432553086423-11.45795824197531-25.590432553086423-25.590432553086423V508.41412898765435c0-14.13247431111111 11.446307397530864-25.590432553086423 25.590432553086423-25.590432553086423 14.145419693827158 0 25.590432553086423 11.45795824197531 25.590432553086423 25.590432553086423v252.0932048592592c0.0012945382716049384 14.13247431111111-11.445012859259258 25.590432553086423-25.590432553086423 25.590432553086423z" fill="#9295A8" p-id="10197"></path><path d="M156.03563330370378 893.2078629925927c-29.23973594074074 0-54.279989728395066-18.09376142222222-64.37609370864196-43.971581471604935-42.2847981037037-8.384724385185185-73.07280181728396-39.6102820345679-73.07280181728396-77.2839348148148V598.2175434271605c0-37.67365278024691 30.788003713580245-68.91215581234567 73.07280181728396-77.29688019753085 10.096103980246914-25.864874666666665 35.13635776790123-43.95863608888889 64.37609370864196-43.95863608888889 38.18628993580247 0 69.27462652839505 31.07539120987654 69.27462652839505 69.261681145679V823.944887308642c0 38.187584474074065-31.088336592592594 69.26297568395061-69.27462652839505 69.26297568395061z m0-365.06367620740735c-9.6210084345679 0-17.49309566419753 7.597645116049382-17.917704217283948 17.293736770370366-0.5993712197530864 13.482616098765428-11.545986844444446 24.19103668148148-25.040253787654322 24.465478795061728-25.915361659259254 0.524288-43.3087778765432 15.069720019753087-43.3087778765432 28.31414107654321v173.73480327901234c0 13.245715595061725 17.39341621728395 27.77690769382716 43.3087778765432 28.302490232098766 13.495561481481483 0.2744421135802469 24.44088256790123 10.982862696296294 25.040253787654322 24.465478795061728 0.4246085530864197 9.709037037037037 8.296695782716048 17.306682153086417 17.917704217283948 17.306682153086417 9.971828306172842 0 18.09376142222222-8.108987733333333 18.09376142222222-18.08081603950617V546.2250028246913c0-9.971828306172842-8.121933116049382-18.08081603950617-18.09376142222222-18.08081603950617zM868.2206852740743 893.2078629925927c-38.18628993580247 0-69.27462652839505-31.07539120987654-69.27462652839505-69.261681145679V546.2250028246913c0-38.18628993580247 31.088336592592594-69.261681145679 69.27462652839505-69.261681145679 29.23973594074074 0 54.279989728395066 18.09376142222222 64.37609370864196 43.95863608888889 42.2847981037037 8.384724385185185 73.07280181728396 39.62322741728395 73.07280181728396 77.29688019753085v173.73480327901234c0 37.67365278024691-30.788003713580245 68.89921042962963-73.07280181728396 77.2839348148148-10.096103980246914 25.876525511111108-35.13635776790123 43.970286933333334-64.37609370864196 43.970286933333334z m0-365.06367620740735c-9.971828306172842 0-18.09376142222222 8.108987733333333-18.09376142222222 18.08081603950617v277.72117902222215c0 9.971828306172842 8.121933116049382 18.08081603950617 18.09376142222222 18.08081603950617 9.6210084345679 0 17.49309566419753-7.597645116049382 17.917704217283948-17.306682153086417 0.5993712197530864-13.482616098765428 11.545986844444446-24.19103668148148 25.040253787654322-24.465478795061728 25.915361659259254-0.524288 43.3087778765432-15.056774637037035 43.3087778765432-28.302490232098766V598.2175434271605c0-13.245715595061725-17.39341621728395-27.789853076543203-43.3087778765432-28.31414107654321-13.494266943209876-0.2744421135802469-24.44088256790123-10.982862696296294-25.040253787654322-24.465478795061728-0.42331401481481484-9.697386192592592-8.295401244444445-17.293736770370366-17.917704217283948-17.293736770370366z" fill="#9295A8" p-id="10198"></path><path d="M124.29743849876547 869.1165057580249c-8.471458449382714 0-15.344162133333333-6.872703683950617-15.344162133333333-15.357107516049382V516.397546508642c0-8.484403832098765 6.872703683950617-15.357107516049382 15.344162133333333-15.357107516049382s15.344162133333333 6.872703683950617 15.344162133333333 15.357107516049382v337.3618517333333c0 8.48569837037037-6.871409145679012 15.357107516049382-15.344162133333333 15.357107516049382zM900.0093670716049 855.9847095308644c-8.471458449382714 0-15.344162133333333-6.872703683950617-15.344162133333333-15.357107516049382V529.54358265679c0-8.484403832098765 6.872703683950617-15.357107516049382 15.344162133333333-15.357107516049382s15.344162133333333 6.872703683950617 15.344162133333333 15.357107516049382v311.08401935802465c0 8.484403832098765-6.872703683950617 15.357107516049382-15.344162133333333 15.357107516049382zM511.90420416790124 1009.0897509135802c-186.2555774419753 0-337.77480944197526-151.54382822716047-337.77480944197526-337.7864602864197V500.4410677728396c0-186.24263205925922 151.51923200000002-337.77480944197526 337.77480944197526-337.77480944197526s337.77480944197526 151.53088284444445 337.77480944197526 337.77480944197526v170.8609283160494c-0.0012945382716049384 186.24392659753084-151.51923200000002 337.7877548246914-337.77480944197526 337.7877548246914z m0-795.2413329382715c-158.01651958518516 0-286.5939443358024 128.56447936790124-286.5939443358024 286.5939443358024v170.8609283160494c0 158.0281704296296 128.57742475061727 286.5939443358024 286.5939443358024 286.5939443358024s286.5939443358024-128.56447936790124 286.5939443358024-286.5939443358024V500.4410677728396c-0.0012945382716049384-158.0281704296296-128.57742475061727-286.59264979753084-286.5939443358024-286.59264979753084z" fill="#9295A8" p-id="10199"></path><path d="M511.90420416790124 869.1165057580249c-32.86314856296296 0-59.60313110123456-26.7399825382716-59.60313110123456-59.60313110123456 0-32.86314856296296 26.7399825382716-59.60313110123456 59.60313110123456-59.60313110123456s59.577240335802465 26.7399825382716 59.577240335802465 59.60313110123456c0 32.86314856296296-26.71538631111111 59.60313110123456-59.577240335802465 59.60313110123456z m0-88.49204717037037c-15.943533353086421 0-28.914806834567898 12.957033560493826-28.914806834567898 28.888916069135803s12.969978943209876 28.888916069135803 28.914806834567898 28.888916069135803c15.918937125925924 0 28.888916069135803-12.958328098765433 28.888916069135803-28.888916069135803s-12.969978943209876-28.888916069135803-28.888916069135803-28.888916069135803z" fill="#9295A8" p-id="10200"></path><path d="M820.7642067753088 824.8704821728393H556.1372823703704c-8.471458449382714 0-15.344162133333333-6.872703683950617-15.344162133333333-15.357107516049382s6.872703683950617-15.357107516049382 15.344162133333333-15.357107516049382h264.6269244049383c8.471458449382714 0 15.344162133333333 6.872703683950617 15.344162133333333 15.357107516049382s-6.872703683950617 15.357107516049382-15.344162133333333 15.357107516049382zM819.0398817975309 459.6812357530864h-614.2713552592593c-8.471458449382714 0-15.344162133333333-6.872703683950617-15.344162133333333-15.357107516049382s6.872703683950617-15.357107516049382 15.344162133333333-15.357107516049382h614.2713552592593c8.471458449382714 0 15.344162133333333 6.872703683950617 15.344162133333333 15.357107516049382s-6.872703683950617 15.357107516049382-15.344162133333333 15.357107516049382z" fill="#9295A8" p-id="10201"></path></svg>