<?xml version="1.0" standalone="no"?><!DOCTYPE svg PUBLIC "-//W3C//DTD SVG 1.1//EN" "http://www.w3.org/Graphics/SVG/1.1/DTD/svg11.dtd"><svg t="1557802735760" class="icon" style="" viewBox="0 0 1024 1024" version="1.1" xmlns="http://www.w3.org/2000/svg" p-id="6809" xmlns:xlink="http://www.w3.org/1999/xlink" width="200" height="200"><defs><style type="text/css"></style></defs><path d="M487.488 704 288 704c-17.696 0-32 14.304-32 32s14.304 32 32 32l200.064 0c-1.44-32-2.368-22.304-2.368-33.792C485.696 724 486.368 704 487.488 704z" p-id="6810"></path><path d="M157.728 576C141.312 576 128 546.656 128 530.272L128 141.728C128 125.344 141.312 128 157.728 128l676.576 0C850.688 128 864 125.344 864 141.728l0 335.68c23.392 10.944 44.896 25.12 64 42.112L928 141.728C928 90.016 885.92 64 834.272 64L157.728 64C106.048 64 64 90.016 64 141.728l0 388.576C64 581.984 106.048 640 157.728 640l345.472 0c8.736-32 20.576-64 35.04-64L157.728 576z" p-id="6811"></path><path d="M506.304 161.76c-97.344 0-176.352 78.976-176.352 176.384 0 97.408 79.008 176.384 176.352 176.384 97.44 0 176.416-78.976 176.416-176.384C682.72 240.736 603.744 161.76 506.304 161.76zM622.912 266.848c0.256-0.192 0.384-0.48 0.416-0.736 0.064-0.288 0.128-0.576 0.128-0.896l0.128-1.856c0.064 0.096 0.256 0.256 0.352 0.416 2.912 2.592 2.912 2.592 3.616 2.592 0.256 0 0.48-0.032 0.672-0.16 0.32-0.096 0.48-0.288 0.672-0.448 0.224-0.448 0.544-0.768 0.704-1.12 0.096 0.096 0.256 0.224 0.384 0.352l4.512 3.072c0.32 0.544 0.64 1.12 0.896 1.696l-0.992 0.16c-1.952-1.312-2.016-1.408-2.592-1.408-0.128 0-0.448 0.096-0.544 0.096-0.96 0.384-2.016 0.736-3.104 1.152-0.864 0.352-1.792 0.672-2.624 0.992l-0.864-0.064L622.976 268.8c-0.064-0.064-0.128-0.16-0.128-0.224 0.128-0.224 0.192-0.544 0.192-0.864L622.912 266.848zM622.496 281.664c0-0.224-0.064-0.416-0.256-0.608l-0.224-0.384c0.128 0.224 0.352 0.384 0.48 0.608 0.352 0.384 0.672 0.736 0.768 0.768l1.472 3.008c-0.768-0.064-1.6-0.096-2.368-0.128l-0.704-0.064 0.576-0.608c0.32-0.256 0.512-0.608 0.512-0.992C622.752 282.528 622.592 282.112 622.496 281.664zM587.968 240.352l0.576-0.192c0.608-0.192 1.024-0.736 0.928-1.376l-0.096-3.072 0.48-1.216 0.768-3.232L590.624 230.88l2.464 1.088c0.224 0.064 0.544 0.096 0.896 0 0.256 0.896 0.608 1.472 0.928 2.08 0.064 0.16 0.192 0.256 0.288 0.384 0.192 0.096 0.32 0.224 0.48 0.32-0.096 0.288-0.096 0.608 0 0.864l1.024 2.88c-1.024-0.32-2.432 0-3.552 0.288-0.288 0.096-0.672 0.16-0.928 0.224-0.064 0.032-0.224 0.064-0.32 0.096l-3.424 1.344c-0.192 0.064-0.256 0.096-0.384 0.192l-0.672-0.128C587.552 240.448 587.744 240.384 587.968 240.352zM469.248 196.864c0 0.224 0.032 0.416 0.096 0.576l0 0.032 0 0.096c-0.192-0.224-0.384-0.352-0.832-0.48C468.736 196.992 468.992 196.928 469.248 196.864zM459.232 211.104c0.576 0.224 1.184 0.416 1.952 0.64l-1.952 1.664c-0.064 0.064-0.256 0.192-0.288 0.256l-0.96 1.28-2.976 0.032L459.232 211.104zM452.736 221.536c-0.064-0.032-0.224-0.16-0.32-0.224l-1.216-0.64c0.832 0.416 1.184 0.256 4.288-0.256l0.416 0.288-0.256 0.384c-0.928 1.408-0.544 1.696 4.096 4.8 0 0 0.064 0.032 0.064 0.064l-4.544 2.464-0.384-0.32 1.056-1.056c0.512-0.512 0.576-1.344 0.096-1.888L452.736 221.536zM449.216 216.832 449.216 216.32l4.448-0.832c-0.192 0.16-0.48 0.32-0.896 0.576 0 0-0.224 0.256-0.32 0.288l-1.76 2.048c-0.192 0.256-0.608 0.96-0.192 1.728 0.128 0.16 0.32 0.32 0.544 0.48L449.088 219.52c-0.128-0.032-0.192-0.096-0.384-0.128L449.216 216.832zM421.984 229.568c0.32-0.224 0.512-0.544 0.512-0.96l0.032-0.64 4.512-3.264c1.568-0.608 3.328-1.312 5.056-1.984l3.936-1.568c0.192-0.064 0.384-0.16 0.512-0.288 0.032-0.128 0.224-0.256 0.288-0.32 0.288-0.192 0.416-0.48 0.544-0.768l2.304 0-0.064 0.448c-0.128 0.672 0.288 1.312 0.928 1.536 0.896 0.288 1.568 0.288 2.048 0.288 0.192 0 0.608-0.096 0.704-0.16l0.928-0.352 0.256 0.064c-0.96 0.96-1.856 2.08-2.688 3.168-0.544 0.736-1.056 1.408-1.504 2.016l-2.944 1.056c-0.288 0.128-0.544 0.32-0.704 0.608l-3.232 5.152L426.88 235.872c-0.384 0.096-0.704 0.32-0.896 0.64-0.128 0.192-0.256 0.416-0.352 0.64 0-0.064 0-0.064-0.064-0.096l-1.856-2.944-1.088-3.52c-0.032-0.416-0.384-0.736-0.736-0.864L421.984 229.568zM356.32 350.624 352 350.72c0 0 0 0.128 0 0.192l7.936 10.176c0 0.032 2.432 0.352 2.496 0.416l1.952 0.96c0.352 0.48 1.632 0.64 2.144 0.384l0.608-6.272L368.672 352l0.096 0c0.128 0 0.384 6.816 0.704 7.008 0.288 0.128 0.48 3.36 0.608 3.424 0.192 0.064 0.352 1.664 0.48 1.696l1.824 3.264c0.384 0.544 1.088 1.152 1.696 0.928l1.92-0.672c0.288-0.096 0.544-0.256 0.672-0.544l0.736 1.152c0.544 3.84 1.248 7.712 1.984 11.52l-0.544 2.592-0.704 2.528-1.12 5.6c-0.096 0.16-0.096 0.384 0 0.512 0 0 0.064 0.384 0.064 0.448 0.352 1.248 0.704 2.592 1.12 3.84l0.096 0.448c0.096 0.192 0.192 0.384 0.352 0.544 0.16 0.096 0.288 0.224 0.576 0.544 0 0 0.064 0.064 0.128 0.064l-0.128 0.32c-0.192 0.288-0.256 0.608-0.192 0.896 0 0.128 0.128 0.544 0.192 0.672l2.784 6.112c0.064 0.096 0.128 0.224 0.256 0.32l5.504 4.672 2.656 4.096c0.064 0.096 0.32 0.384 0.384 0.448 0.096 0.096 0.224 0.256 0.224 0.256 4.16 5.472 10.208 12.704 11.264 13.472l7.552 4.096c0.128 0 0.192 0.064 0.32 0.064 0.704 0.48 1.408 0.896 3.904 2.336l0.768 0.736c3.008 4.576 7.392 11.232 10.976 16.192 6.016 7.616 6.464 11.04 11.776 16.544C393.92 445.664 360.672 401.888 356.32 350.624zM368.48 327.84c0.192 0.672 0.512 0.864 1.024 1.216 0.352 0.192 0.736 0.224 1.12 0.064 0.032-0.032 0.352-0.096 0.416-0.16-0.128 1.6 0.48 3.2 1.664 4.032 0.544 0.384 1.184 0.64 1.856 0.64 1.888 0 3.552-1.696 3.776-3.84 0.128-0.768-2.72-1.504-2.88-2.144l-2.08 0.608 0 0.832 2.656 1.216c0.128 0.704 1.856 1.248 2.56 1.6 0.032 0.064 0.864 0.096 1.024 0.096 0.128 0.064 4.608 0.064 4.736 0.064l8.48-0.672 0 0.288c0 0.096-3.776 0.16-3.776 0.224-0.352 0.448-2.368 0.96-2.368 1.44-0.224-0.224-1.504-0.416-1.728-0.48-1.024-0.288-2.688-0.512-3.808-0.704l-1.728-0.256-0.224 0.064c-0.224-0.064-0.512-0.064-0.608-0.064-0.672 0.096-0.768 0.32-2.112 1.856-0.352 0.48-0.512 0.992-0.384 1.568 0.064 0.512 0.32 0.928 0.64 1.152 0.704 0.608 1.6 1.12 2.432 1.568l0.864 0.512c0.192 0.128 0.32 0.16 0.512 0.192l0.224 0.064c0.128 0.032 0.288 0.032 0.48 0 0.128-0.032 0.416-0.096 0.512-0.128l2.336-0.896c0.128-0.064 4.032-0.16 4.16-0.224 0.48-0.352 4.608-0.832 4.608-1.632l0-0.928c0 0.48-1.632 0.672 2.336 1.344 0.064 0-1.536-0.064-1.504-0.064 0.096 0-1.504-0.128-1.472-0.128l0.064 0c0.064 0 0.064 0 0.128 0l6.688 0c0.064 0 0.128 0 0.192 0 0.288 0 0.864 0 1.6 0l4.256 0 0.064 0c0.544 0 0.96 0.32 1.248 0.064 0.128 0.064 0.192 0.448 0.256 0.48 0.288 0.224 0.544 0.608 0.832 0.896 0.416 0.288 0.8 0.544 1.216 0.544 0.064 0 1.664-0.064 1.76-0.096l1.856-0.256 0 0.384c0 0.736 0.064 1.28 0.704 1.6-0.192 0.288-0.704 0.608-0.704 0.992l0 2.72-0.608 0.896c0.096 1.024 0.608 1.44 0.608 1.6l0 0.928c0 0.032 0.096 0.032 0.128 0.032-0.192 0.288-0.256 0.672-0.256 1.056 0 0.736 0.032 1.504 0.064 2.304 0.064 0.544 0.352 0.992 0.768 1.312 0 0.48 0.032 0.896 0.032 1.312 0 0.064 0 0.096 0.096 0.128-0.256 0.32-0.672 0.768-0.672 1.28 0.032 0.544-0.16 1.12-0.16 1.76l0 0.448c0 0.736 0 1.568 0 1.728l0 0.096 1.184 0.928-2.176-2.432c-0.128-0.096 0.064-0.128-0.064-0.128l-4.896-1.056c-0.16 0-0.352 0-0.544 0l-0.416 0c-0.16 0.032-0.256 0.064-0.416 0.128l-0.896 0.448-5.312-1.344-3.264-3.936c-0.096-0.16-0.288-0.288-0.48-0.384l-0.352-0.16c-0.544-0.32-1.184-0.192-1.6 0.224l-1.024 0.928-0.768-0.416c-0.352-0.224-0.768-0.416-1.056-0.608-0.512-0.224-0.96-0.224-1.376 0l-6.336 3.488c-0.128 0.096-0.48 0.384-0.544 0.48-0.128 0.16-0.192 0.288-0.224 0.448l-2.048 4.608-1.856-1.28c-0.192-0.096-0.416-1.376-0.576-1.408l-0.448-1.216c-0.064 0-0.096 0-0.096 0-0.16 0-0.192 0-0.256 0l-3.904 1.824-0.544-1.824 1.216-11.232 0-0.896c0-0.256-0.832-0.544-0.96-0.736-0.64-1.12-2.112-2.368-3.04-3.392l-0.544-0.48c-0.096-0.128-0.608-0.416-0.736-0.512-0.16-0.064 4.224-0.128 4.032-0.16l1.216-0.672 0-0.064 0-2.88-0.64-10.016c0.128 0.128-1.984 0.192-1.856 0.288l-1.344 0.64C369.344 326.08 368.192 326.24 368.48 327.84zM595.52 407.552l-1.792 9.6-2.912 2.592-1.6 3.84-0.896 0.32c-0.032 0.064-0.48 0.32-0.576 0.416-0.192 0.16-0.32 0.384-0.48 0.544-0.672 1.856-5.952 3.456-6.624 5.088C580.608 430.08 576 430.496 576 430.656l0 0.48 5.44 3.52c-1.536 5.664-1.216 12.096-2.752 16.512-0.064 0.032 1.024 0.224 1.024 0.32l0.352 1.088-0.96 3.232c-0.544 1.152-0.64 1.6-1.6 3.488l-1.312 1.344c-0.832 0.896-1.44 2.176-2.016 3.328l-0.512 0.896c-0.192 0.352-0.16 0.768-0.032 1.12 0.128 0.384 0.416 0.672 0.768 0.8 0.192 0.064 0.384 0.128 0.544 0.192-20.48 10.944-43.84 17.152-68.64 17.152-13.504 0-26.624-1.888-39.072-5.344-0.544-0.608-1.056-1.248-1.568-1.888-0.128-0.16-0.256-0.32-0.448-0.384l-0.352-0.224c0.352-0.448 0.352-1.024 0.096-1.504-0.096-0.224-0.128-0.352-0.288-0.512l8.224-1.28C473.248 472.864 480 472.384 480 472c0-0.16 0-0.32 0-0.48l-6.88-2.912c-0.064-0.288-3.392-0.544-3.616-0.736-0.32-0.32-2.176-0.544-2.56-0.736l-0.512-0.128c0.32-0.064 0.288-0.448 0.448-0.672 0.096-0.128 0-0.288 0-0.416l0.576-2.208 0.288-0.384c0.16-0.224 0.192-0.416 0.256-0.608l0.576-2.816 5.664-0.224C474.304 459.552 480 459.2 480 459.04s0-0.352 0-0.512l0-1.472L480 456.96c0-0.384-4.864-0.96-5.12-1.44l-5.408-7.04c3.136-1.728 6.592-3.84 9.536-5.376C479.36 442.88 480 442.528 480 442.08l0-2.176c0-3.2-0.064-6.912 0.416-9.856 0.064-0.16-0.544-0.48-0.544-0.64l-2.176-8.096 0.736-0.96 1.216-0.544c0.16-0.064 0.32-0.16 0.416-0.288l0.288-0.32c0.128-0.096-1.312-0.256-1.248-0.32L480 414.432c0-0.032 0-0.064 0-0.096l4.192-4.832c0.128-0.128 0.928-0.64 0.928-0.8 0.096-0.16 0.384-0.32 0.384-0.416l-1.28-7.584c-0.128-0.448-0.256-0.768-0.576-0.96-4-2.016-9.184-4.64-13.504-6.656 0-0.032-0.32-0.096-0.384-0.128l-10.72-1.44-3.712-1.44-4.16-3.072-0.416-0.192-0.96-0.416 0.128-0.224c0.256-0.416 0.128-1.024-0.032-1.44-0.128-0.224-0.256-0.256-0.384-0.416C449.248 384 448.704 384 448.384 384l-0.192 0-3.136-2.816-3.904-5.696c-0.064-0.224-0.128-0.48-0.32-0.64L440.416 374.4c-0.128-0.192-0.352-0.352-0.544-0.448l-6.72-3.04-2.08-1.664c-0.288-0.256-0.672-0.384-1.056-0.32l-4.096 0.576-5.024-4.768c0.32 0.032 0.352 0 0.608-0.096l0.352-0.096c0.512-0.224 0.8-0.704 0.832-1.152 0.128-1.024 0.128-1.824 0.128-2.496l-2.88-1.344C420.128 359.328 416 358.944 416 358.56l0-0.672c0-0.736 2.432-1.344 1.728-1.376C415.936 356.384 416 356.32 416 356.288l0-0.224c0-0.32 1.28-0.32 0.672-1.952 0.544-0.352 1.568-0.928 1.568-1.6 0-0.32 0.32-0.352-0.544-2.592-0.064-0.384-0.032-0.928-0.384-1.984 0.16-0.128 0.448-0.32 0.608-0.544 0.416-0.768 0.256-1.344-0.512-3.648-0.064-0.096-0.064-0.16-0.128-0.224 0.128-0.32 0.16-0.704 0.032-1.024 0.672-0.32 1.184-0.928 1.216-1.76 0-0.32-0.32-0.32-1.056-2.72C417.216 337.44 416 337.12 416 336.992l0-0.128c0-0.544 0.224 7.552-0.128 7.136C415.488 343.584 415.36 352 414.752 352l-0.448 0c-0.192 0-0.64-9.952-1.504-10.176-1.184-0.32-2.656-4.864-4.096-5.152-0.672-0.096-1.344-2.4-1.792-2.464-0.192-0.064-0.608-1.152-0.864-1.12-0.48 0.096-0.896-0.224-1.12 0.128-0.544-0.384-1.152-1.024-1.6-1.44l-1.184-1.024c-0.32-0.256-8.672-0.64-8.992-0.544C392.544 330.208 384 330.464 384 331.072l0-0.064 3.552-2.272 2.016-0.672c-0.256-0.096 1.44 4.032 0.896 3.872-0.192-0.032 0.864 12.16 0.64 12.16L391.616 352l-1.088 0c-0.128 0-0.288-12.096-0.48-12.064-0.064 0.032-0.352-5.888-0.448-5.888l-0.16-2.912c0-0.064-2.752-1.568-2.752-1.568 0-0.064-2.72-1.664-2.72-1.76L383.968 352l7.008 0 0.128 0c1.056 0 1.728-13.056 1.792-13.696 0.128-0.672 0.128-6.72-1.12-9.696-0.384-0.768-1.248-4.32-2.048-4.064-0.32 0.064-0.768-1.28-1.28-0.608-0.288 0.544-0.576 0.448-0.864 1.024l-0.192-0.064c-1.408-0.992-3.072-2.304-4.672-3.392C380.48 320 378.144 320.064 376.32 318.688 376.064 318.528 375.52 320 375.296 320c-0.192 0-0.32 0-0.416 0l-4-0.832c-0.128 0.032-0.288-0.768-0.416-0.704-0.704 0.256-0.704-0.192-2.656 4.128-0.192-0.192-0.448-0.512-0.672-0.608-0.256-0.064-0.416-0.256-0.672-0.192l-5.376-5.664C361.92 308.736 363.264 320 365.152 288l0.448 0 3.072 9.376c0.416 0.416 1.12 3.68 1.664 3.392 1.248-0.704 1.728-0.544 2.048-1.856l3.936 2.144-0.512 11.52c0 0.544 0.32 1.248 0.8 1.472 1.152 0.64 2.016 0.736 2.56 0.736 0.384 0 0.736-0.064 0.96-0.32l0.544-0.512c0 0.16 0.064 0.384 0.064 0.448l0.608 3.008C381.472 317.92 381.824 320 383.072 320l1.792 0 0.192 0c0.832 0 1.472-1.952 1.6-2.656 0.16-0.48 0.16 3.52-0.512 0.032C385.952 316.544 385.248 320 384.416 320l-1.408 0 1.056-8.192c0.352-2.368 0.704-10.176 1.12-12.48L388.576 288l0.32 0c0.224 0 0.416 3.136 0.608 3.04l4.16-1.12c2.272-1.6 4.832-2.528 6.944-3.968 0.16-0.064 0.288 0.192 0.416 0.064 0.288-0.544 0.48-0.544 0.544-0.864 0.352-1.568 0.704-3.072 1.12-4.608 0.064 0.032 0.096 0.224 0.288 0.288 0.544 0.48 1.376 0.48 1.856-0.032l5.952-5.952c0.128-0.064 0.32-0.224 0.352-0.352l0.768-1.28 6.336-0.672c0.352 0 0.608-0.16 0.864-0.416L420.8 270.08c0.384-0.384 0.48-0.896 0.32-1.408l-0.128-5.632L422.24 256l1.216 0c0.192 0 0.32 5.312 0.448 5.248 0.032 0 0.448 2.496 0.544 2.464l4.576-0.896-0.32 1.824c-0.064 0.416 0 1.184 0.32 1.536l0.352 0.608c0.416 0.448 1.056 0.704 1.536 0.48 2.336-0.832 5.056-1.888 7.648-2.816l2.72-1.056c0.256-0.064 0.448-0.16 0.544-0.32l0.48-3.616C442.304 259.392 442.4 256 442.432 256l1.6 0 0.096 0c0.64 0 0.736 3.008 2.656 1.696 0.128-0.192 0.352 1.024 0.416 0.832 0.352-0.768 0.128-0.608-0.416-1.184l0.416-1.536c0.064-0.416-0.128-0.896-0.416-1.216-0.384-0.384-0.768-0.448-1.568-0.512-0.768 0.064-0.8 0.064-4.928 4.448l-1.024-1.12c0.096-0.544 0.288-1.088 0.416-1.632 0.352 0 0.704-0.128 0.992-0.384l1.984-1.92c0.32-0.288 0.448-0.96 0.448-1.408l-0.096 2.144C442.944 254.016 442.816 256 442.56 256l6.336 0-0.064-2.496C448.608 253.632 448 252.768 447.968 253.536 447.904 253.984 448 253.696 448.32 254.016l-0.768 0.896c-0.192 0.384-0.224 0.96-0.064 1.376 0.448 0.768 0.736 0.8 4.736 1.472l0.352-0.864C452.736 257.088 453.12 256 454.176 256l1.344 0c0.416 0 0.608-0.128 1.024-0.448C456.768 255.776 457.216 256 457.664 256l1.216 0 0.288 0c0.608 0 0.608 1.568 3.328-0.384 0.16-0.128 0.512 0.384 0.64-0.192 0.064-0.352 0.128-0.256 0.192-0.736 0-0.736-0.256-0.928-0.864-1.28l0.352-0.512c0.192-0.352 0.224-0.896 0.064-1.248-0.192-0.544-0.416-0.704-1.472-1.216l2.208-1.824c0.544-0.544 0.768-1.312 0.48-2.016-0.16-0.416-0.48-0.704-0.864-0.896l1.408-2.016c0-0.032 0.096-0.096 0.096-0.128 0.224-0.352 0.288-0.736 0.192-1.12-0.16-0.512-0.544-0.864-1.024-0.96l-2.912-0.736c0.032-0.128 0.128-0.256 0.192-0.384 0.352-1.088 0.544-1.92 0.8-2.72l0.128-0.352c0.128-0.576-6.592-1.216-7.136-1.568L448 235.424c0-0.096 0-0.224 0-0.32l6.88-1.056c0.576-4.16 4.32-6.24 4.32-6.368 0.128-0.576 1.536-1.184 0.992-1.504l0.544-0.224c0.544-0.16 1.12-0.384 2.272-2.464 0.128 0.064 0.448 0.256 0.576 0.256C463.68 223.744 464.256 224 464.384 224l0.864 0c0.832 0 0.896-0.192 4.352-3.744 0.288 0.128 0.608 0.192 0.832 0.192 0.672 0 0.864-0.192 6.56-3.2 0.064-0.032 0.16-0.16 0.288-0.192 0.256-0.224 0.608-0.736 0.608-1.088 0.128-0.704 0.192-0.736-2.976-4.544l1.568-1.76c0.48-0.928 0.48-0.928-2.496-5.248-0.128-0.16-0.352-0.352-0.48-0.448-0.064-0.096-0.192-0.128-0.32-0.192l-0.192-0.096c0.384-0.224 0.832-0.736 1.888-1.824 0-0.064 0.032-0.128 0.128-0.16 0.224 0.064 0.384 0.064 0.64 0 1.376-0.288 2.752-4.736 3.936-5.568C479.904 196 480.224 192 480.576 192l0.48 0c0.128 0 0.352 3.552 0.48 3.488l2.24 1.28c0.32-0.16 0.608 0.48 0.896 0.064L482.24 197.6c0 0.224-2.24 0.896-2.24 1.056L480 198.72c0 0.32 2.24 0.576 2.176 0.896-0.064 0.16-1.504 0.448-1.504 0.608C480.672 200.352 480 200.512 480 200.608l0 0.928c0 0.32 3.072-4.608 3.296-4.448C483.488 197.248 486.24 192 486.496 192c1.28 0 2.528 0 3.456 0l1.312 5.568 0.288 3.456-1.056 4.224c-0.128 0.224-0.064 1.376-0.064 1.6 0.064 0.288 0.192 0.896 0.448 1.152-0.192 0.352-0.192 0.896 0 1.28 0.096 0.288 0.352 0.704 0.48 0.96l0.224 6.944C491.712 217.312 491.744 224 491.936 224L489.92 224c-0.736 0-0.736-6.304-3.712-3.744C485.984 220.448 485.76 217.6 485.664 217.824c0 0.064-0.064-1.408-0.064-1.28l-0.544 2.016c-0.064 0.256 0 0.064 0.064 0.32 0.096 0.288 0.32 0.32 0.48 0.512 0 0.064 0 0.032-0.064 0.096l-0.608 0.192c-0.128 0.064-0.256 0.096-0.352 0.16-0.192 0.128-0.672 0.416-0.832 0.96-0.064 0.256-0.064 0.544 0 0.736l1.6 6.208c0.096 0.32 0.256 0.544 0.512 0.736 0.224 0.224 0.48-2.144 0.672-2.016C486.656 226.496 486.88 224 487.072 224l1.472 0 0.896 4.064c0.064 0.192 0.192 1.6 0.384 1.728 0.48 0.32 1.056 1.152 1.76 1.024l2.848-0.352c0.192-0.032 0.384 0 0.512-0.096l2.048-1.92c1.952-2.016 4.224-4.32 6.016-6.208l4.256-1.536c0.128 0 0.48-0.192 0.576-0.256l0.544 1.44L509.056 224c0.128 0 0.352 0 0.48 0 0.704 0 0.928-1.984 3.328-3.712l4.288 0.448L519.36 224c0.128 0 0.288 0 0.416 0l0.672-3.872c2.72-0.992 6.272-4.192 8.96-5.216 0.096-0.032 0.224-1.056 0.288-1.152 0.608 0 0.992-0.736 1.216-1.184l0.544-1.344c0.32-0.64 0.672-1.44 0.896-2.016 0.128-0.224 0.128-0.512 0.128-0.768-0.064-0.416-0.064-0.64-0.352-0.896 0.352-0.192 0.512-0.608 0.672-0.992l0.672-4.576c0-0.224 0-0.512-0.128-0.736 0.224-0.384 0.224-0.768 0-1.152-0.48-0.928-0.864-1.856-1.344-2.688 0.256-0.064 0.48-0.288 0.608-0.544l0.64 0.16c0.48 0.192 0.96 0.128 1.376-0.224l1.216-0.992c0.16-0.16 0.288-0.416 0.384-0.64 7.52 1.6 14.88 3.744 21.984 6.432 0.32 0.256 0.864 0.48 2.784 1.088 4.896 2.016 9.664 4.224 14.24 6.688L575.008 209.92l-1.344 0.288c-0.288 0.096-0.736 0.448-0.896 0.672-0.096 0.16-0.16 0.352-0.224 0.576l-0.48 0.832c-0.192 0.16-0.384 0.448-0.448 0.704l2.048 0.928C573.568 214.048 576 214.464 576 214.72l0 0.512-2.496 0.832L571.616 221.44c0 0.096-0.608 0.288-0.608 0.48-0.128 0.064-0.608 0.16-0.704 0.288l-3.2 3.744c-0.352 0.448-0.448 1.12-0.096 1.632l4.128 6.208 0.576 1.408c0.128 0.16 0.224-6.112 0.416-6.016C573.056 230.048 574.56 224 575.68 224c0.16 0 0.288 0 0.48 0l-0.32 8.8c-0.064 0.384 0.096 4.032 0.384 4.32l1.216 3.072c0.096 0.128 0.128 1.152 0.192 1.312l-2.176 1.12c-0.192 0.064-0.352 0.384-0.48 0.544-0.064 0.032-0.256 0.32-0.32 0.384l-0.992 1.376c-0.288 0-0.672 0.192-0.896 0.384L571.936 246.08c-0.064 0.096-0.32 0.384-0.352 0.48 0 0.064-0.128 0.32-0.128 0.32l1.92 1.024L576 246.624 576 246.016c0-0.608-2.496-0.608-10.304-7.808l5.344-1.792C570.976 236.352 576 235.968 576 235.872L576 235.456c0-0.096-6.752-0.416-6.752-0.512-0.32-0.576-3.552-0.608-6.112-1.792l-1.952-4.448C560.768 228 558.592 224 557.728 224l-1.984 0C554.432 224 544 231.424 544 237.248l0 0.416c0 0.224 4.672-7.04 4.736-6.912C548.864 231.008 553.632 224 553.824 224l-0.256 0c-0.256 0-0.48 7.424-0.544 7.424-0.128 0-0.608 3.776-0.704 3.84-0.32 0.064-0.608 2.048-0.864 2.272-0.128 0.096-0.256 1.088-0.352 1.12-0.192 0.096-0.384 0.576-0.768 0.768-0.096 0.064-0.288 0.48-0.352 0.512l-0.128 0.192c-0.736 0-1.056 0.384-2.24 1.568-0.224 0.384-0.352 1.024-0.224 1.44l0.352 1.632c0.192 0.416 0.384 0.608 0.896 1.024-0.128 0.064-0.192 0.192-0.192 0.192-0.064 0.192-0.128 0.32-0.192 0.48L547.808 248.96c-0.064 0.544 0.128 1.024 0.48 1.408 0.32 0.288 0.992 0.768 1.984 0.608l3.712-0.768c0.064 0 0.256-0.064 0.384-0.064l3.2-1.504c0.128-0.096 0.224-0.16 0.352-0.256 0.064 0.192 0.128 0.384 0.192 0.608 0 0.096 0 0.096 0.096 0.16l-0.512 0.32c-0.128 0.16-0.32 0.256-0.352 0.416-0.096 0.096-0.256 0.352-0.256 0.416l-0.736 1.856c-0.096 0.512 0 1.856 0.32 2.272C556.992 254.816 557.536 256 558.368 256l1.184 0c0.064 0 0.096 0 0.096 0L576 256.032l0 0.448 0 0.448c0 0.576-8.192 1.152-8.064 1.696 0.128 0.224-3.616-1.216-3.52-1.024C564.704 257.888 561.984 256 562.336 256c0.8 0 0.96 0 1.696 0l7.392 4.32L576 263.424l0 0.672-4.704-2.816C570.112 261.056 565.44 256 560.352 256c-0.032 0-0.416 0-0.416 0-0.448 0-0.8 4.256-2.592 3.936-0.192-0.032-0.48 2.144-0.608 2.208l-0.704 1.248c-0.416 0.096-0.736 0.896-0.896 1.344-0.064 0.192-0.192 0.64-0.352 0.832l-0.896 0.384c-0.384 0.032-0.608 0.288-0.832 0.576-0.064 0.096-0.192 0.256-0.288 0.384-0.256 0.288-0.384 0.736-0.384 1.12 0.32 1.792-3.424 4.16-3.2 5.952L544 279.2l0 0.448c0 0.192 4.192 0.384 4.192 0.736 0 0.352 2.272 0.704 2.496 0.896l1.888 0.768 1.792 3.552c0.352 0.832 1.664 1.344 2.624 1.152l2.624-0.48 1.152 1.216L552.32 294.816c-0.096 0.096-0.32 0.48-0.352 0.608-0.128 0.128-0.128 0.256-0.192 0.384L550.4 301.632 544.448 305.92l-2.72 1.088c-0.384 0.16-0.672 0.384-0.768 0.704-1.088 2.56-3.008 5.632-4.608 8.32-0.736 1.184-1.344 2.336-2.112 3.552l-3.328 7.2c-0.032 0.16-0.096 0.416-0.096 0.608 0.064 0.832 0.064 1.28 0.064 1.728 0 0.192 0.032 0.384 0.16 0.576 0 0.064 0.128 0.416 0.192 0.448l0.864 1.376 0.96 6.816-4.192 8.256c-0.32 0.544-0.192 1.184 0.224 1.6l1.792 1.792c0 0.832-0.064 1.664-0.064 2.528-0.064 0.128-0.064 0.288-0.064 0.448l0.064 0.672c0 0.256 0.064 0.512 0.224 0.736l1.312 2.016 1.984 2.432 4.32 6.144c0.128 0.16 0.256 0.256 0.448 0.416l2.592 2.016 2.016 2.528c0.032 0.064 0.16 0.192 0.224 0.256l0.704 0.608c0.032 0 0.288 0.224 0.288 0.224l0.384 0.32c0.096 0.096 0.288 0.16 0.448 0.192l6.112 3.584 2.048 5.216C554.016 380.384 554.336 384 554.56 384c0.064 0 0.384 0 0.512 0 0.928 0 1.952 0.352 2.784 0l4.576 0 7.04 0c0.064 0 0.448 0.352 0.48 0.288L576.16 384c0.16 0 0.352 0 0.48 0l0.8-4.736c0.192-0.032 0.32-2.4 0.448-2.432l2.592-2.624 2.816-0.608 1.76-0.672 1.472 3.936c0.256 0.608 0.832 0.96 1.472 0.864l4.8-0.448 1.984 2.752 0.32 0.736-3.744 8c-0.16 0.384-0.16 0.768-0.032 1.088l3.264 8.16 6.976 1.792L608 401.472c0 0.032 0 0.352 0 0.352 0 0.224-6.112 0.608-6.08 0.768 0.064 0.224-3.04 0.48-2.944 0.608 0.096 0.224-1.408 0.48-1.344 0.768l-0.608 1.024L595.52 407.552zM599.552 285.536c-0.064-0.32-0.256-0.608-0.544-0.8L597.888 283.84l-2.272-1.344c-0.288-0.192-0.672-0.224-0.992-0.224-0.224 0-0.544 0.032-0.672 0.096l-2.112 0.736-12.8 0.768c-0.064 0-0.384 0.064-0.512 0.096l-8.288 3.04-3.104 0c0.128-0.096 0.192-0.224 0.256-0.32l3.104-0.48c0.096 0 0.256-0.064 0.352-0.128l0.32-0.128c0.128-0.064 0.224-0.128 0.352-0.224l2.592-2.304 0.672-0.672c0.384-0.48 0.768-0.896 1.216-1.28 0.32-0.384 0.544-0.928 0.32-1.472l-1.088-3.36 0.224-0.736 1.248-0.544 0.48 0c0.192 0 0.352 0 0.48-0.032 0.064 0 0.384-0.16 0.416-0.192l1.568-0.736c0.416-0.192 0.704-0.64 0.768-1.056l0.288-2.528 0.16-0.352 4 0.576c0.256 0 0.544-0.096 0.768-0.224l1.92-1.28 0.416 0c-0.128 0.096-0.224 0.256-0.352 0.416-0.192 0.224-0.256 0.224-0.32 0.448 0 0.16-0.096 0.544 0 1.376 0.128 0.48 0.256 0.992 0.352 1.504 0 0.096 0.096 0.224 0.16 0.32 0.096 0.256 0.256 0.448 0.416 0.608-0.064 0.256-0.128 0.576-0.064 0.992l0.256 0.8c0.192 0.896 0.32 1.824 0.576 2.72 0.32 1.184 1.216 1.408 1.632 1.504 0.256 0.064 0.48 0.064 0.704 0 0.096-0.032 0.32-0.064 0.32-0.064l2.016-0.8c0.736-0.256 1.184-0.896 1.184-1.664 0-0.288 0-0.288-0.928-3.328-0.192-0.544-0.608-0.96-1.184-1.152 0.064-0.384 0.192-0.768 0.384-1.28L593.12 271.744l2.464 2.432c0.128 0.096 0.352 0.288 0.48 0.352l5.216 2.88L601.6 277.824l0.448 1.088-3.328-0.544c-0.256-0.032-0.96 0.224-1.248 0.352-0.544 0.224-0.896 0.832-0.832 1.44 0.064 0.448 0.192 0.768 0.32 1.408 0 0.192 0.096 0.448 0.288 0.608 0.928 1.248 2.56 2.208 3.904 3.104 0.192 0.064 0.32 0.16 0.416 0.256l-0.032 0c-0.928 0.128-1.568 0.864-1.568 1.856C599.744 286.72 599.68 286.112 599.552 285.536zM635.072 295.872c-0.544-0.192-1.184 0.032-1.536 0.544l-0.96 1.472-5.248-2.016c-0.192-0.064-0.384-0.128-0.576-0.096-0.8 0.032-1.536 0.032-2.144 0.032l-0.448-0.672c-0.256-0.32-0.608-0.576-0.928-0.64-1.856-0.288-3.104-0.288-4.48-0.288-0.16 0-0.352 0-0.544 0.064-0.032 0.032-0.352 0.16-0.416 0.224l-1.376 0.832c-0.352 0.192-0.544 0.544-0.576 0.896L615.36 298.752l-6.016-3.456c-0.064-0.032-0.416-0.192-0.512-0.224l-6.496-1.568-2.048-0.736c0.096-0.256 0.256-0.544 0.16-0.8-0.064-1.408-0.224-2.688-0.416-3.808 0.192 0.512 0.416 1.024 0.64 1.568 0.192 0.288 0.288 0.608 0.48 1.024 0.48 0.832 1.248 0.992 1.504 1.056 0.16 0.032 0.352 0.032 0.448 0 0.896-0.128 1.024-0.32 2.432-2.528 0.128-0.096 0.224-0.256 0.224-0.416 0.096-0.224 0.096-0.608 0.096-0.8-0.064-0.32-0.096-0.608-0.32-0.8 0.576-0.256 1.088-0.832 1.088-1.632L606.624 283.232c0.352-0.096 0.704-0.416 0.864-0.768l1.312-2.688c0.16-0.384 0.16-0.832 0-1.216l-0.384-0.736 0.192 0c0.352 0 0.672-0.096 0.896-0.288l0.416 0.704c0.064 0.16 0.128 0.288 0.224 0.416 0.192 0.096 0.32 0.192 0.544 0.384 0.192 0.192 0.448 0.288 0.704 0.352l1.728 2.272c0.192 0.256 0.512 0.48 0.768 0.544 0.16 0.064 0.352 0.096 0.544 0.096 0 0.064 0 0.128 0.064 0.16 0.32 0.576 0.736 1.28 1.056 1.952l0.544 0.928c0.128 0.256 0.352 0.512 0.608 0.608l0.352 0.192c0.256 0.16 0.512 0.224 0.768 0.224l1.248 0 0 0.608c0.128 0.32 0.128 0.32 0.928 1.888 0.48 0.768 0.48 0.768 6.208 1.952l0.064 0 0.128 0c1.664-0.16 1.6-1.376 1.408-3.776l0.512 0.448c0.352 0.384 0.832 0.544 1.28 0.384l2.784-0.704c0.192-0.032 0.384-0.096 0.544-0.192l0.224 0.064c-0.224 0.224-0.384 0.48-0.384 0.704-0.128 0.672 0.128 1.408 0.672 1.92 0.128 0.128 0.128 0.128 2.208 1.344 0.128 0.064 0.224 0.128 0.352 0.128l0.128 0.064c0.32 0.064 0.832-0.032 1.12-0.128 0.192-0.096 0.448-0.256 0.544-0.416l0.704-0.896c0.16 0.608 0.288 1.152 0.48 1.696l-0.224 5.632L635.072 295.872z" p-id="6812"></path><path d="M590.752 383.264c-0.672-0.896-1.824-1.44-3.2-1.44 0 0-0.288 0-0.352 0.032-2.016 0.288-3.52 1.6-3.936 3.36-0.384 1.44 0.16 2.88 1.344 3.68 0.672 0.448 1.44 0.672 2.24 0.672 2.016 0 3.904-1.312 4.416-3.2C591.552 385.344 591.36 384.192 590.752 383.264z" p-id="6813"></path><path d="M533.568 226.048l0.16 0c0.48 0 0.48 0 7.808-3.264 0.832-0.576 0.832-1.312 0.704-1.824-0.128-0.384-0.224-0.768-0.416-1.376-0.128-0.192-0.192-0.384-0.384-0.544-0.032-0.032-0.288-0.288-0.288-0.288l-3.04-2.336c-0.224-0.192-0.736-0.416-1.504-0.448l-5.504 0.992-1.152-0.736c-0.256-0.128-0.704-0.224-0.896-0.224-0.416 0-0.864 0.096-3.808 0.672-0.672 0.224-1.056 0.672-1.184 1.184-0.16 0.512 0.096 1.248 0.512 1.632 0.48 0.48 1.12 0.896 1.728 1.248l-0.48 1.056c-0.128 0.352-0.128 0.928 0.064 1.28 0.416 0.768 0.416 0.768 7.232 2.848C533.312 226.016 533.408 226.048 533.568 226.048z" p-id="6814"></path><path d="M512 944 960 944 512 944Z" p-id="6815"></path><path d="M592 944c-8.832 0-16-7.168-16-16L576 608c0-8.832 7.168-16 16-16S608 599.168 608 608l0 320C608 936.832 600.832 944 592 944z" p-id="6816"></path><path d="M688 944c-8.832 0-16-7.168-16-16l0-192c0-8.832 7.168-16 16-16S704 727.168 704 736l0 192C704 936.832 696.832 944 688 944z" p-id="6817"></path><path d="M784 944c-8.832 0-16-7.168-16-16L768 544c0-8.832 7.168-16 16-16S800 535.168 800 544l0 384C800 936.832 792.832 944 784 944z" p-id="6818"></path><path d="M880 944c-8.832 0-16-7.168-16-16L864 576c0-8.832 7.168-16 16-16S896 567.168 896 576l0 352C896 936.832 888.832 944 880 944z" p-id="6819"></path></svg>