<?xml version="1.0" standalone="no"?><!DOCTYPE svg PUBLIC "-//W3C//DTD SVG 1.1//EN" "http://www.w3.org/Graphics/SVG/1.1/DTD/svg11.dtd"><svg t="1563852555473" class="icon" viewBox="0 0 1024 1024" version="1.1" xmlns="http://www.w3.org/2000/svg" p-id="3986" xmlns:xlink="http://www.w3.org/1999/xlink" width="200" height="200"><defs><style type="text/css"></style></defs><path d="M938.7 277.3c11.8 0 21.3-9.6 21.3-21.3V149.3c0-23.5-19.2-42.7-42.7-42.7H106.7c-23.5 0-42.7 19.2-42.7 42.7v725.3c0 23.5 19.2 42.7 42.7 42.7h810.7c23.5 0 42.7-19.2 42.7-42.7v-448c0-11.8-9.6-21.3-21.3-21.3-11.8 0-21.3 9.6-21.3 21.3v64h-512V149.3H896c11.7 0 21.3 9.6 21.3 21.3V256c0 11.8 9.6 21.3 21.4 21.3z m-576 597.4H128c-11.7 0-21.3-9.6-21.3-21.3V170.7c0-11.7 9.6-21.3 21.3-21.3h234.7v725.3z m554.6-341.4v320c0 11.7-9.6 21.3-21.3 21.3H405.3V533.3h512z" fill="#000000" p-id="3987"></path></svg>