<?xml version="1.0" standalone="no"?><!DOCTYPE svg PUBLIC "-//W3C//DTD SVG 1.1//EN" "http://www.w3.org/Graphics/SVG/1.1/DTD/svg11.dtd"><svg t="1563181076043" class="icon" viewBox="0 0 1024 1024" version="1.1" xmlns="http://www.w3.org/2000/svg" p-id="15675" xmlns:xlink="http://www.w3.org/1999/xlink" width="200" height="200"><defs><style type="text/css"></style></defs><path d="M207.872 551.936V264.192H96.256C43.008 264.192 0 307.2 0 359.936v384c0 53.248 43.008 96.256 96.256 96.256v176.128l207.872-176.128h176.128c53.248 0 96.256-43.008 96.256-96.256V711.68H368.128c-88.576 0.512-160.256-71.168-160.256-159.744z" fill="#333333" p-id="15676"></path><path d="M928.256 8.192H368.128c-53.248 0-96.256 43.008-96.256 96.256v448c0 53.248 43.008 96.256 96.256 96.256h256l192 192 79.872-192h32.256c53.248 0 96.256-43.008 96.256-96.256V103.936C1024 51.2 980.992 8.192 928.256 8.192z" fill="#333333" p-id="15677"></path></svg>