<?xml version="1.0" standalone="no"?><!DOCTYPE svg PUBLIC "-//W3C//DTD SVG 1.1//EN" "http://www.w3.org/Graphics/SVG/1.1/DTD/svg11.dtd"><svg t="1563179879307" class="icon" viewBox="0 0 1024 1024" version="1.1" xmlns="http://www.w3.org/2000/svg" p-id="14124" xmlns:xlink="http://www.w3.org/1999/xlink" width="200" height="200"><defs><style type="text/css"></style></defs><path d="M402.432 672.3584c0-7.5776 0.2048-15.1552 0.8192-22.528H166.5024c-16.9984 0-31.1296-13.1072-31.1296-29.2864v-3.8912c0-15.9744 13.9264-29.2864 31.1296-29.2864h246.5792c11.6736-45.056 32.3584-86.4256 60.2112-122.2656H166.5024c-16.9984 0-31.1296-13.1072-31.1296-29.2864V432.128c0-15.9744 13.9264-29.2864 31.1296-29.2864H536.576c56.7296-43.008 127.1808-68.4032 203.776-68.4032 79.2576 0 152.3712 27.4432 209.92 73.1136V160.768c0-45.6704-39.7312-83.1488-88.4736-83.1488H94.6176C45.8752 77.824 6.144 115.0976 6.144 160.768v546.4064C6.144 753.0496 45.8752 790.528 94.6176 790.528h329.1136c-13.7216-36.864-21.2992-76.5952-21.2992-118.1696zM135.5776 247.6032c0-15.9744 13.9264-29.2864 31.1296-29.2864h623.2064c16.9984 0 31.1296 13.1072 31.1296 29.2864v3.8912c0 15.9744-13.9264 29.2864-31.1296 29.2864H166.5024c-16.9984 0-31.1296-13.1072-31.1296-29.2864v-3.8912zM718.848 638.5664h83.1488c4.096-1.4336 5.5296-3.072 4.096-5.12 1.4336-4.9152-1.024-7.3728-7.3728-7.3728h-77.824c-5.5296 0.6144-7.9872 2.8672-7.3728 6.144 0 4.9152 1.8432 7.168 5.3248 6.3488zM719.872 717.6192h26.0096c4.9152-1.4336 5.9392-3.072 3.072-5.12L718.848 686.4896c-3.4816-3.4816-5.12-2.6624-5.12 2.048v18.6368c-0.8192 6.3488 1.2288 9.8304 6.144 10.4448zM721.92 596.992h79.0528c5.5296 0.6144 7.3728-1.6384 5.12-7.3728 0.6144-4.096-1.4336-5.9392-6.144-5.12H718.848c-2.8672-0.6144-4.096 1.024-4.096 5.12-0.8192 5.7344 1.6384 7.9872 7.168 7.3728z" p-id="14125"></path><path d="M738.304 382.976C582.8608 382.976 456.704 509.1328 456.704 664.576S582.8608 946.176 738.304 946.176 1019.904 820.224 1019.904 664.576 893.7472 382.976 738.304 382.976z m-57.9584 183.9104c0-8.3968 3.072-12.4928 9.4208-12.4928h138.24c7.5776-0.6144 11.0592 2.8672 10.4448 10.4448v81.1008c0.6144 15.36-9.4208 23.1424-30.1056 23.9616h-90.5216c-2.8672 2.8672-2.8672 5.5296 0 8.3968h32.1536c9.0112-1.4336 14.1312 0 15.5648 4.096 4.096 2.048 8.3968 2.8672 12.4928 2.048h9.4208c6.144-0.6144 9.6256-1.4336 10.4448-2.048 3.4816-4.096 8.3968-5.5296 14.5408-4.096h18.6368c5.5296 0.6144 7.3728 2.8672 5.12 6.144-2.8672 9.0112-6.9632 16.384-12.4928 21.9136-2.048 1.4336-5.12 2.4576-9.4208 3.072h-6.144c-4.9152 0-6.5536 1.4336-5.12 4.096 2.6624 2.8672 6.9632 4.096 12.4928 4.096h17.6128c5.5296-0.6144 8.3968 1.024 8.3968 5.12v14.5408c1.4336 6.144-2.4576 9.4208-11.4688 9.4208h-34.4064c-8.3968 1.4336-16.384-3.072-23.9616-13.5168l-10.4448-9.4208c-3.4816-4.096-6.5536-4.096-9.4208 0v13.5168c1.4336 6.144-1.4336 9.4208-8.3968 9.4208h-36.4544c-17.408-1.4336-26.4192-9.6256-27.0336-24.9856v-154.8288z m-52.0192-9.4208c1.4336-5.5296 3.072-8.3968 5.12-8.3968h27.0336c4.096 0.6144 5.9392 5.12 5.12 13.5168v18.6368c-1.4336 4.096-4.096 6.5536-8.3968 7.3728h-23.9616c-3.4816 0-5.12-3.072-5.12-9.4208v-21.7088z m214.2208 222.6176h-158.1056c-4.096 0-9.4208-1.6384-15.5648-5.12-2.8672-2.048-5.12-2.8672-7.3728-2.048-9.0112 5.5296-15.36 7.9872-18.6368 7.3728h-12.4928c-3.4816-2.048-5.12-4.096-5.12-6.144v-9.4208c-0.6144-3.4816 0.4096-5.9392 3.072-7.3728 1.4336-0.6144 2.6624-2.8672 4.096-6.144v-118.5792c1.4336-6.144 0.4096-9.6256-3.072-10.4448-4.096-1.4336-5.5296-3.072-4.096-5.12v-11.4688c-0.6144-4.9152 1.6384-7.3728 7.3728-7.3728h26.0096c6.144 0 8.6016 2.4576 7.3728 7.3728V731.136c-0.6144 14.5408 8.6016 21.9136 28.0576 21.9136h150.7328c4.9152 0 7.3728 1.4336 7.3728 4.096v14.5408c0.4096 5.5296-2.6624 8.3968-9.6256 8.3968z" p-id="14126"></path></svg>