<?xml version="1.0" standalone="no"?><!DOCTYPE svg PUBLIC "-//W3C//DTD SVG 1.1//EN" "http://www.w3.org/Graphics/SVG/1.1/DTD/svg11.dtd"><svg t="1563178794382" class="icon" viewBox="0 0 1024 1024" version="1.1" xmlns="http://www.w3.org/2000/svg" p-id="10048" xmlns:xlink="http://www.w3.org/1999/xlink" width="200" height="200"><defs><style type="text/css"></style></defs><path d="M229.376 421.888h438.105088v257.011712H229.376z" fill="#C5C7D4" p-id="10049"></path><path d="M486.197248 519.627776l-101.583872-59.37152a13.914112 13.914112 0 0 0-20.93568 12.015616v121.060352c0 5.023744 2.711552 9.660416 7.092224 12.128256a13.906944 13.906944 0 0 0 14.047232-0.232448l101.5808-61.691904a13.918208 13.918208 0 0 0-0.200704-23.908352z m-108.603392 73.704448V472.267776l101.579776 59.370496-101.579776 61.693952z" fill="#485056" p-id="10050"></path><path d="M843.244544 219.93984H584.696832c-16.864256 0-30.583808 13.718528-30.583808 30.583808v111.164416H149.72928c-16.864256 0-30.583808 13.719552-30.583808 30.579712v343.596032c0 16.864256 13.719552 30.583808 30.583808 30.583808h249.295872v75.511808H226.197504c-7.23968 0-13.108224 5.86752-13.108224 13.108224 0 7.235584 5.868544 13.108224 13.108224 13.108224h624.520192c4.800512 0 8.987648-2.591744 11.272192-6.444032 7.195648-5.600256 11.840512-14.336 11.840512-24.139776V250.523648c-0.001024-16.864256-13.7216-30.583808-30.585856-30.583808zM145.36192 392.267776c0-2.368512 1.999872-4.369408 4.36736-4.369408h511.744c2.368512 0 4.37248 1.999872 4.37248 4.369408v260.414464H145.36192V392.267776z m4.36736 347.966464c-2.367488 0-4.36736-2.003968-4.36736-4.370432v-56.964096H665.84576v56.964096c0 2.366464-2.003968 4.370432-4.37248 4.370432H149.72928z m275.511296 101.726208v-75.511808h128.872448v71.144448c0 1.483776 0.111616 2.939904 0.316416 4.368384H425.240576z m422.372352-146.752512h-93.620224c-7.235584 0-13.108224 5.86752-13.108224 13.108224 0 7.235584 5.871616 13.108224 13.108224 13.108224h93.620224v116.163584c0 2.368512-1.999872 4.366336-4.368384 4.366336l-258.547712 0.006144c-2.368512 0-4.368384-1.999872-4.368384-4.368384v-71.144448h81.143808c16.864256 0 30.583808-13.719552 30.583808-30.583808V577.175552h151.988224c1.240064 0 2.432-0.18432 3.567616-0.503808v118.536192z m0-143.744a13.129728 13.129728 0 0 0-3.567616-0.499712H692.057088V392.267776c0-16.86016-13.719552-30.579712-30.583808-30.579712h-81.143808v-42.012672h267.28448v231.788544z m0-258.003968h-267.28448v-42.93632c0-2.368512 1.999872-4.369408 4.368384-4.369408h258.547712c2.368512 0 4.368384 2.000896 4.368384 4.369408v42.93632z" fill="#485056" p-id="10051"></path></svg>