<?xml version="1.0" standalone="no"?><!DOCTYPE svg PUBLIC "-//W3C//DTD SVG 1.1//EN" "http://www.w3.org/Graphics/SVG/1.1/DTD/svg11.dtd"><svg t="1563179825306" class="icon" viewBox="0 0 1024 1024" version="1.1" xmlns="http://www.w3.org/2000/svg" p-id="13060" xmlns:xlink="http://www.w3.org/1999/xlink" width="200" height="200"><defs><style type="text/css"></style></defs><path d="M412.657813 860.311771H225.925809V399.765003c0-11.09863 0-16.644934-5.549917-22.196055l310.73032-233.04473L841.831716 383.120069c-5.547509 5.546304-5.547509 11.096221-5.547509 16.644934v156.722235h95.562368V406.853821h24.659741c12.329269 0 24.659741-6.16644 36.99503-18.494505 0-12.330473 0-30.82859-12.335289-36.995031L555.77077 30.774403c-12.332881-6.16644-24.66215-6.16644-36.998643 0L93.375635 351.364285c-12.331677 12.332881-18.498117 24.66215-12.331677 36.995031 0 12.328064 12.331677 18.494505 24.659742 18.494505h24.660945v524.043885c0 18.494505 12.32686 30.82859 30.827386 30.82859h251.464578v-101.414525z" p-id="13061"></path><path d="M931.098799 939.03052l-64.175053-64.175053a15.077134 15.077134 0 0 0-21.392889 0l-1.758055 1.755647s-31.720864-31.501709-32.528847-32.08572c25.128155-31.282554 40.147489-70.989325 40.147489-114.213412 0-100.806431-81.683361-182.4922-182.490996-182.4922s-182.4922 81.685769-182.4922 182.4922c0 100.807635 81.684565 182.4922 182.4922 182.492201 43.222883 0 82.92845-15.019335 114.213412-40.14749 0.512967 0.806779 32.08572 32.527642 32.08572 32.527643l-1.756851 1.758055a15.077134 15.077134 0 0 0 0 21.392889l64.175053 64.175053a15.077134 15.077134 0 0 0 21.392888 0l32.086925-32.086925a15.07593 15.07593 0 0 0 0.001204-21.392888z m-262.197146-96.483541c-61.978688 0-112.161544-50.256309-112.161544-112.234997 0-61.977483 50.256309-112.233793 112.234997-112.233792 61.976279 0 112.232589 50.256309 112.232588 112.233792-0.072249 61.977483-50.327354 112.234997-112.306041 112.234997z m0 0" p-id="13062"></path><path d="M376.534585 814.843153c0 7.979887-6.469886 14.449773-14.449773 14.449772h-89.106931c-7.979887 0-14.449773-6.469886-14.449773-14.449772v-89.106932c0-7.979887 6.469886-14.449773 14.449773-14.449773h89.106931c7.979887 0 14.449773 6.469886 14.449773 14.449773v89.106932zM376.534585 658.303949c0 7.979887-6.469886 14.449773-14.449773 14.449772h-89.106931c-7.979887 0-14.449773-6.469886-14.449773-14.449772v-89.106932c0-7.979887 6.469886-14.449773 14.449773-14.449773h89.106931c7.979887 0 14.449773 6.469886 14.449773 14.449773v89.106932z" p-id="13063"></path></svg>