<?xml version="1.0" standalone="no"?><!DOCTYPE svg PUBLIC "-//W3C//DTD SVG 1.1//EN" "http://www.w3.org/Graphics/SVG/1.1/DTD/svg11.dtd"><svg t="1563238777991" class="icon" viewBox="0 0 1024 1024" version="1.1" xmlns="http://www.w3.org/2000/svg" p-id="2615" xmlns:xlink="http://www.w3.org/1999/xlink" width="200" height="200"><defs><style type="text/css"></style></defs><path d="M507.733333 1006.933333C238.933333 1006.933333 17.066667 785.066667 17.066667 516.266667S238.933333 25.6 507.733333 25.6s490.666667 221.866667 490.666667 490.666667-221.866667 490.666667-490.666667 490.666666z m0-896c-221.866667 0-405.333333 183.466667-405.333333 405.333334s183.466667 405.333333 405.333333 405.333333 405.333333-183.466667 405.333334-405.333333-183.466667-405.333333-405.333334-405.333334z" p-id="2616"></path><path d="M512 588.8c-25.6 0-42.666667-17.066667-42.666667-42.666667V264.533333c0-25.6 17.066667-42.666667 42.666667-42.666666s42.666667 17.066667 42.666667 42.666666v277.333334c0 25.6-21.333333 46.933333-42.666667 46.933333z" p-id="2617"></path><path d="M512 712.533333m-59.733333 0a59.733333 59.733333 0 1 0 119.466666 0 59.733333 59.733333 0 1 0-119.466666 0Z" p-id="2618"></path></svg>