<?xml version="1.0" standalone="no"?><!DOCTYPE svg PUBLIC "-//W3C//DTD SVG 1.1//EN" "http://www.w3.org/Graphics/SVG/1.1/DTD/svg11.dtd"><svg t="1563178158547" class="icon" viewBox="0 0 1024 1024" version="1.1" xmlns="http://www.w3.org/2000/svg" p-id="5741" xmlns:xlink="http://www.w3.org/1999/xlink" width="200" height="200"><defs><style type="text/css"></style></defs><path d="M152.1 894.6c-13.8 0-22.3-3.3-22.3-19.8v-75.9c2.4-3 10.6-11 27.4-19.4 20.9-10.3 190.5-90 237.2-110.8 10-4.5 17.1-13.6 19-24.5 1.8-10.8-1.8-21.8-9.9-29.4-88.7-83.5-89.7-183.8-89.7-188.1V278.5C331.4 153.8 448.5 133.1 498 129.9c1.3-0.1 2.5-0.2 3.7-0.5 0.9 0 2.1 0 3.3 0.1h4.1c1.1 0.2 2.2 0.3 3.4 0.4 50.3 2.9 169.1 23.2 186.7 148.6v139.1H765V276.3c0-1.4-0.1-2.9-0.3-4.3-5.4-41.3-19.3-77.6-41.4-107.8-18.7-25.5-43.1-46.7-72.6-63-48.8-26.9-101.3-34.4-128.8-36.5-2.3-0.5-4.7-0.8-7-0.8h-3.6c-1.4 0-3.2 0-5.2 0.1-2.1 0-3.8-0.1-5.2-0.1H496c-2.7 0-5.4 0.3-7.9 1-27.3 2.2-79.3 10-127.4 37.1-29 16.4-53.1 37.6-71.4 63-21.6 30.1-35.3 66.1-40.7 107-0.2 1.4-0.3 2.8-0.3 4.3v150.6c0 6.3 0.7 39.8 14.9 84.5 13.5 42.8 34.7 81.9 62.9 116.4-68.5 31.6-181.4 84.7-198 92.9-23.9 11.8-63.9 37.3-63.9 75.4v78.6c0 9.7 1.6 28.7 12.4 46.7 10.6 17.7 32.3 38.7 75.5 38.7H551v-65.6H152.1z" p-id="5742"></path><path d="M732.1 467.7c-18.1 0-32.8-14.7-32.8-32.8V407c0-18.1 14.7-32.8 32.8-32.8 18.1 0 32.8 14.7 32.8 32.8v27.9c0.1 18.1-14.6 32.8-32.8 32.8zM601.4 927.4c0 18.1-14.7 32.8-32.8 32.8h-27.9c-18.1 0-32.8-14.7-32.8-32.8 0-18.1 14.7-32.8 32.8-32.8h27.9c18.1 0 32.8 14.7 32.8 32.8zM656.7 626.8c0-19.2 6.2-38.7 18.5-58.4 12.3-19.7 30.4-36.1 54-49 23.7-13 51.3-19.4 82.9-19.4 29.3 0 55.3 5.4 77.7 16.2 22.5 10.8 39.8 25.6 52.1 44.2 12.2 18.6 18.4 38.9 18.4 60.7 0 17.2-3.5 32.3-10.5 45.2-7 13-15.3 24.1-24.9 33.6-9.6 9.4-26.9 25.3-51.8 47.5-6.9 6.3-12.4 11.8-16.5 16.5-4.2 4.8-7.2 9.1-9.3 13.1-2 3.9-3.6 7.9-4.7 11.8-1.1 3.9-2.8 10.9-5 20.8-3.8 21.1-15.9 31.6-36.1 31.6-10.5 0-19.4-3.4-26.6-10.3-7.2-6.9-10.8-17.1-10.8-30.7 0-17 2.6-31.7 7.9-44.2 5.3-12.4 12.2-23.4 21-32.8 8.7-9.4 20.4-20.6 35.2-33.6 13-11.3 22.3-19.9 28.1-25.7s10.6-12.2 14.6-19.3c3.9-7.1 5.9-14.8 5.9-23.1 0-16.2-6-29.9-18.1-41-12-11.1-27.6-16.7-46.6-16.7-22.3 0-38.7 5.6-49.2 16.9-10.5 11.2-19.4 27.8-26.7 49.6-6.9 22.9-19.9 34.3-39.2 34.3-11.3 0-20.9-4-28.7-12-7.7-7.9-11.6-16.5-11.6-25.8z m148.2 332.8c-12.3 0-23.1-4-32.3-12-9.2-8-13.8-19.2-13.8-33.6 0-12.8 4.5-23.5 13.4-32.2 8.9-8.7 19.8-13.1 32.8-13.1 12.8 0 23.5 4.4 32.2 13.1 8.7 8.7 13.1 19.4 13.1 32.2 0 14.2-4.6 25.3-13.7 33.4-9.2 8.1-19.8 12.2-31.7 12.2z" p-id="5743"></path></svg>