<?xml version="1.0" standalone="no"?><!DOCTYPE svg PUBLIC "-//W3C//DTD SVG 1.1//EN" "http://www.w3.org/Graphics/SVG/1.1/DTD/svg11.dtd"><svg t="1563180886694" class="icon" viewBox="0 0 1024 1024" version="1.1" xmlns="http://www.w3.org/2000/svg" p-id="15220" xmlns:xlink="http://www.w3.org/1999/xlink" width="200" height="200"><defs><style type="text/css"></style></defs><path d="M512 22.755556C781.795556 22.755556 1001.244444 242.204444 1001.244444 512S781.795556 1001.244444 512 1001.244444 22.755556 781.795556 22.755556 512 242.204444 22.755556 512 22.755556z m0 892.586666c222.350222 0 403.342222-180.992 403.342222-403.342222 0-222.378667-180.963556-403.342222-403.342222-403.342222C289.564444 108.657778 108.657778 289.592889 108.657778 512c0 222.378667 180.963556 403.342222 403.342222 403.342222z m47.786667-321.991111a45.368889 45.368889 0 0 1-90.737778 0v-283.875555a45.368889 45.368889 0 0 1 90.737778 0v283.875555z m-47.303111 103.054222a46.08 46.08 0 0 1 0 92.16 46.08 46.08 0 0 1 0-92.16z" fill="#FA6969" p-id="15221"></path></svg>