<?xml version="1.0" standalone="no"?><!DOCTYPE svg PUBLIC "-//W3C//DTD SVG 1.1//EN" "http://www.w3.org/Graphics/SVG/1.1/DTD/svg11.dtd"><svg t="1558059686704" class="icon" style="" viewBox="0 0 1024 1024" version="1.1" xmlns="http://www.w3.org/2000/svg" p-id="5368" xmlns:xlink="http://www.w3.org/1999/xlink" width="200" height="200"><defs><style type="text/css"></style></defs><path d="M853.99763 689.336918c-61.630662 124.579343-190.012611 210.251561-338.419639 210.251561-148.401912 0-276.787954-85.673242-338.418616-210.251561l-64.038502 0c65.550948 157.689439 221.042325 268.580015 402.457118 268.580015 181.415816 0 336.912309-110.890576 402.457118-268.580015L853.99763 689.336918 853.99763 689.336918zM853.99763 334.151429c-61.630662-124.579343-190.012611-210.251561-338.419639-210.251561-148.401912 0-276.787954 85.673242-338.418616 210.251561l-64.038502 0C178.671821 176.460967 334.163197 65.571415 515.57799 65.571415c181.415816 0 336.912309 110.890576 402.457118 268.580015L853.99763 334.151429 853.99763 334.151429zM341.11247 454.771601l-60.687174 13.907755c-8.433066-28.64541-27.810393-43.812855-58.154491-45.514613-42.986023 2.52859-65.745377 32.458249-68.273966 89.76135 2.533706 57.32766 25.286919 88.084151 68.273966 92.290963 34.549887-0.826831 54.774511-21.48943 60.682058-61.946864l60.687174 18.965957c-14.33959 62.378699-54.798047 93.554746-121.369232 93.554746-85.968977-4.230348-131.071198-51.837622-135.276986-142.863778 4.206812-91.026156 49.308009-139.070382 135.276986-144.126538C282.953885 371.331213 322.559928 399.99402 341.11247 454.771601L341.11247 454.771601zM621.776707 650.730645l-79.648015 0-68.27192-107.461477-36.660968 0 0 108.726284-63.215764 0L373.980042 372.59602l127.691217 0c68.26885 1.696642 103.670128 29.512151 106.203834 83.439364 0.826831 46.360887-21.930475 74.176396-68.273966 83.439364L621.776707 650.730645 621.776707 650.730645zM491.555877 421.898913l-54.361095 0 0 74.594929 54.361095 0c33.704636 0 50.14098-12.211113 49.309032-36.665061C542.542108 433.710936 526.105764 421.073104 491.555877 421.898913L491.555877 421.898913zM936.577417 651.995451l-60.682058 0L875.895359 486.379483c0-17.701151 0.826831-38.761815 2.52859-63.215764l-1.264806 0c-2.52859 16.869203-5.907547 32.871665-10.114358 48.044226l-51.836599 180.787506L762.110873 651.995451l-51.836599-185.844685c-2.529613-10.114358-5.903453-24.435529-10.114358-42.986023l-1.25969 0c0 5.056156 0.413416 12.229532 1.25969 21.4925 0.831948 25.286919 1.2689 43.419905 1.2689 54.361095l0 152.978137L642.005424 651.996474 642.005424 372.59602l93.554746 0 49.309032 183.317119c0.826831 5.056156 2.090615 15.171538 3.792373 30.344099 0-2.529613 0.413416-5.889127 1.264806-10.114358 0-10.946306 0.826831-17.701151 2.52859-20.228717l49.303916-183.317119 94.818529 0L936.577417 651.995451 936.577417 651.995451zM936.577417 651.995451" p-id="5369"></path></svg>