<?xml version="1.0" standalone="no"?><!DOCTYPE svg PUBLIC "-//W3C//DTD SVG 1.1//EN" "http://www.w3.org/Graphics/SVG/1.1/DTD/svg11.dtd"><svg t="1556948236986" class="icon" style="" viewBox="0 0 1024 1024" version="1.1" xmlns="http://www.w3.org/2000/svg" p-id="5522" xmlns:xlink="http://www.w3.org/1999/xlink" width="200" height="200"><defs><style type="text/css"></style></defs><path d="M627.397 529.937h21.27v-35.874H537.238v-162.54c52.064-0.952 104.445-6.348 155.238-17.46 3.492 13.334 6.667 26.667 9.207 40.318h36.507c-3.174-16.19-6.666-32.698-10.793-48.571 41.27-11.112 81.905-26.032 119.365-46.667 5.397 6.984 10.476 13.968 15.555 21.27h42.54c-50.159-83.81-128.254-150.476-219.047-186.35C637.556 74.381 585.81 64.54 534.063 62h-29.84c-58.096 2.54-115.874 15.238-168.89 39.365-80 35.556-149.206 95.556-196.19 169.524-44.445 69.206-68.572 150.794-70.159 233.016v16.19c0.953 44.127 8.254 88.572 21.905 130.476 18.73 57.778 49.524 112.064 89.524 157.778 57.143 65.397 133.65 113.968 217.46 137.143 25.397 7.302 51.111 11.746 77.143 14.286a350.122 350.122 0 0 0 25.714 1.905v-38.096 0.635c-8.889-1.905-17.778-5.08-25.714-9.206-15.556-7.62-29.524-18.73-41.27-31.111-37.46-38.73-60.317-88.89-77.778-139.365 39.365-8.572 79.048-13.334 119.365-15.238h3.492c7.302-0.318 14.921-0.635 22.223-0.635v0.317-36.508 0.318c-8.572 0.317-17.143 0.317-25.715 0.952-43.492 1.905-86.666 7.302-129.206 16.825-15.556-58.73-23.175-119.365-24.444-180h179.682l126.032-0.634z m195.555-299.048c-33.65 17.46-69.206 30.476-105.714 40-15.238-46.35-35.873-91.746-65.397-130.794-7.936-9.206-14.92-19.047-24.127-27.619 74.92 20 143.175 61.905 195.238 118.413zM537.238 99.778c26.35 5.397 48.889 21.27 67.302 40.317 37.46 38.73 60 88.89 77.777 139.048-12.063 2.857-24.127 5.397-36.19 6.667-35.873 5.714-72.381 8.888-108.889 9.523V99.778z m-154.603 21.27c8.889-3.175 18.095-6.35 27.302-8.254-43.175 43.492-69.842 100.317-88.89 158.095-36.507-9.524-72.38-22.54-105.714-40 45.715-49.524 103.81-87.62 167.302-109.841zM191.206 259.143c37.778 20.635 78.096 35.555 119.365 46.667-15.873 61.587-24.127 124.761-25.396 188.253h-180c3.81-84.761 34.603-167.936 86.031-234.92z m0 505.714c-51.746-66.984-82.222-150.159-85.714-234.92h180c1.27 63.492 9.206 126.984 25.397 188.253-41.587 11.112-81.905 26.032-119.683 46.667z m219.048 146.35c-74.603-19.683-142.857-61.588-194.92-118.096 33.65-17.46 69.206-30.794 105.714-40 19.047 57.46 46.031 114.286 89.206 158.095z m90.794-417.144c-60 0-119.683 0.318-179.683 0 1.27-60.634 8.889-121.27 24.445-180 50.793 11.112 103.174 16.508 155.238 17.46v162.54zM420.73 289.937c-21.587-3.175-43.492-5.715-64.444-10.794 15.238-42.857 33.65-85.397 62.222-121.27 20.952-26.667 48.571-51.111 82.857-58.413v195.873c-27.302 0-53.968-2.54-80.635-5.396z" p-id="5523"></path><path d="M522.317 961.683l126.35 0.317V544.54h-126.35v417.143z m35.239-381.905h55.555v346.666h-55.873V579.778z m151.746-203.175H675.65v585.08h126.032v-585.08h-92.381z m57.142 35.238V927.08h-55.873V411.841h55.873z m132.381-116.508H828.35v666.35H954.7v-666.35h-55.874zM919.46 685.81v240.634h-55.873V330.571h52.699c0.952 2.54 2.222 4.762 3.174 7.302V685.81z" p-id="5524"></path></svg>