<?xml version="1.0" standalone="no"?><!DOCTYPE svg PUBLIC "-//W3C//DTD SVG 1.1//EN" "http://www.w3.org/Graphics/SVG/1.1/DTD/svg11.dtd"><svg t="1563238814402" class="icon" viewBox="0 0 1024 1024" version="1.1" xmlns="http://www.w3.org/2000/svg" p-id="3371" xmlns:xlink="http://www.w3.org/1999/xlink" width="200" height="200"><defs><style type="text/css"></style></defs><path d="M807.538939 817.987918c-163.213061 163.213061-427.885714 163.213061-591.098776 0-163.213061-163.213061-163.213061-427.885714 0-591.098775 163.213061-163.213061 427.864816-163.213061 591.098776 0 163.213061 163.213061 163.213061 427.864816 0 591.098775zM763.193469 773.642449c138.762449-138.762449 138.762449-363.687184 0-502.428735-138.762449-138.741551-363.687184-138.741551-502.428734 0-138.741551 138.762449-138.741551 363.708082 0 502.428735 138.762449 138.762449 363.708082 138.762449 502.428734 0z m-301.139591-199.491918l192.09404-192.094041 44.366368 44.345469-221.664653 221.622857a20.897959 20.897959 0 0 1-29.570613 0l-132.973714-132.994612 44.303674-44.303673 103.444898 103.444898z" p-id="3372"></path></svg>