<?xml version="1.0" standalone="no"?><!DOCTYPE svg PUBLIC "-//W3C//DTD SVG 1.1//EN" "http://www.w3.org/Graphics/SVG/1.1/DTD/svg11.dtd"><svg t="1563260866055" class="icon" viewBox="0 0 1055 1024" version="1.1" xmlns="http://www.w3.org/2000/svg" p-id="5584" xmlns:xlink="http://www.w3.org/1999/xlink" width="206.0546875" height="200"><defs><style type="text/css"></style></defs><path d="M338.021895 244.741394l19.443832-15.053289 24.712483 2.132549-9.659194-21.325493 9.659194-21.450937-24.712483 2.132549-19.443832-15.053289-5.394096 21.450937-21.450937 11.540855 21.450937 11.791743 5.394096 23.834375z m344.218547-25.716036l17.185838 17.185839 7.652089-22.705378 21.450937-10.913635-20.447384-15.053289-4.139655-23.583486-19.443832 14.17518-23.583486-4.139654 7.652089 23.583486-10.913635 21.450937h24.587039z m-193.058434-27.974029l23.583486-6.397648 22.705378 11.791743v-23.583486l17.185838-16.182286-23.583486-8.530197-11.540855-21.450937-13.924293 18.189391-24.712483 3.261546 15.053289 19.443832-4.766874 23.458042zM234.906864 333.681245l17.185838 17.185838 8.530197-22.705378 22.705378-10.913634-19.443832-13.798849-3.261546-23.583486-20.447384 13.924292-23.583487-3.261546 6.397648 22.705378-11.791743 21.450937 23.708931-1.003552z m463.515864 463.892196l-18.189391 15.053289-24.837928-2.132549 9.784638 21.450937-9.784638 21.450937 24.837928-2.132549 18.189391 15.053289 5.394095-22.705378 21.325493-11.791743-21.325493-11.791743-5.394095-22.45449z m-150.282004 41.772878l-23.583487 6.397648-21.450937-11.791744v23.583487l-17.185838 16.182286 23.70893 8.530197 10.913635 21.450937 13.924292-18.189391 23.583487-3.261546-12.92074-19.443832 3.010658-23.458042z m-181.392136-27.095921l-17.185838-17.185838-7.401201 22.705378-21.450937 10.913634 19.443832 15.053289 4.139655 23.583487 19.443832-13.924293 23.583486 4.139655-7.401201-23.583487 10.913635-21.450937-24.085263-0.250888zM516.02704 0C233.652423 0 3.964318 229.437217 3.964318 511.937278c0 282.249173 229.688105 512.062722 512.062722 512.062722 282.249173 0 512.062722-229.813549 512.062722-512.062722 0.125444-282.249173-229.813549-511.937278-512.062722-511.937278z m0 989.628323c-263.056229 0-477.691045-214.634816-477.691045-477.691045S253.096255 34.246233 516.02704 34.246233C779.083269 34.246233 993.718085 247.752052 993.718085 511.937278c0 263.056229-214.634816 477.691045-477.691045 477.691045z m0-906.960676C278.686846 82.667647 86.631965 274.847973 86.631965 511.937278c0 237.340194 192.180326 429.395075 429.269631 429.395075 237.340194 0 429.269631-192.180326 429.269631-429.395075-1.003553-237.340194-193.058434-429.269631-429.144187-429.269631z m318.502511 613.797868l-17.185838-15.053289-6.397648 23.583486-21.450937 12.92074 20.447384 12.92074 4.139655 23.583487 19.443832-15.05329 23.583486 2.13255C782.972036 851.138062 658.406067 924.021071 516.65426 924.021071c-226.426559 0-410.076687-183.650129-410.076687-410.076688s183.775573-410.076687 410.202131-410.076687 410.076687 183.650129 410.076688 410.076687c0 83.796643-25.716036 162.073747-68.868798 227.304668l-7.652089-21.450938 10.537302-22.705377-26.343256-0.627221zM684.623879 305.958104c-47.668749-38.76222-107.003798-59.962269-168.596839-60.213157-127.827514 0-237.340194 91.197844-261.927233 215.763812l17.185839 3.261546c21.450937-117.290212 124.565968-201.714076 244.741394-201.714076 57.955164 0 113.652334 20.447385 157.934093 56.700723l10.662746-13.798848zM516.02704 760.943771c-57.704275 0-113.52689-20.071052-157.934093-56.951611l-10.913635 12.92074c47.668749 38.636776 107.003798 59.962269 168.59684 60.213157 127.827514 0 237.340194-91.323288 261.801788-215.763813l-17.185838-3.261546c-22.078158 118.042876-125.193189 202.843072-244.365062 202.843073z m0 0" fill="" p-id="5585"></path><path d="M360.225496 473.55139c3.261546 10.788191 6.648536 21.074605 10.286415 30.984687l11.791743 32.490016c4.390543 12.29352 9.031974 24.210707 13.924292 35.626118l-19.318387 7.024869-4.766875-13.171629L256.232357 608.403773l21.325493 58.833272c3.888766 14.426069 13.673404 18.565723 29.22847 12.29352l86.807301-31.486464c10.16097-3.010658 16.433174-7.024868 19.0675-11.791743 2.508882-4.892319 1.756217-15.805954-2.508882-32.866348 7.902977 1.756217 16.433174 2.383437 25.465148 1.756217 2.257993 17.060394 2.132549 29.103026-0.250888 36.253338-2.383437 7.150312-7.526645 12.544408-15.555066 16.056842L302.270333 699.977949c-20.823717 8.153865-34.120789 2.75977-39.640328-16.433174l-27.346809-75.517334c-2.132549-5.895872-6.397648-16.558618-12.669852-32.113684l21.074605-7.652088c2.383437 8.404753 5.017763 16.684062 8.028421 24.837927l114.906774-41.647434-20.071052-55.320838-97.344604 35.249786c-13.422516 4.892319-28.60125 10.662747-45.285311 17.436727l-6.397648-17.562171C214.710367 525.736126 229.763656 520.592919 242.558952 515.951488l117.666544-42.400098zM501.224639 565.376455c-11.039079 5.268651-22.329046 11.791743-34.246233 19.318388-3.637878-4.641431-8.279309-9.910082-13.673404-15.931398 5.143207-3.888766 9.408306-11.039079 12.544407-21.450937s5.770428-21.952713 7.777533-34.622566c-3.512434 1.254441-8.279309 3.637878-14.300625 7.150313-6.021316 3.512434-10.913635 7.275756-14.802401 11.289967-4.892319-6.14676-10.035526-11.289967-15.429621-15.304178 5.519539-8.530197 8.906529-21.074605 10.286414-37.507779 1.379885-16.30773 1.505329-32.364572 0.501776-47.794193 8.530197 1.505329 15.68051 2.257993 21.576382 2.132549-1.630773 6.523092-3.261546 16.433174-5.143208 29.604802-1.881661 13.297072-3.888766 28.60125-6.146759 45.912533 4.139655-1.505329 12.92074-5.394095 26.594144-11.6663 3.010658-13.673404 4.766875-26.217812 5.268651-37.633223 9.53375 2.508882 16.684062 3.888766 21.325493 4.139655-3.136102 9.784638-6.523092 22.579934-10.411858 38.511332-3.763322 15.931398-8.781085 34.622565-14.927845 56.073502 5.268651-1.881661 17.938503-8.153865 37.884111-18.691167 2.132549 5.895872 4.265099 11.039079 6.648536 15.429621-3.261546 2.132549-10.411858 5.770428-21.325493 11.039079z m8.404753 45.159867c-11.039079 7.024868-20.447385 14.175181-28.350361 21.701826-3.261546-5.394095-7.902977-11.039079-14.049737-16.809507 16.93495-8.153865 39.765772-21.701825 68.61791-40.769325 1.254441 5.519539 3.010658 11.164523 5.143207 16.934951-9.910082 5.644983-20.447385 11.917187-31.361019 18.942055z m25.84148-187.538895l64.980032-23.458042c-0.376332 15.429621-1.505329 28.350361-3.261546 38.887664-1.756217 10.537302-5.143207 22.705378-10.16097 36.378782 9.910082 3.637878 21.200049 6.523092 33.8699 8.530197 12.669852 2.007105 22.45449 2.75977 29.604802 2.13255-3.512434 6.648536-5.770428 13.297072-6.523092 20.196496-21.325493-2.257993-42.77643-7.652089-64.478255-16.30773-3.888766 7.401201-9.659194 15.931398-17.060395 25.590592s-15.805954 19.820164-25.214259 30.482911c-4.515987-5.017763-10.411858-8.530197-17.687615-10.411859 10.788191-8.530197 20.32194-17.813059 28.60125-27.723141 8.279309-9.910082 13.924293-18.063947 16.93495-24.461595-12.795296-7.902977-24.085263-17.060394-33.744457-27.472253-2.508882 14.802401-5.268651 27.346809-8.153865 37.633223-7.526645-2.508882-13.673404-4.01421-18.440279-4.265098 3.888766-9.408306 6.899424-18.816612 9.031974-28.60125 2.132549-9.659194 3.637878-19.69472 4.515986-29.981134 0.878109-10.286414 0.878109-21.200049 0-32.740904 8.530197 1.505329 15.68051 2.257993 21.576382 2.132549-1.630773 4.641431-3.136102 12.418964-4.390543 23.458042z m46.288864-0.878108l-44.783535 16.182286c12.168075 13.422516 23.959819 23.08171 35.249785 28.852137 5.895872-13.297072 9.031974-28.350361 9.53375-45.034423z m69.997795 138.364817c-0.62722 5.519539-1.128997 12.29352-1.505329 20.447384-19.192944-3.637878-34.998897-5.394095-47.543305-5.143207-12.544408 0.250888-25.84148 0.878109-39.891216 2.007105 1.379885-7.150312 2.007105-13.673404 1.881661-19.569276 43.403651-0.376332 72.381232 0.250888 87.058189 2.257994zM601.203568 516.829597c9.910082 0 19.569276 0.376332 29.103026 0.878109-1.505329 5.143207-2.132549 11.415411-2.132549 18.691167-8.279309-1.003553-17.060394-1.630773-26.4687-1.881661-9.408306-0.250888-20.823717 0.125444-34.371678 1.003552 1.630773-6.523092 1.881661-12.92074 1.003553-19.192943 11.917187 0.250888 22.956266 0.376332 32.866348 0.501776zM713.350573 421.115766l32.740904 90.319736 45.661644-16.558619-48.92319-135.10327c-4.01421-11.164523-8.404753-22.078158-12.92074-32.991793l19.318388-7.024868c3.261546 10.788191 6.899424 21.952713 11.164523 33.619013l10.78819 29.85569 35.124342-12.669852c9.910082-3.637878 20.949161-7.902977 32.991792-12.92074l6.397648 17.562171c-12.544408 3.888766-23.708931 7.652089-33.619012 11.164523l-35.124342 12.669852 32.364572 89.441627 48.295969-17.436727c11.666299-4.265099 23.583486-8.906529 35.626118-13.924293l6.397648 17.562171c-12.544408 3.888766-24.587039 7.902977-36.253338 12.168076l-128.078403 46.414308c-12.29352 4.390543-24.461595 9.157418-36.504226 14.175181l-6.397648-17.562171c9.53375-2.75977 21.325493-6.77398 35.37523-11.791743l-32.740904-90.319736c-3.637878-9.910082-7.652089-20.071052-12.042632-30.357466l20.196497-7.275757c3.136102 10.662747 6.648536 20.949161 10.16097 30.984687z" fill="" p-id="5586"></path></svg>