<?xml version="1.0" standalone="no"?><!DOCTYPE svg PUBLIC "-//W3C//DTD SVG 1.1//EN" "http://www.w3.org/Graphics/SVG/1.1/DTD/svg11.dtd"><svg t="1563178660773" class="icon" viewBox="0 0 1024 1024" version="1.1" xmlns="http://www.w3.org/2000/svg" p-id="9901" xmlns:xlink="http://www.w3.org/1999/xlink" width="200" height="200"><defs><style type="text/css"></style></defs><path d="M1022.464 28.16V23.552c0-0.512 0-1.024-0.512-1.536 0-1.024-0.512-2.048-0.512-3.072 0-0.512-0.512-1.024-0.512-2.048-0.512-1.024-0.512-2.048-1.024-2.56v-0.512c0-0.512-0.512-0.512-0.512-1.024 0 0 0-0.512-0.512-0.512-0.512-0.512-1.024-1.536-1.536-2.048l-0.512-0.512-1.024-1.024c-0.512-0.512-1.024-1.536-2.048-2.048 0 0 0-0.512-0.512-0.512-0.512-0.512-1.024-0.512-1.536-1.024-1.024-0.512-1.536-1.024-2.56-1.536-0.512-0.512-1.024-0.512-1.536-1.024-1.024-0.512-2.048-1.024-3.072-1.024-0.512 0-1.024-0.512-1.536-0.512-1.024 0-1.536-0.512-2.56-0.512h-6.144c-1.536 0-2.56 0.512-4.096 0.512-0.512 0-1.024 0.512-1.536 0.512-1.024 0.512-2.048 0.512-3.072 1.024h-0.512L14.848 512c-1.024 0.512-2.048 1.536-3.584 2.048l-0.512 0.512c-2.56 2.048-5.12 5.12-6.656 8.192-0.512 1.536-1.024 2.56-1.536 4.096s-0.512 3.072-1.024 4.096v5.632c0 1.024 0.512 2.048 0.512 3.072 0 0.512 0 1.536 0.512 2.048 0.512 1.024 0.512 2.048 1.024 2.56 0 0.512 0.512 1.024 0.512 1.536 0.512 1.024 1.536 2.048 2.048 3.072 0.512 0.512 0.512 1.024 0.512 1.024l3.072 3.072s0 0.512 0.512 0.512c1.024 1.024 2.048 1.536 3.072 2.048 0.512 0 0.512 0.512 1.024 0.512h0.512l248.32 126.976c12.288 6.656 28.16 1.536 34.304-11.264 6.656-12.288 1.536-28.16-11.264-34.304L81.92 532.992l812.544-426.496-495.616 595.968c-0.512 0.512-1.024 1.536-1.536 2.048v0.512c-0.512 1.024-1.536 2.048-2.048 3.584 0 0.512-0.512 1.024-0.512 1.536-0.512 1.024-0.512 1.536-0.512 2.56-0.512 1.024-0.512 2.048-0.512 3.072V998.4c0 14.336 11.264 25.6 25.6 25.6s25.6-11.264 25.6-25.6V728.576l513.536-616.96-118.784 811.52-284.672-145.408c-12.288-6.656-28.16-1.536-34.304 11.264s-1.536 28.16 11.264 34.304l316.416 161.792c0.512 0.512 1.024 0.512 2.048 0.512 0.512 0.512 1.024 0.512 2.048 0.512 1.024 0.512 2.048 0.512 3.072 0.512 0.512 0 1.024 0.512 1.536 0.512h6.144c1.024 0 1.536 0 2.56-0.512 1.024 0 1.536-0.512 2.56-0.512 0.512 0 1.536-0.512 2.048-1.024 1.024-0.512 1.536-0.512 2.56-1.024 0.512-0.512 1.536-1.024 2.048-1.536s1.536-1.024 2.048-1.536 1.536-1.024 2.048-1.536l1.536-1.536c0.512-0.512 1.024-1.024 1.536-2.048 0.512-0.512 1.024-1.536 1.536-2.56l0.512-0.512c0-0.512 0.512-1.024 0.512-1.024 0.512-1.024 1.024-2.048 1.024-3.072 0-0.512 0.512-1.536 0.512-2.048s0.512-1.024 0.512-2.048L1024 27.648c-1.536 1.536-1.536 1.024-1.536 0.512 0 0.512 0 0.512 0 0z" p-id="9902"></path></svg>