<?xml version="1.0" standalone="no"?><!DOCTYPE svg PUBLIC "-//W3C//DTD SVG 1.1//EN" "http://www.w3.org/Graphics/SVG/1.1/DTD/svg11.dtd"><svg t="1563178126643" class="icon" viewBox="0 0 1024 1024" version="1.1" xmlns="http://www.w3.org/2000/svg" p-id="5043" xmlns:xlink="http://www.w3.org/1999/xlink" width="200" height="200"><defs><style type="text/css"></style></defs><path d="M521.220096 223.968256l19.536896-59.9296 58.637312-19.976192-58.637312-19.977216-19.536896-59.941888-19.53792 59.941888-58.636288 19.977216 58.636288 19.976192 19.53792 59.9296zM104.24832 517.006336l26.049536-79.905792 78.198784-26.65984-78.198784-26.635264-26.049536-79.919104-26.074112 79.919104L0 410.43968l78.174208 26.65984 26.074112 79.906816zM286.647296 357.170176l39.123968-119.883776 117.2736-39.953408-117.2736-39.953408-39.123968-119.871488-39.074816 119.871488-117.2736 39.953408 117.2736 39.953408 39.074816 119.883776zM304.746496 606.912512c0 37.172224 28.684288 68.149248 67.418112 77.101056v262.524928h-44.9536c-12.366848 0-22.464512 8.950784-22.464512 20.000768 0 11.025408 10.097664 19.951616 22.464512 19.951616h674.300928c12.464128 0 22.489088-8.927232 22.489088-19.951616s-10.02496-20.000768-22.489088-20.000768H956.55936V684.013568c38.7072-8.951808 67.44064-39.928832 67.44064-77.101056v-20.000768H304.746496v20.000768z m449.533952 79.906816c49.685504 0 89.906176-35.781632 89.906176-79.905792 0 37.172224 28.685312 68.149248 67.418112 77.101056v262.524928H574.466048V686.819328c49.685504 0 89.9072-35.781632 89.9072-79.905792 0 44.123136 40.2944 79.905792 89.9072 79.905792z m-202.303488-2.80576v262.524928H417.117184V684.013568c38.709248-8.951808 67.442688-39.928832 67.442688-77.101056 0 37.172224 28.684288 68.149248 67.417088 77.101056zM934.0928 407.110656H394.652672l-89.9072 159.823872H1024l-89.9072-159.823872z m-439.435264 44.404736l-44.978176 79.931392c-2.000896 3.51232-5.951488 5.512192-10.097664 5.512192-1.65888 0-3.365888-0.29184-4.975616-1.024-5.536768-2.463744-7.829504-8.487936-5.000192-13.415424l44.9536-79.905792c2.78016-4.902912 9.51296-6.902784 15.048704-4.488192 5.561344 2.487296 7.7568 8.487936 5.049344 13.389824z m89.906176 0l-44.978176 79.931392c-1.999872 3.51232-5.951488 5.512192-10.097664 5.512192-1.657856 0-3.365888-0.29184-4.974592-1.024-5.536768-2.463744-7.829504-8.487936-5.024768-13.415424l44.978176-79.905792c2.78016-4.902912 9.561088-6.902784 15.048704-4.488192 5.56032 2.487296 7.7568 8.487936 5.04832 13.389824z m91.029504 75.491328c0 5.512192-5.000192 9.975808-11.219968 9.975808-6.1952 0-11.26912-4.440064-11.26912-9.975808v-79.931392c0-5.536768 5.07392-9.975808 11.26912-9.975808 6.219776 0 11.219968 4.43904 11.219968 9.975808v79.931392z m129.079296 8.732672a12.42112 12.42112 0 0 1-5.46304 1.24416c-3.951616 0-7.805952-1.878016-9.805824-5.195776l-49.173504-79.905792c-3.00032-4.829184-0.974848-10.927104 4.463616-13.53728 5.342208-2.659328 12.268544-0.951296 15.29344 3.92704l49.173504 79.905792c2.87744 4.829184 0.92672 10.927104-4.488192 13.561856z m89.467904 0.19456c-1.609728 0.73216-3.267584 1.024-5.024768 1.024-4.1216 0-8.073216-1.999872-10.000384-5.512192l-44.952576-79.931392c-2.80576-4.901888-0.513024-10.901504 5.000192-13.389824 5.46304-2.440192 12.29312-0.463872 15.097856 4.488192l44.952576 79.905792c2.732032 4.927488 0.536576 10.95168-5.072896 13.415424zM495.77984 829.704192V783.67744c-6.586368-3.535872-11.219968-9.61024-11.219968-16.95232 0-11.025408 10.097664-19.951616 22.464512-19.951616 12.464128 0 22.464512 8.927232 22.464512 19.951616 0 7.34208-4.585472 13.44-11.219968 16.976896v46.002176c6.634496 3.536896 11.219968 9.61024 11.219968 16.975872 0 11.025408-10.000384 19.95264-22.464512 19.95264-12.365824 0-22.464512-8.928256-22.464512-19.95264 0-7.365632 4.634624-13.463552 11.219968-16.975872z m-101.127168-462.558208c0-11.037696 10.097664-19.977216 22.464512-19.977216h494.486528c12.464128 0 22.489088 8.938496 22.489088 19.977216 0 11.04896-10.02496 19.976192-22.489088 19.976192H417.117184c-12.365824 0.012288-22.464512-8.927232-22.464512-19.976192z m304.014336 426.62912L682.81344 779.65312l63.563776-56.51456 15.853568 14.123008-63.563776 56.513536z m0 56.51456l-15.853568-14.14656L809.940992 723.13856l15.853568 14.123008-127.127552 113.028096z m111.273984-70.636544l15.879168 14.121984-63.589376 56.51456-15.853568-14.14656 63.563776-56.489984z" fill="#5D5D5D" p-id="5044"></path></svg>